<svg width="32" height="32" viewBox="0 0 32 32" fill="none" xmlns="http://www.w3.org/2000/svg">
<g clip-path="url(#clip0_11_88)">
<mask id="path-1-inside-1_11_88" fill="white">
<path fill-rule="evenodd" clip-rule="evenodd" d="M31 4C31 2.34315 29.6569 1 28 1H4C2.34315 1 1 2.34315 1 4V23C1 24.6569 2.34314 26 4 26H9.9352C10.9659 26 11.9244 26.5291 12.4737 27.4012L13.4615 28.9697C14.6382 30.8379 17.3618 30.8379 18.5385 28.9696L19.5263 27.4012C20.0756 26.5291 21.0341 26 22.0648 26H28C29.6569 26 31 24.6569 31 23V4Z"/>
</mask>
<path d="M19.5263 27.4012L17.834 26.3353L19.5263 27.4012ZM18.5385 28.9696L16.8462 27.9038L18.5385 28.9696ZM4 3H28V-1H4V3ZM3 23V4H-1V23H3ZM9.9352 24H4V28H9.9352V24ZM15.1538 27.9038L14.166 26.3353L10.7814 28.4671L11.7692 30.0355L15.1538 27.9038ZM17.834 26.3353L16.8462 27.9038L20.2308 30.0355L21.2186 28.4671L17.834 26.3353ZM28 24H22.0648V28H28V24ZM29 4V23H33V4H29ZM28 28C30.7614 28 33 25.7614 33 23H29C29 23.5523 28.5523 24 28 24V28ZM21.2186 28.4671C21.4017 28.1764 21.7212 28 22.0648 28V24C20.347 24 18.7495 24.8818 17.834 26.3353L21.2186 28.4671ZM11.7692 30.0355C13.7304 33.1493 18.2696 33.1493 20.2308 30.0355L16.8462 27.9038C16.4539 28.5265 15.5461 28.5265 15.1538 27.9038L11.7692 30.0355ZM9.9352 28C10.2788 28 10.5983 28.1764 10.7814 28.4671L14.166 26.3353C13.2505 24.8818 11.653 24 9.9352 24V28ZM-1 23C-1 25.7614 1.23857 28 4 28V24C3.44771 24 3 23.5523 3 23H-1ZM28 3C28.5523 3 29 3.44772 29 4H33C33 1.23858 30.7614 -1 28 -1V3ZM4 -1C1.23858 -1 -1 1.23858 -1 4H3C3 3.44772 3.44772 3 4 3V-1Z" fill="white" mask="url(#path-1-inside-1_11_88)"/>
<path d="M17.568 9.992V23H14.544V9.992H17.568ZM16.056 4.976C16.504 4.976 16.896 5.096 17.232 5.336C17.568 5.56 17.736 5.968 17.736 6.56C17.736 7.136 17.568 7.552 17.232 7.808C16.896 8.048 16.504 8.168 16.056 8.168C15.592 8.168 15.192 8.048 14.856 7.808C14.536 7.552 14.376 7.136 14.376 6.56C14.376 5.968 14.536 5.56 14.856 5.336C15.192 5.096 15.592 4.976 16.056 4.976Z" fill="white"/>
</g>
<defs>
<clipPath id="clip0_11_88">
<rect width="32" height="32" fill="white"/>
</clipPath>
</defs>
</svg>
