<svg width="32" height="32" viewBox="0 0 32 32" fill="none" xmlns="http://www.w3.org/2000/svg">
<g clip-path="url(#clip0_11_84)">
<path d="M17.7977 2.96923L29.452 26.8735C30.0998 28.2021 29.1323 29.75 27.6543 29.75H4.3457C2.86767 29.75 1.90025 28.2021 2.54797 26.8735L14.2023 2.96923C14.9326 1.47118 17.0674 1.47118 17.7977 2.96923Z" stroke="white" stroke-width="2"/>
<path d="M17.212 21.648H14.908L14.308 9.864H17.812L17.212 21.648ZM14.212 25.464C14.212 24.792 14.388 24.32 14.74 24.048C15.092 23.76 15.532 23.616 16.06 23.616C16.556 23.616 16.98 23.752 17.332 24.024C17.7 24.296 17.884 24.776 17.884 25.464C17.884 26.12 17.7 26.592 17.332 26.88C16.98 27.168 16.556 27.312 16.06 27.312C15.532 27.312 15.092 27.168 14.74 26.88C14.388 26.592 14.212 26.12 14.212 25.464Z" fill="white"/>
</g>
<defs>
<clipPath id="clip0_11_84">
<rect width="32" height="32" fill="white"/>
</clipPath>
</defs>
</svg>
