<?xml version="1.0" encoding="utf-8"?>
<!-- Generator: Adobe Illustrator 27.5.0, SVG Export Plug-In . SVG Version: 6.00 Build 0)  -->
<svg version="1.1" id="레이어_1" xmlns="http://www.w3.org/2000/svg" xmlns:xlink="http://www.w3.org/1999/xlink" x="0px"
	 y="0px" viewBox="0 0 119.9 119.9" style="enable-background:new 0 0 119.9 119.9;" xml:space="preserve">
<style type="text/css">
	.st0{fill:#CE1717;}
	.st1{fill:#231815;stroke:#221714;stroke-width:0.3715;stroke-miterlimit:10;}
	.st2{fill:#FF6D00;}
	.st3{fill:#FFFFFF;}
	.st4{fill:#231815;}
	.st5{fill:#040000;}
	.st6{fill:#F9C200;stroke:#221613;stroke-width:1.9647;stroke-linecap:round;stroke-linejoin:round;stroke-miterlimit:10;}
	.st7{fill:#FBDC61;stroke:#221613;stroke-width:1.9647;stroke-linecap:round;stroke-linejoin:round;stroke-miterlimit:10;}
</style>
<g>
	<g>
		<g>
			<path class="st0" d="M46,28.8c2.6,0,5.3,0.2,8.1,0.6c1.9,0.3,3.7,0.5,5.5,0.8c6,1,11.6,2.3,16.7,3.8
				c23.9,6.9,37.8,19.1,37.8,37.1c0,15.8-12.7,29.6-31.3,36.7c-8.5,3.2-18.3,5.1-28.7,5.1c-6.7,0-12.7-0.8-17.9-2.2
				C15.5,105.1,5.9,89.5,5.9,71.1C5.9,50,18.8,28.8,46,28.8 M46,22.9L46,22.9L46,22.9c-14.4,0-26.4,5.3-34.8,15.4
				C4,46.9,0,58.6,0,71.1c0,10.6,3,20.3,8.5,28c6.1,8.4,14.9,14.2,26.2,17.2c5.9,1.6,12.4,2.4,19.5,2.4c10.7,0,21.4-1.9,30.7-5.5
				C106.6,105,120,88.9,120,71.1c0-10.5-4-19.5-11.8-27c-7-6.7-17.2-12-30.3-15.8c-5.3-1.5-11.1-2.9-17.4-3.9
				c-1.7-0.3-3.6-0.6-5.6-0.9C51.9,23.1,48.9,22.9,46,22.9L46,22.9z"/>
		</g>
		<g>
			<path class="st0" d="M76.3,34c-5.1-1.5-10.7-2.7-16.7-3.8c-1.8-0.3-3.6-0.6-5.5-0.8c-2.8-0.4-5.5-0.6-8.1-0.6
				C18.8,28.8,5.9,50,5.9,71.1c0,18.4,9.7,34,30.3,39.6c5.3,1.4,11.2,2.2,17.9,2.2c10.4,0,20.1-1.8,28.7-5.1
				c18.6-7.1,31.3-20.8,31.3-36.7C114.1,53.1,100.2,40.9,76.3,34z"/>
			<path class="st1" d="M46,28.8c2.6,0,5.3,0.2,8.1,0.6c1.9,0.3,3.7,0.5,5.5,0.8c6,1,11.6,2.3,16.7,3.8
				c23.9,6.9,37.8,19.1,37.8,37.1c0,15.8-12.7,29.6-31.3,36.7c-8.5,3.2-18.3,5.1-28.7,5.1c-6.7,0-12.7-0.8-17.9-2.2
				C15.5,105.1,5.9,89.5,5.9,71.1C5.9,50,18.8,28.8,46,28.8 M46,27.3L46,27.3c-13,0-23.9,4.8-31.4,13.8C8,49,4.4,59.6,4.4,71.1
				c0,9.7,2.7,18.5,7.7,25.4c5.5,7.5,13.5,12.8,23.7,15.5c5.5,1.5,11.7,2.2,18.3,2.2c10.2,0,20.3-1.8,29.2-5.2
				c19.9-7.5,32.3-22.1,32.3-38c0-9.2-3.5-17.2-10.4-23.8C98.7,41,89.1,36,76.7,32.4c-5.1-1.5-10.8-2.8-16.9-3.8
				c-1.7-0.3-3.5-0.6-5.5-0.9C51.5,27.5,48.7,27.3,46,27.3L46,27.3z"/>
		</g>
		<circle class="st2" cx="53.7" cy="78.8" r="8.1"/>
		<circle class="st2" cx="27.9" cy="78.8" r="8.1"/>
		<g>
			<g>
				<ellipse class="st3" cx="33.1" cy="68" rx="5.2" ry="8.3"/>
				<path class="st4" d="M33.1,59.7c2.9,0,5.2,3.7,5.2,8.3s-2.3,8.3-5.2,8.3s-5.2-3.7-5.2-8.3C27.9,63.5,30.3,59.7,33.1,59.7
					 M33.1,58.3c-3.8,0-6.7,4.3-6.7,9.8s2.9,9.8,6.7,9.8s6.7-4.3,6.7-9.8S36.9,58.3,33.1,58.3L33.1,58.3z"/>
			</g>
			<g>
				<ellipse class="st3" cx="46.7" cy="68" rx="5.2" ry="8.3"/>
				<path class="st4" d="M46.7,59.7c2.9,0,5.2,3.7,5.2,8.3s-2.3,8.3-5.2,8.3s-5.2-3.7-5.2-8.3C41.4,63.5,43.8,59.7,46.7,59.7
					 M46.7,58.3c-3.8,0-6.7,4.3-6.7,9.8s2.9,9.8,6.7,9.8s6.7-4.3,6.7-9.8S50.4,58.3,46.7,58.3L46.7,58.3z"/>
			</g>
			<path class="st5" d="M45.1,68.8l3.6,1.5c-0.4,2.6-1.9,4.4-3.6,4.4c-2,0-3.7-2.6-3.7-5.9c0-3.2,1.7-5.9,3.7-5.9
				c1.6,0,3,1.6,3.5,3.9L45.1,68.8z"/>
			<path class="st5" d="M38.8,85.4c-0.3,0-0.6,0-0.9,0c-2.3-0.2-4.1-1.2-5.2-2.1c-0.3-0.2-0.4-0.7-0.1-1c0.2-0.3,0.7-0.4,1-0.1
				c0.9,0.7,2.5,1.6,4.5,1.8c4.4,0.4,7.5-2.8,8.1-3.5c0.3-0.3,0.7-0.3,1-0.1c0.3,0.3,0.3,0.7,0.1,1C46.6,82.1,43.5,85.4,38.8,85.4z"
				/>
			<path class="st5" d="M39.3,81.6c-0.7,0-1.4-0.3-1.9-0.7c-0.6-0.5-0.9-1.3-1-2c0-0.8,0.3-1.5,0.9-2.1c0.6-0.6,1.4-0.8,2.3-0.8
				c0.4,0,0.7,0.4,0.7,0.8s-0.4,0.7-0.8,0.7c-0.4,0-0.8,0.1-1.1,0.4s-0.5,0.6-0.4,1c0,0.3,0.2,0.7,0.5,0.9c0.3,0.3,0.7,0.4,1.1,0.4
				c0.4,0,0.8,0.3,0.8,0.7c0,0.4-0.3,0.8-0.7,0.8C39.5,81.6,39.4,81.6,39.3,81.6z"/>
			<path class="st5" d="M31.6,68.8l3.6,1.5c-0.4,2.6-1.9,4.4-3.6,4.4c-2,0-3.7-2.6-3.7-5.9c0-3.2,1.7-5.9,3.7-5.9
				c1.6,0,3,1.6,3.5,3.9L31.6,68.8z"/>
		</g>
		<path d="M53.6,80.9c-7.1,0-12.9-5.8-12.9-12.9s5.8-12.9,12.9-12.9s12.8,5.9,12.8,13S60.7,80.9,53.6,80.9z M53.6,56.7
			c-6.3,0-11.4,5.1-11.4,11.4s5.1,11.4,11.4,11.4S65,74.3,65,68.1C65,61.8,59.8,56.7,53.6,56.7z"/>
		<path d="M26.2,80.9c-7.1,0-12.9-5.8-12.9-12.9s5.8-12.9,12.9-12.9s12.9,5.9,12.9,13S33.3,80.9,26.2,80.9z M26.2,56.7
			c-6.3,0-11.4,5.1-11.4,11.4s5.1,11.4,11.4,11.4s11.4-5.1,11.4-11.4S32.5,56.7,26.2,56.7z"/>
		<rect x="38.8" y="67.6" width="2.2" height="1"/>
	</g>
	<g>
		<path class="st6" d="M26.5,28.2L26.5,28.2C28.3,20.6,35.9-1,64.8,1.7c30.4,2.9,44.1,19.6,38.5,44.1l0,0c0,0,1.9,1,1.3,2.7
			c0,0-0.7,1.4-2.6,1.2c0,0-4.9-0.4-10.8-1.7c-16-2.7-46.1-8.6-63.7-16.4c-0.5,0-1-0.1-1.6-0.7C23.9,28.9,26.5,28.2,26.5,28.2z"/>
		<path class="st7" d="M87.6,7.8c0,0-32.4-8.1-43.8,29.5c0,0-5.5-1.2-12.9-4.2c0,0,6.9-29.1,33.9-31.5C64.8,1.6,78.6-0.8,87.6,7.8z"
			/>
		<path class="st6" d="M74,43.3c0,0-23,6.4-47.9-0.1c0,0-18.2-4.5-0.2-12.4L74,43.3z"/>
	</g>
	<g>
		<path class="st5" d="M51.7,67.2"/>
	</g>
</g>
</svg>
