<?xml version="1.0" encoding="utf-8"?>
<!-- Generator: Adobe Illustrator 27.4.0, SVG Export Plug-In . SVG Version: 6.00 Build 0)  -->
<svg version="1.1" id="레이어_1" xmlns="http://www.w3.org/2000/svg" xmlns:xlink="http://www.w3.org/1999/xlink" x="0px"
	 y="0px" viewBox="0 0 120 120" style="enable-background:new 0 0 120 120;" xml:space="preserve">
<style type="text/css">
	.st0{fill:#369CD8;}
	.st1{fill:#389DD0;}
	.st2{fill:#231815;stroke:#221714;stroke-width:0.3715;stroke-miterlimit:10;}
	.st3{fill:#EB6619;}
	.st4{fill:#FFFFFF;}
	.st5{fill:#231815;}
	.st6{fill:#040000;}
	.st7{fill:#F9C200;stroke:#221613;stroke-width:1.9647;stroke-linecap:round;stroke-linejoin:round;stroke-miterlimit:10;}
	.st8{fill:#FBDC61;stroke:#221613;stroke-width:1.9647;stroke-linecap:round;stroke-linejoin:round;stroke-miterlimit:10;}
	.st9{fill:none;stroke:#231815;stroke-width:1.9852;stroke-linecap:round;stroke-linejoin:round;stroke-miterlimit:10;}
</style>
<g>
	<g>
		<g>
			<path class="st0" d="M76.3,35c-5.1-1.5-10.7-2.7-16.7-3.8c-1.8-0.3-3.6-0.6-5.5-0.8c-2.8-0.4-5.5-0.6-8.1-0.6
				C18.8,29.8,5.9,51,5.9,72.1c0,18.4,9.7,34,30.3,39.6c5.3,1.4,11.2,2.2,17.9,2.2c10.4,0,20.1-1.8,28.7-5.1
				c18.6-7.1,31.3-20.8,31.3-36.7C114.1,54.1,100.2,41.9,76.3,35z"/>
			<path class="st1" d="M46,29.8c2.6,0,5.3,0.2,8.1,0.6c1.9,0.3,3.7,0.5,5.5,0.8c6,1,11.6,2.3,16.7,3.8
				c23.9,6.9,37.8,19.1,37.8,37.1c0,15.8-12.7,29.6-31.3,36.7c-8.5,3.2-18.3,5.1-28.7,5.1c-6.7,0-12.7-0.8-17.9-2.2
				C15.5,106.1,5.9,90.5,5.9,72.1C5.9,51,18.8,29.8,46,29.8 M46,23.9L46,23.9L46,23.9c-14.4,0-26.4,5.3-34.8,15.4
				C4,47.9,0,59.6,0,72.1c0,10.6,3,20.3,8.5,28c6.1,8.4,14.9,14.2,26.2,17.2c5.9,1.6,12.4,2.4,19.5,2.4c10.7,0,21.4-1.9,30.7-5.5
				C106.6,106,120,89.9,120,72.1c0-10.5-4-19.5-11.8-27c-7-6.7-17.2-12-30.3-15.8c-5.3-1.5-11.1-2.9-17.4-3.9
				c-1.7-0.3-3.6-0.6-5.6-0.9C51.9,24.1,48.9,23.9,46,23.9L46,23.9z"/>
		</g>
		<g>
			<path class="st1" d="M76.3,35c-5.1-1.5-10.7-2.7-16.7-3.8c-1.8-0.3-3.6-0.6-5.5-0.8c-2.8-0.4-5.5-0.6-8.1-0.6
				C18.8,29.8,5.9,51,5.9,72.1c0,18.4,9.7,34,30.3,39.6c5.3,1.4,11.2,2.2,17.9,2.2c10.4,0,20.1-1.8,28.7-5.1
				c18.6-7.1,31.3-20.8,31.3-36.7C114.1,54.1,100.2,41.9,76.3,35z"/>
			<path class="st2" d="M46,29.8c2.6,0,5.3,0.2,8.1,0.6c1.9,0.3,3.7,0.5,5.5,0.8c6,1,11.6,2.3,16.7,3.8
				c23.9,6.9,37.8,19.1,37.8,37.1c0,15.8-12.7,29.6-31.3,36.7c-8.5,3.2-18.3,5.1-28.7,5.1c-6.7,0-12.7-0.8-17.9-2.2
				C15.5,106.1,5.9,90.5,5.9,72.1C5.9,51,18.8,29.8,46,29.8 M46,28.3L46,28.3c-13,0-23.9,4.8-31.4,13.8C8,50,4.4,60.6,4.4,72.1
				c0,9.7,2.7,18.5,7.7,25.4c5.5,7.5,13.5,12.8,23.7,15.5c5.5,1.5,11.7,2.2,18.3,2.2c10.2,0,20.3-1.8,29.2-5.2
				c19.9-7.5,32.3-22.1,32.3-38c0-9.2-3.5-17.2-10.4-23.8c-6.5-6.2-16.1-11.2-28.5-14.8c-5.1-1.5-10.8-2.8-16.9-3.8
				c-1.7-0.3-3.5-0.6-5.5-0.9C51.5,28.5,48.7,28.3,46,28.3L46,28.3z"/>
		</g>
		<circle class="st3" cx="53.7" cy="79.8" r="8.1"/>
		<circle class="st3" cx="27.9" cy="79.8" r="8.1"/>
		<g>
			<g>
				<ellipse class="st4" cx="33.1" cy="69" rx="5.2" ry="8.3"/>
				<path class="st5" d="M33.1,60.7c2.9,0,5.2,3.7,5.2,8.3c0,4.6-2.3,8.3-5.2,8.3c-2.9,0-5.2-3.7-5.2-8.3
					C27.9,64.5,30.3,60.7,33.1,60.7 M33.1,59.3c-3.8,0-6.7,4.3-6.7,9.8c0,5.5,2.9,9.8,6.7,9.8c3.8,0,6.7-4.3,6.7-9.8
					C39.8,63.6,36.9,59.3,33.1,59.3L33.1,59.3z"/>
			</g>
			<g>
				<ellipse class="st4" cx="46.7" cy="69" rx="5.2" ry="8.3"/>
				<path class="st5" d="M46.7,60.7c2.9,0,5.2,3.7,5.2,8.3c0,4.6-2.3,8.3-5.2,8.3c-2.9,0-5.2-3.7-5.2-8.3
					C41.4,64.5,43.8,60.7,46.7,60.7 M46.7,59.3c-3.8,0-6.7,4.3-6.7,9.8c0,5.5,2.9,9.8,6.7,9.8c3.8,0,6.7-4.3,6.7-9.8
					C53.4,63.6,50.4,59.3,46.7,59.3L46.7,59.3z"/>
			</g>
			<path class="st6" d="M45.1,69.8l3.6,1.5c-0.4,2.6-1.9,4.4-3.6,4.4c-2,0-3.7-2.6-3.7-5.9c0-3.2,1.7-5.9,3.7-5.9
				c1.6,0,3,1.6,3.5,3.9L45.1,69.8z"/>
			<path class="st6" d="M38.8,86.4c-0.3,0-0.6,0-0.9,0c-2.3-0.2-4.1-1.2-5.2-2.1c-0.3-0.2-0.4-0.7-0.1-1c0.2-0.3,0.7-0.4,1-0.1
				c0.9,0.7,2.5,1.6,4.5,1.8c4.4,0.4,7.5-2.8,8.1-3.5c0.3-0.3,0.7-0.3,1-0.1c0.3,0.3,0.3,0.7,0.1,1C46.6,83.1,43.5,86.4,38.8,86.4z"
				/>
			<path class="st6" d="M39.3,82.6c-0.7,0-1.4-0.3-1.9-0.7c-0.6-0.5-0.9-1.3-1-2c0-0.8,0.3-1.5,0.9-2.1c0.6-0.6,1.4-0.8,2.3-0.8
				c0.4,0,0.7,0.4,0.7,0.8c0,0.4-0.4,0.7-0.8,0.7c-0.4,0-0.8,0.1-1.1,0.4c-0.3,0.3-0.5,0.6-0.4,1c0,0.3,0.2,0.7,0.5,0.9
				c0.3,0.3,0.7,0.4,1.1,0.4c0.4,0,0.8,0.3,0.8,0.7c0,0.4-0.3,0.8-0.7,0.8C39.5,82.6,39.4,82.6,39.3,82.6z"/>
			<path class="st6" d="M31.6,69.8l3.6,1.5c-0.4,2.6-1.9,4.4-3.6,4.4c-2,0-3.7-2.6-3.7-5.9c0-3.2,1.7-5.9,3.7-5.9
				c1.6,0,3,1.6,3.5,3.9L31.6,69.8z"/>
		</g>
		<path d="M53.6,81.9c-7.1,0-12.9-5.8-12.9-12.9c0-7.1,5.8-12.9,12.9-12.9S66.4,62,66.4,69.1C66.4,76.2,60.7,81.9,53.6,81.9z
			 M53.6,57.7c-6.3,0-11.4,5.1-11.4,11.4c0,6.3,5.1,11.4,11.4,11.4S65,75.3,65,69.1C65,62.8,59.8,57.7,53.6,57.7z"/>
		<path d="M26.2,81.9c-7.1,0-12.9-5.8-12.9-12.9c0-7.1,5.8-12.9,12.9-12.9S39.1,62,39.1,69.1C39.1,76.2,33.3,81.9,26.2,81.9z
			 M26.2,57.7c-6.3,0-11.4,5.1-11.4,11.4c0,6.3,5.1,11.4,11.4,11.4s11.4-5.1,11.4-11.4C37.6,62.8,32.5,57.7,26.2,57.7z"/>
		<rect x="38.8" y="68.6" width="2.2" height="1"/>
	</g>
	<g>
		<path class="st7" d="M26.5,29.2L26.5,29.2c1.8-7.6,9.4-29.2,38.3-26.5c30.4,2.9,44.1,19.6,38.5,44.1l0,0c0,0,1.9,1,1.3,2.7
			c0,0-0.7,1.4-2.6,1.2c0,0-4.9-0.4-10.8-1.7c-16-2.7-46.1-8.6-63.7-16.4c-0.5,0-1-0.1-1.6-0.7C23.9,29.9,26.5,29.2,26.5,29.2z"/>
		<path class="st8" d="M87.6,8.8c0,0-32.4-8.1-43.8,29.5c0,0-5.5-1.2-12.9-4.2c0,0,6.9-29.1,33.9-31.5C64.8,2.6,78.6,0.2,87.6,8.8z"
			/>
		<path class="st7" d="M74,44.3c0,0-23,6.4-47.9-0.1c0,0-18.2-4.5-0.2-12.4L74,44.3z"/>
	</g>
	<g>
		<path class="st6" d="M51.7,68.2"/>
	</g>
	<g>
		<g>
			<path class="st4" d="M80.1,100.1c-1,0-1.9-0.8-1.9-1.8l-0.2-2.9L68.5,83c-0.6-0.6-0.9-1.4-0.9-2.2c0-0.9,0.3-1.7,0.9-2.3
				c0.6-0.6,1.4-0.9,2.3-0.9c0.9,0,1.6,0.3,2.3,0.9l2.3,2.2V64c0-1.8,1.6-3.3,3.4-3.3c0.1,0,0.4,0,0.5,0c1.6,0.2,2.6,1.5,2.6,3.3
				v11.7c0,0,0.1,0.1,0.1,0.1c0.1,0,0.1-0.1,0.1-0.1v-15c0-1.8,1.6-3.3,3.4-3.3c0.1,0,0.4,0,0.5,0c1.6,0.2,2.6,1.5,2.6,3.3v14.9
				c0,0.1,0.1,0.1,0.2,0.1c0.1,0,0.1-0.1,0.1-0.1V64c0-1.8,1.6-3.3,3.4-3.3c0.1,0,0.4,0,0.5,0c1.6,0.2,2.6,1.5,2.6,3.3v11.6
				c0.1,0.1,0.2,0.2,0.3,0.2c0,0,0-7.3,0-7.3c0-1.7,1.3-3.1,3-3.3c0.1,0,0.4,0,0.5,0c1.7,0,3,1.4,3,3.3v8.3c0,8.7-1,14.2-3.1,17.9
				c0,0.1,0,0.2,0,0.4l-0.4,3.3c-0.1,1-1,1.7-1.9,1.7L80.1,100.1L80.1,100.1z"/>
			<path class="st5" d="M85.6,58.4c0.1,0,0.3,0,0.4,0c1.2,0.1,1.7,1.2,1.7,2.3v14.9c0,0.6,0.5,1.1,1.1,1.1c0.6,0,1.1-0.5,1.1-1.1V64
				c0-1.3,1.1-2.3,2.4-2.3c0.1,0,0.3,0,0.4,0c1.2,0.1,1.8,1.2,1.8,2.3v11.6c0,0.6,1,1.3,1.6,1.3h0c0.6,0,0.6-0.6,0.6-1.2v-7.2
				c0-1.2,1-2.2,2.1-2.3c0.1,0,0.3,0,0.4,0c1.3,0,2,1,2,2.3v8.3c0,7.1-0.6,13.7-3.2,17.7c-0.1,0.1,0.1,0.3,0.1,0.4l-0.4,3.3
				c-0.1,0.5-0.5,0.8-0.9,0.8l-16.8,0c0,0,0,0,0,0c-0.5,0-0.9-0.4-1-0.9L78.9,95c0,0,0,0,0,0l-9.6-12.7c-0.9-0.9-0.9-2.3,0-3.2
				c0.4-0.4,1-0.7,1.6-0.7c0.6,0,1.1,0.2,1.6,0.7l2.6,2.6c0.2,0.2,0.3,0.3,0.6,0.3c0.5,0,0.8-0.4,0.8-1V64c0-1.3,1.2-2.3,2.4-2.3
				c0.1,0,0.3,0,0.4,0c1.2,0.1,1.7,1.2,1.7,2.3v11.7c0,0.6,0.5,1.1,1.1,1.1c0.6,0,1.1-0.5,1.1-1.1v-15
				C83.2,59.5,84.3,58.4,85.6,58.4 M85.6,56.5c-2.3,0-4.2,1.8-4.4,4c-0.5-0.4-1.1-0.6-1.8-0.7c-0.2,0-0.6,0-0.6,0
				c-2.4,0-4.4,2-4.4,4.3v14.3l-0.6-0.6c-0.8-0.8-1.8-1.2-2.9-1.2c-1.1,0-2.2,0.4-3,1.2c-0.8,0.8-1.2,1.9-1.2,3
				c0,1.1,0.4,2.1,1.1,2.9l9.2,12.1l0.2,2.6c0.1,1.5,1.4,2.7,2.9,2.7l16.8,0c1.5,0,2.7-1.1,2.9-2.6l0.4-3.3c0-0.1,0-0.2,0-0.2
				c2.1-3.8,3.1-9.4,3.1-18.1v-8.3c0-2.4-1.7-4.3-4-4.3c0,0-0.4,0-0.6,0c-0.8,0.1-1.6,0.4-2.2,0.9v-1.1c0-2.3-1.4-4.1-3.5-4.3
				c-0.2,0-0.6,0-0.6,0c-1,0-1.9,0.3-2.7,0.9c-0.1-2.2-1.5-3.9-3.5-4.2C85.9,56.5,85.6,56.5,85.6,56.5L85.6,56.5z"/>
		</g>
		<path class="st9" d="M75.6,80.9c0,0,11.5-1.6,12,8.6"/>
	</g>
</g>
</svg>
