<?xml version="1.0" encoding="utf-8"?>
<!-- Generator: Adobe Illustrator 27.5.0, SVG Export Plug-In . SVG Version: 6.00 Build 0)  -->
<svg version="1.1" id="레이어_1" xmlns="http://www.w3.org/2000/svg" xmlns:xlink="http://www.w3.org/1999/xlink" x="0px"
	 y="0px" viewBox="0 0 119.9 119.9" style="enable-background:new 0 0 119.9 119.9;" xml:space="preserve">
<style type="text/css">
	.st0{fill:#00A342;}
	.st1{fill:#00A54E;}
	.st2{fill:#231815;stroke:#221714;stroke-width:0.3715;stroke-miterlimit:10;}
	.st3{fill:#70DD43;}
	.st4{fill:#FFFFFF;}
	.st5{fill:#231815;}
	.st6{fill:#040000;}
	.st7{fill:#F9C200;stroke:#221613;stroke-width:1.9647;stroke-linecap:round;stroke-linejoin:round;stroke-miterlimit:10;}
	.st8{fill:#FBDC61;stroke:#221613;stroke-width:1.9647;stroke-linecap:round;stroke-linejoin:round;stroke-miterlimit:10;}
</style>
<g>
	<g>
		<g>
			<path class="st0" d="M45.9,29.4c2.6,0,5.3,0.2,8.1,0.6c1.9,0.3,3.7,0.5,5.5,0.8c6,1,11.6,2.3,16.7,3.8
				c23.9,6.9,37.8,19.1,37.8,37.1c0,15.8-12.7,29.6-31.3,36.7c-8.5,3.2-18.3,5.1-28.7,5.1c-6.7,0-12.7-0.8-17.9-2.2
				C15.4,105.7,5.8,90.1,5.8,71.7C5.8,50.6,18.7,29.4,45.9,29.4 M45.9,23.5L45.9,23.5L45.9,23.5c-14.4,0-26.4,5.3-34.8,15.4
				C3.9,47.5-0.1,59.2-0.1,71.7c0,10.6,3,20.3,8.5,28c6.1,8.4,14.9,14.2,26.2,17.2c5.9,1.6,12.4,2.4,19.5,2.4
				c10.7,0,21.4-1.9,30.7-5.5c21.7-8.2,35.1-24.3,35.1-42.1c0-10.5-4-19.5-11.8-27c-7-6.7-17.2-12-30.3-15.8
				C72.5,27.4,66.7,26,60.4,25c-1.7-0.3-3.6-0.6-5.6-0.9C51.8,23.7,48.8,23.5,45.9,23.5L45.9,23.5z"/>
		</g>
		<g>
			<path class="st1" d="M76.2,34.6c-5.1-1.5-10.7-2.7-16.7-3.8c-1.8-0.3-3.6-0.6-5.5-0.8c-2.8-0.4-5.5-0.6-8.1-0.6
				c-27.2,0-40.1,21.2-40.1,42.3c0,18.4,9.7,34,30.3,39.6c5.3,1.4,11.2,2.2,17.9,2.2c10.4,0,20.1-1.8,28.7-5.1
				c18.6-7.1,31.3-20.8,31.3-36.7C114,53.7,100.1,41.5,76.2,34.6z"/>
			<path class="st2" d="M45.9,29.4c2.6,0,5.3,0.2,8.1,0.6c1.9,0.3,3.7,0.5,5.5,0.8c6,1,11.6,2.3,16.7,3.8
				c23.9,6.9,37.8,19.1,37.8,37.1c0,15.8-12.7,29.6-31.3,36.7c-8.5,3.2-18.3,5.1-28.7,5.1c-6.7,0-12.7-0.8-17.9-2.2
				C15.4,105.7,5.8,90.1,5.8,71.7C5.8,50.6,18.7,29.4,45.9,29.4 M45.9,27.9L45.9,27.9c-13,0-23.9,4.8-31.4,13.8
				c-6.6,7.9-10.2,18.5-10.2,30c0,9.7,2.7,18.5,7.7,25.4c5.5,7.5,13.5,12.8,23.7,15.5c5.5,1.5,11.7,2.2,18.3,2.2
				c10.2,0,20.3-1.8,29.2-5.2c19.9-7.5,32.3-22.1,32.3-38c0-9.2-3.5-17.2-10.4-23.8C98.6,41.6,89,36.6,76.6,33
				c-5.1-1.5-10.8-2.8-16.9-3.8c-1.7-0.3-3.5-0.6-5.5-0.9C51.4,28.1,48.6,27.9,45.9,27.9L45.9,27.9z"/>
		</g>
		<circle class="st3" cx="53.6" cy="79.4" r="8.1"/>
		<circle class="st3" cx="27.8" cy="79.4" r="8.1"/>
		<g>
			<g>
				<ellipse class="st4" cx="33" cy="68.6" rx="5.2" ry="8.3"/>
				<path class="st5" d="M33,60.3c2.9,0,5.2,3.7,5.2,8.3s-2.3,8.3-5.2,8.3s-5.2-3.7-5.2-8.3C27.8,64.1,30.2,60.3,33,60.3 M33,58.9
					c-3.8,0-6.7,4.3-6.7,9.8s2.9,9.8,6.7,9.8c3.8,0,6.7-4.3,6.7-9.8S36.8,58.9,33,58.9L33,58.9z"/>
			</g>
			<g>
				<ellipse class="st4" cx="46.6" cy="68.6" rx="5.2" ry="8.3"/>
				<path class="st5" d="M46.6,60.3c2.9,0,5.2,3.7,5.2,8.3s-2.3,8.3-5.2,8.3s-5.2-3.7-5.2-8.3C41.3,64.1,43.7,60.3,46.6,60.3
					 M46.6,58.9c-3.8,0-6.7,4.3-6.7,9.8s2.9,9.8,6.7,9.8s6.7-4.3,6.7-9.8S50.3,58.9,46.6,58.9L46.6,58.9z"/>
			</g>
			<path class="st6" d="M45,69.4l3.6,1.5c-0.4,2.6-1.9,4.4-3.6,4.4c-2,0-3.7-2.6-3.7-5.9c0-3.2,1.7-5.9,3.7-5.9c1.6,0,3,1.6,3.5,3.9
				L45,69.4z"/>
			<path class="st6" d="M38.7,86c-0.3,0-0.6,0-0.9,0c-2.3-0.2-4.1-1.2-5.2-2.1c-0.3-0.2-0.4-0.7-0.1-1c0.2-0.3,0.7-0.4,1-0.1
				c0.9,0.7,2.5,1.6,4.5,1.8c4.4,0.4,7.5-2.8,8.1-3.5c0.3-0.3,0.7-0.3,1-0.1c0.3,0.3,0.3,0.7,0.1,1C46.5,82.7,43.4,86,38.7,86z"/>
			<path class="st6" d="M39.2,82.2c-0.7,0-1.4-0.3-1.9-0.7c-0.6-0.5-0.9-1.3-1-2c0-0.8,0.3-1.5,0.9-2.1c0.6-0.6,1.4-0.8,2.3-0.8
				c0.4,0,0.7,0.4,0.7,0.8s-0.4,0.7-0.8,0.7c-0.4,0-0.8,0.1-1.1,0.4s-0.5,0.6-0.4,1c0,0.3,0.2,0.7,0.5,0.9c0.3,0.3,0.7,0.4,1.1,0.4
				c0.4,0,0.8,0.3,0.8,0.7c0,0.4-0.3,0.8-0.7,0.8C39.4,82.2,39.3,82.2,39.2,82.2z"/>
			<path class="st6" d="M31.5,69.4l3.6,1.5c-0.4,2.6-1.9,4.4-3.6,4.4c-2,0-3.7-2.6-3.7-5.9c0-3.2,1.7-5.9,3.7-5.9
				c1.6,0,3,1.6,3.5,3.9L31.5,69.4z"/>
		</g>
		<path d="M53.5,81.5c-7.1,0-12.9-5.8-12.9-12.9s5.8-12.9,12.9-12.9s12.8,5.9,12.8,13S60.6,81.5,53.5,81.5z M53.5,57.3
			c-6.3,0-11.4,5.1-11.4,11.4s5.1,11.4,11.4,11.4s11.4-5.2,11.4-11.4C64.9,62.4,59.7,57.3,53.5,57.3z"/>
		<path d="M26.1,81.5c-7.1,0-12.9-5.8-12.9-12.9S19,55.7,26.1,55.7S39,61.6,39,68.7S33.2,81.5,26.1,81.5z M26.1,57.3
			c-6.3,0-11.4,5.1-11.4,11.4s5.1,11.4,11.4,11.4S37.5,75,37.5,68.7S32.4,57.3,26.1,57.3z"/>
		<rect x="38.7" y="68.2" width="2.2" height="1"/>
	</g>
	<g>
		<path class="st7" d="M26.4,28.8L26.4,28.8c1.8-7.6,9.4-29.2,38.3-26.5c30.4,2.9,44.1,19.6,38.5,44.1l0,0c0,0,1.9,1,1.3,2.7
			c0,0-0.7,1.4-2.6,1.2c0,0-4.9-0.4-10.8-1.7C75.1,45.9,45,40,27.4,32.2c-0.5,0-1-0.1-1.6-0.7C23.8,29.5,26.4,28.8,26.4,28.8z"/>
		<path class="st8" d="M87.5,8.4c0,0-32.4-8.1-43.8,29.5c0,0-5.5-1.2-12.9-4.2c0,0,6.9-29.1,33.9-31.5C64.7,2.2,78.5-0.2,87.5,8.4z"
			/>
		<path class="st7" d="M73.9,43.9c0,0-23,6.4-47.9-0.1c0,0-18.2-4.5-0.2-12.4L73.9,43.9z"/>
	</g>
	<g>
		<path class="st6" d="M51.6,67.8"/>
	</g>
</g>
</svg>
