<svg width="100" height="70" viewBox="0 0 100 70" fill="none" xmlns="http://www.w3.org/2000/svg">
<g clip-path="url(#clip0_1079_1761)">
<path d="M48.7244 20.0441C45.5918 19.1339 42.1805 18.3684 38.5117 17.7475C37.4217 17.5606 36.3069 17.3912 35.1675 17.229C33.4318 16.9856 31.7774 16.8691 30.197 16.8691C13.5357 16.8691 5.62305 29.8828 5.62305 42.7695C5.62305 54.0157 11.5284 63.5617 24.1893 66.9694C27.4101 67.8372 31.0612 68.3029 35.1675 68.3029C41.5208 68.3029 47.4932 67.1811 52.7036 65.2021C64.1122 60.8771 71.8555 52.4494 71.8555 42.7695C71.8555 31.7348 63.3185 24.2949 48.7244 20.0476V20.0441Z" fill="#369CD8"/>
<path d="M48.7246 20.045C45.592 19.1349 42.1808 18.3694 38.512 17.7485C37.4219 17.5615 36.3072 17.3922 35.1677 17.2299C33.4321 16.9865 31.7776 16.8701 30.1972 16.8701C13.5359 16.8701 5.62329 29.8838 5.62329 42.7704C5.62329 54.0167 11.5286 63.5627 24.1895 66.9704C27.4103 67.8382 31.0615 68.3039 35.1677 68.3039C41.5211 68.3039 47.4935 67.1821 52.7039 65.203C64.1124 60.8781 71.8557 52.4504 71.8557 42.7704C71.8557 31.7358 63.3187 24.2959 48.7246 20.0486V20.045Z" fill="#369CD8"/>
<path d="M30.1971 16.8664C31.774 16.8664 33.432 16.9828 35.1676 17.2262C36.3035 17.3885 37.4218 17.5578 38.5119 17.7448C42.1807 18.3656 45.592 19.1311 48.7245 20.0413C63.3186 24.2851 71.8556 31.7285 71.8556 42.7632C71.8556 52.4431 64.1123 60.8708 52.7038 65.1957C47.4934 67.1748 41.521 68.2966 35.1676 68.2966C31.0614 68.2966 27.4102 67.8309 24.1894 66.9631C11.5286 63.5554 5.6232 54.0094 5.6232 42.7632C5.6232 29.88 13.5393 16.8664 30.1971 16.8628M30.1971 15.166C21.9846 15.166 15.1268 18.1857 10.3574 23.8935C6.2088 28.864 3.92285 35.5631 3.92285 42.7632C3.92285 48.8696 5.60203 54.4151 8.78048 58.8C12.2341 63.5624 17.2681 66.8608 23.745 68.6035C27.1739 69.5278 31.0155 69.9969 35.1641 69.9969C41.4963 69.9969 47.7686 68.8857 53.3035 66.7867C65.7915 62.0526 73.5525 52.8453 73.5525 42.7667C73.5525 36.9072 71.3265 31.8132 66.9345 27.6294C62.8671 23.7524 56.8982 20.6516 49.1973 18.415C46.0329 17.4943 42.5334 16.7076 38.7906 16.0726C37.7499 15.8962 36.6422 15.7234 35.404 15.547C33.6119 15.2965 31.8622 15.1695 30.1936 15.1695L30.1971 15.166Z" fill="#231815"/>
<path d="M34.8643 52.46C37.6133 52.46 39.8419 50.2315 39.8419 47.4825C39.8419 44.7334 37.6133 42.5049 34.8643 42.5049C32.1153 42.5049 29.8867 44.7334 29.8867 47.4825C29.8867 50.2315 32.1153 52.46 34.8643 52.46Z" fill="#EB6619"/>
<path d="M19.1094 52.46C21.8584 52.46 24.087 50.2315 24.087 47.4825C24.087 44.7334 21.8584 42.5049 19.1094 42.5049C16.3604 42.5049 14.1318 44.7334 14.1318 47.4825C14.1318 50.2315 16.3604 52.46 19.1094 52.46Z" fill="#EB6619"/>
<path d="M22.3056 45.9657C24.0727 45.9657 25.5052 43.6961 25.5052 40.8964C25.5052 38.0967 24.0727 35.8271 22.3056 35.8271C20.5385 35.8271 19.106 38.0967 19.106 40.8964C19.106 43.6961 20.5385 45.9657 22.3056 45.9657Z" fill="white"/>
<path d="M22.3056 35.8233C24.073 35.8233 25.5053 38.0916 25.5053 40.8926C25.5053 43.6936 24.073 45.9619 22.3056 45.9619C20.5383 45.9619 19.106 43.6936 19.106 40.8926C19.106 38.0916 20.5383 35.8233 22.3056 35.8233ZM22.3056 34.5498C19.7974 34.5498 17.8325 37.3367 17.8325 40.8926C17.8325 44.4485 19.7974 47.2354 22.3056 47.2354C24.8138 47.2354 26.7787 44.4485 26.7787 40.8926C26.7787 37.3367 24.8138 34.5498 22.3056 34.5498Z" fill="#231815"/>
<path d="M30.5851 45.9657C32.3522 45.9657 33.7847 43.6961 33.7847 40.8964C33.7847 38.0967 32.3522 35.8271 30.5851 35.8271C28.818 35.8271 27.3855 38.0967 27.3855 40.8964C27.3855 43.6961 28.818 45.9657 30.5851 45.9657Z" fill="white"/>
<path d="M30.5815 35.8233C32.3489 35.8233 33.7811 38.0916 33.7811 40.8926C33.7811 43.6936 32.3489 45.9619 30.5815 45.9619C28.8141 45.9619 27.3819 43.6936 27.3819 40.8926C27.3819 38.0916 28.8141 35.8233 30.5815 35.8233ZM30.5815 34.5498C28.0733 34.5498 26.1084 37.3367 26.1084 40.8926C26.1084 44.4485 28.0733 47.2354 30.5815 47.2354C33.0897 47.2354 35.0546 44.4485 35.0546 40.8926C35.0546 37.3367 33.0897 34.5498 30.5815 34.5498Z" fill="#231815"/>
<path d="M29.6468 41.3797L31.8374 42.2686C31.5835 43.849 30.6768 44.9673 29.6468 44.9673C28.405 44.9673 27.3855 43.3481 27.3855 41.3797C27.3855 39.4112 28.4085 37.792 29.6468 37.792C30.6028 37.792 31.46 38.7515 31.7775 40.1767L29.6468 41.3761V41.3797Z" fill="#040000"/>
<path d="M25.7911 51.5148C25.6077 51.5148 25.4207 51.5077 25.2302 51.4901C23.8015 51.356 22.7044 50.7316 22.0341 50.2307C21.8366 50.0825 21.7942 49.8003 21.9424 49.6028C22.0905 49.4052 22.3728 49.3629 22.5703 49.511C23.1453 49.9414 24.0872 50.4812 25.3113 50.594C28.0171 50.848 29.8903 48.8619 30.2395 48.4598C30.4018 48.2728 30.6875 48.2517 30.8745 48.4139C31.0615 48.5762 31.0826 48.8619 30.9204 49.0489C30.5464 49.4793 28.6238 51.5148 25.7911 51.5148Z" fill="#040000"/>
<path d="M26.0627 49.2035C25.6288 49.2035 25.2019 49.0448 24.8738 48.752C24.5105 48.431 24.2988 47.983 24.2882 47.5208C24.2776 47.0446 24.4823 46.5789 24.8491 46.2403C25.2266 45.891 25.7346 45.7182 26.2461 45.7711C26.493 45.7958 26.673 46.0145 26.6483 46.2615C26.6236 46.5084 26.4013 46.6883 26.1579 46.6636C25.9039 46.6389 25.6499 46.7236 25.4594 46.9C25.283 47.0622 25.1843 47.2845 25.1878 47.5032C25.1913 47.7149 25.2972 47.9265 25.47 48.0817C25.6605 48.2511 25.9004 48.3287 26.1544 48.304C26.4013 48.2793 26.6236 48.4592 26.6483 48.7061C26.673 48.9531 26.493 49.1753 26.2461 49.2C26.1861 49.2071 26.1262 49.2106 26.0662 49.2106L26.0627 49.2035Z" fill="#040000"/>
<path d="M21.3709 41.3797L23.5616 42.2686C23.3076 43.849 22.401 44.9673 21.3709 44.9673C20.1291 44.9673 19.1096 43.3481 19.1096 41.3797C19.1096 39.4112 20.1327 37.792 21.3709 37.792C22.3269 37.792 23.1841 38.7515 23.5016 40.1767L21.3709 41.3761V41.3797Z" fill="#040000"/>
<path d="M27.1067 40.625H25.7803V41.2106H27.1067V40.625Z" fill="black"/>
<path d="M17.4058 17.9736C18.2666 13.3629 22.2387 0.183476 39.6197 0.994845C57.946 1.85207 66.6171 11.5391 63.9713 26.3695C63.9713 26.3695 65.1249 26.9128 64.8392 27.9535C64.8392 27.9535 64.4441 28.7966 63.2976 28.726C63.2976 28.726 60.3484 28.6237 56.8031 27.9993C47.1196 26.8105 28.9026 24.1541 18.129 19.9738C17.8432 19.9985 17.5222 19.9174 17.1694 19.6034C15.8818 18.464 17.3987 17.9701 17.3987 17.9701L17.4058 17.9736Z" fill="#13A857"/>
<path d="M63.4315 29.3685C63.3786 29.3685 63.3222 29.3685 63.2657 29.365C63.1599 29.365 60.2566 29.2556 56.7148 28.6312C46.8937 27.4247 28.8601 24.7896 18.0301 20.6163C17.5821 20.6163 17.1552 20.4364 16.7566 20.0801C16.1781 19.5686 15.9382 19.0394 16.0511 18.5103C16.1534 18.0093 16.5485 17.6989 16.8483 17.5296C17.7867 12.8765 22.0552 -0.458139 39.6513 0.360286C49.4689 0.818886 56.8771 3.84212 61.0821 9.10896C64.5498 13.4516 65.788 19.304 64.6733 26.0595C65.1883 26.4582 65.721 27.1707 65.4599 28.1268C65.4494 28.162 65.4388 28.1973 65.4211 28.2291C65.2165 28.6665 64.571 29.372 63.4315 29.372V29.3685ZM18.1324 19.3393C18.21 19.3393 18.2876 19.3534 18.3617 19.3816C29.0577 23.5302 47.0877 26.1654 56.8806 27.3683C56.8912 27.3683 56.9018 27.3683 56.9123 27.3718C60.3695 27.9821 63.2904 28.0879 63.3186 28.0915C63.8972 28.1268 64.1547 27.8375 64.2394 27.7175C64.3029 27.2907 63.8337 27.0155 63.7137 26.952C63.6608 26.9273 63.6079 26.8956 63.562 26.8603C63.3857 26.7157 63.301 26.4828 63.3398 26.2571C64.5286 19.6003 63.4315 14.0971 60.0802 9.89917C56.1116 4.92865 49.0244 2.07122 39.5878 1.63026C23.05 0.854163 19.0002 12.8836 18.0301 18.0869C17.9948 18.2845 17.8678 18.4503 17.6879 18.542C17.6562 18.5561 17.6244 18.5702 17.5892 18.5808C17.4727 18.6231 17.3387 18.7078 17.2964 18.7643C17.3105 18.8066 17.3704 18.9265 17.5962 19.1241C17.8608 19.3569 18.016 19.3428 18.076 19.3357C18.0936 19.3357 18.1148 19.3357 18.1324 19.3357V19.3393Z" fill="#221613"/>
<path d="M53.4905 4.06384C53.4905 4.06384 33.8095 0.109294 28.0347 22.9934C28.0347 22.9934 24.7328 22.4396 20.1997 20.8274C20.1997 20.8274 23.5193 3.16075 39.6232 0.994746C39.6232 0.994746 47.8392 -0.878459 53.4905 4.06384Z" fill="#13A857"/>
<path d="M28.0346 23.6319C27.9993 23.6319 27.964 23.6319 27.9288 23.6249C27.7912 23.6002 24.5175 23.0428 19.9844 21.4306C19.6881 21.3248 19.5152 21.0214 19.5717 20.7145C19.6069 20.5311 20.4571 16.1285 23.3251 11.3979C27.1456 5.09742 32.7405 1.28752 39.5067 0.366788C40.1452 0.22568 48.1883 -1.4147 53.9067 3.58404C54.1254 3.77454 54.1854 4.08498 54.0584 4.34602C53.9314 4.60707 53.6456 4.74465 53.3634 4.68821C53.314 4.67763 48.4987 3.75337 43.0767 5.56661C35.8379 7.99013 30.9837 13.9061 28.6519 23.1486C28.5779 23.4344 28.3203 23.6284 28.0346 23.6284V23.6319ZM20.9439 20.4147C24.0377 21.4836 26.5036 22.0409 27.5689 22.2561C30.6945 10.5865 37.5135 6.07107 42.7274 4.3425C46.0646 3.2348 49.1337 3.09722 51.1551 3.18189C46.0329 0.250374 39.8312 1.60148 39.7606 1.61559C39.743 1.61912 39.7218 1.62265 39.7042 1.62617C33.2415 2.49399 28.1016 5.98993 24.4363 12.0188C22.2421 15.6276 21.2579 19.1165 20.9439 20.4147Z" fill="#221613"/>
<path d="M46.3292 25.7058C46.3292 25.7058 32.7194 30.1684 17.6314 27.0075C17.6314 27.0075 6.59679 24.7886 17.1728 19.6064L46.3292 25.7094V25.7058Z" fill="#13A857"/>
<path d="M28.8883 28.7647C25.3289 28.7647 21.459 28.4578 17.5009 27.6287C16.9718 27.5229 12.2941 26.5105 11.9695 24.0093C11.7614 22.3866 13.37 20.7603 16.8942 19.0318C17.0212 18.9683 17.1658 18.9506 17.3034 18.9788L46.4598 25.0818C46.742 25.1417 46.9501 25.3816 46.9642 25.6709C46.9783 25.9601 46.802 26.2212 46.5268 26.3129C46.4245 26.3447 38.8858 28.7682 28.8848 28.7682L28.8883 28.7647ZM17.2611 20.27C13.4617 22.1679 13.176 23.399 13.236 23.8435C13.3982 25.1029 16.3544 26.0977 17.7585 26.3799C28.7155 28.6765 38.9846 26.8773 43.5918 25.7802L17.2611 20.27Z" fill="#221613"/>
<path d="M62.1063 40.1177C63.32 38.904 63.3205 36.9367 62.1075 35.7237C60.8945 34.5107 58.9272 34.5112 57.7135 35.725L41.3499 52.0886C40.1362 53.3023 40.1356 55.2695 41.3486 56.4826C42.5617 57.6956 44.5289 57.695 45.7426 56.4813L62.1063 40.1177Z" fill="#444344"/>
<path d="M59.9107 34.8111C60.7044 34.8111 61.5017 35.1145 62.1084 35.7213C63.3219 36.9348 63.3219 38.8997 62.1084 40.1132L45.7435 56.4782C45.1367 57.085 44.343 57.3883 43.5457 57.3883C42.7484 57.3883 41.9547 57.085 41.3479 56.4782C40.1344 55.2647 40.1344 53.2997 41.3479 52.0862L57.7129 35.7213C58.3197 35.1145 59.1134 34.8111 59.9107 34.8111ZM59.9107 33.9609C58.8524 33.9609 57.8611 34.3737 57.1132 35.118L40.7482 51.483C39.2066 53.0246 39.2066 55.5363 40.7482 57.0779C41.4961 57.8258 42.4874 58.235 43.5457 58.235C44.604 58.235 45.5953 57.8223 46.3432 57.0779L62.7081 40.7129C63.456 39.9651 63.8652 38.9738 63.8652 37.9155C63.8652 36.8572 63.4525 35.8659 62.7081 35.118C61.9603 34.3702 60.969 33.9609 59.9107 33.9609Z" fill="#040000"/>
<path d="M74.399 43.9836C85.4381 43.9836 94.3869 35.0347 94.3869 23.9957C94.3869 12.9567 85.4381 4.00781 74.399 4.00781C63.36 4.00781 54.4111 12.9567 54.4111 23.9957C54.4111 35.0347 63.36 43.9836 74.399 43.9836Z" fill="white"/>
<path d="M74.399 4.00737C79.5141 4.00737 84.6293 5.95818 88.5309 9.85981C96.3377 17.6666 96.3377 30.3204 88.5309 38.1272C84.6293 42.0288 79.5141 43.9796 74.399 43.9796C69.2838 43.9796 64.1686 42.0288 60.267 38.1272C52.4602 30.3204 52.4602 17.6666 60.267 9.85981C64.1686 5.95818 69.2838 4.00737 74.399 4.00737ZM74.399 2.31055C68.6065 2.31055 63.1597 4.56474 59.0641 8.66039C50.6082 17.1163 50.6082 30.8743 59.0641 39.3266C63.1597 43.4223 68.6065 45.6765 74.399 45.6765C80.1914 45.6765 85.6382 43.4223 89.7338 39.3266C98.1897 30.8707 98.1897 17.1127 89.7338 8.66039C85.6382 4.56474 80.1914 2.31055 74.399 2.31055Z" fill="#040000"/>
<path d="M74.3992 36.1236C81.0974 36.1236 86.5274 30.6936 86.5274 23.9954C86.5274 17.2972 81.0974 11.8672 74.3992 11.8672C67.701 11.8672 62.271 17.2972 62.271 23.9954C62.271 30.6936 67.701 36.1236 74.3992 36.1236Z" fill="#2EAE5D"/>
<path d="M74.3991 11.8673C77.5035 11.8673 80.6078 13.0526 82.9749 15.4197C87.7126 20.1574 87.7126 27.8337 82.9749 32.5714C80.6078 34.9384 77.5035 36.1238 74.3991 36.1238C71.2947 36.1238 68.1904 34.9384 65.8233 32.5714C61.0856 27.8337 61.0856 20.1574 65.8233 15.4197C68.1904 13.0526 71.2947 11.8673 74.3991 11.8673ZM74.3991 10.3398C70.7515 10.3398 67.3226 11.7615 64.7438 14.3402C62.1651 16.919 60.7434 20.3479 60.7434 23.9955C60.7434 27.6432 62.1651 31.0721 64.7438 33.6508C67.3226 36.2296 70.7515 37.6512 74.3991 37.6512C78.0467 37.6512 81.4757 36.2296 84.0544 33.6508C86.6331 31.0721 88.0548 27.6432 88.0548 23.9955C88.0548 20.3479 86.6331 16.919 84.0544 14.3402C81.4757 11.7615 78.0467 10.3398 74.3991 10.3398Z" fill="#076435"/>
<path d="M41.7855 49.493L42.2053 50.3149C42.2336 50.3537 42.2618 50.3961 42.2935 50.4349L44.5477 53.1724L45.9764 54.908L46.5197 55.5218C47.2923 56.3367 48.1954 56.9999 49.2078 57.5008L51.9171 58.8378C52.5027 59.1271 53.0107 59.5293 53.4269 60.0337L54.457 61.2825C54.6016 61.4554 54.8592 61.4836 55.032 61.339L63.9253 54.019C64.1017 53.8744 64.1264 53.6168 63.9818 53.4405L63.0787 52.3469C62.5425 51.6978 62.2567 50.8758 62.2709 50.0327L62.3379 45.8912C62.3555 44.8823 62.0098 43.8981 61.3678 43.122L61.1667 42.8786L60.4576 42.1624L58.2175 44.339L54.9156 40.328L54.3935 39.6966L53.2611 38.3208C52.4568 37.3436 51.0105 37.206 50.0333 38.0068C49.3136 38.5995 49.0208 39.5414 49.2008 40.3845C49.2254 40.5044 49.2925 40.7337 49.2854 40.7302C48.6681 40.6914 48.0472 40.8889 47.5815 41.2734C46.8689 41.859 46.5761 42.7868 46.7455 43.6229C46.6714 43.6123 46.5938 43.6053 46.5162 43.6017C45.9482 43.5806 45.3662 43.7887 44.8829 44.1909C44.4101 44.5789 44.1173 45.1292 44.0574 45.7395C44.0327 45.9829 44.0468 46.2263 44.0997 46.4592C44.1103 46.5156 44.1279 46.5685 44.1456 46.6214C43.5564 46.5509 42.9814 46.7308 42.4734 47.1471C41.976 47.5563 41.6938 48.1242 41.6727 48.7486C41.6656 48.9356 41.6832 49.1226 41.7256 49.3095C41.7467 49.4013 41.7714 49.4894 41.8032 49.5776" fill="white"/>
<path d="M64.4793 53.0458L63.5762 51.9487C63.1388 51.416 62.9024 50.7422 62.913 50.0508L62.98 45.9093C62.9977 44.7522 62.6026 43.6198 61.8653 42.7238L61.6642 42.4804C61.6642 42.4804 61.6395 42.4522 61.6254 42.4381L60.9163 41.7219C60.6694 41.475 60.2707 41.4715 60.0203 41.7149L58.2776 43.4082L53.7622 37.9226C52.7356 36.6738 50.8836 36.4974 49.6383 37.524C48.8587 38.166 48.4459 39.1714 48.5341 40.1592C48.0402 40.2579 47.5746 40.4731 47.1901 40.7906C46.5269 41.3374 46.1282 42.1523 46.0824 42.9954C45.5179 43.0695 44.9676 43.3165 44.4949 43.7045C43.8917 44.2019 43.5177 44.9039 43.4437 45.6835C43.4331 45.7964 43.4295 45.9058 43.4295 46.0187C42.9533 46.1069 42.5018 46.322 42.089 46.6607C41.4505 47.1863 41.0836 47.9236 41.0589 48.735C41.0519 48.9713 41.073 49.2148 41.126 49.4511C41.1401 49.5111 41.1542 49.5746 41.1718 49.6345C41.1789 49.6663 41.1895 49.6945 41.2 49.7263C41.2071 49.7474 41.2142 49.7686 41.2212 49.7898C41.2459 49.8638 41.2847 49.9273 41.3306 49.9873L41.6516 50.6117C41.6657 50.6435 41.6869 50.6717 41.708 50.6999L41.7292 50.7317C41.7574 50.7705 41.7856 50.8093 41.8174 50.8481L45.5144 55.3388L46.0718 55.9703C46.9008 56.8416 47.8674 57.5542 48.9398 58.0834L51.6491 59.4204C52.1535 59.6708 52.591 60.0165 52.9508 60.4505L53.9809 61.6993C54.1573 61.9144 54.4077 62.0485 54.6864 62.0767C54.7217 62.0767 54.757 62.0802 54.7887 62.0802C55.0321 62.0802 55.2614 61.9956 55.4519 61.8404L64.3452 54.5204C64.5604 54.344 64.6945 54.09 64.7227 53.8149C64.7509 53.5362 64.6663 53.2645 64.4899 53.0494L64.4793 53.0458ZM54.8099 60.7115L53.9244 59.6391C53.4517 59.0641 52.8732 58.6055 52.2029 58.2739L49.4936 56.9369C48.5518 56.4747 47.7086 55.8503 46.9996 55.106L46.4704 54.5063L42.7875 50.0332C42.7875 50.0332 42.7663 50.005 42.7593 49.9944L42.7522 49.9838L42.3818 49.2606C42.3748 49.2324 42.3677 49.2042 42.3607 49.1759C42.3324 49.0419 42.3183 48.9043 42.3218 48.7703C42.336 48.3328 42.537 47.9307 42.8898 47.6379C43.172 47.405 43.4719 47.2781 43.7823 47.2498L45.8883 49.5534C46.0153 49.691 46.1847 49.7615 46.3575 49.7615C46.5127 49.7615 46.6644 49.7051 46.7879 49.5957C47.049 49.3594 47.0666 48.9537 46.8267 48.6962L44.7595 46.4385L44.7489 46.4032C44.7418 46.3785 44.7348 46.3538 44.7277 46.3256C44.6925 46.1562 44.6819 45.9799 44.6995 45.8035C44.7418 45.3625 44.9535 44.9639 45.2957 44.6817C45.6414 44.3995 46.0436 44.2478 46.4281 44.2442L49.3913 47.4403C49.5183 47.5744 49.6877 47.6449 49.857 47.6449C50.0122 47.6449 50.1674 47.5885 50.2909 47.4756C50.5484 47.2357 50.5625 46.8336 50.3262 46.576L47.3629 43.3764C47.2853 42.7767 47.5217 42.1558 47.9944 41.7678C48.2801 41.535 48.6435 41.4009 49.0209 41.3762L52.7885 45.4401C52.9155 45.5742 53.0848 45.6447 53.2542 45.6447C53.4094 45.6447 53.5646 45.5883 53.6881 45.4754C53.9456 45.2355 53.9597 44.8334 53.7233 44.5758L49.8711 40.4237C49.8711 40.4237 49.8711 40.4237 49.8711 40.4202C49.857 40.3638 49.8394 40.3003 49.8288 40.2544C49.6877 39.6124 49.9311 38.928 50.4426 38.5047C51.1481 37.9261 52.1923 38.0249 52.7744 38.7305L57.7308 44.7522C57.8437 44.8898 58.0095 44.9745 58.1859 44.985C58.3658 44.9956 58.5387 44.9286 58.6656 44.8051L60.4542 43.0695L60.6976 43.3165L60.8775 43.5352C61.4243 44.1984 61.7136 45.0344 61.703 45.8917L61.636 50.0332C61.6183 51.028 61.9605 51.9946 62.5884 52.7601L63.3469 53.6808L54.8028 60.715L54.8099 60.7115Z" fill="#040000"/>
</g>
<defs>
<clipPath id="clip0_1079_1761">
<rect width="99.996" height="70" fill="white"/>
</clipPath>
</defs>
</svg>
