<svg width="100" height="70" viewBox="0 0 100 70" fill="none" xmlns="http://www.w3.org/2000/svg">
<g clip-path="url(#clip0_1079_1907)">
<path d="M47.5991 20.045C44.4666 19.1349 41.0553 18.3694 37.3865 17.7485C36.2964 17.5615 35.1817 17.3922 34.0422 17.2299C32.3066 16.9865 30.6521 16.8701 29.0717 16.8701C12.4104 16.8701 4.4978 29.8838 4.4978 42.7704C4.4978 54.0167 10.4032 63.5627 23.064 66.9704C26.2848 67.8382 29.936 68.3039 34.0422 68.3039C40.3956 68.3039 46.368 67.1821 51.5784 65.203C62.9869 60.8781 70.7302 52.4504 70.7302 42.7704C70.7302 31.7358 62.1932 24.2959 47.5991 20.0486V20.045Z" fill="#369CD8"/>
<path d="M29.0716 16.8664C30.6485 16.8664 32.3065 16.9828 34.0421 17.2262C35.1781 17.3885 36.2963 17.5578 37.3864 17.7448C41.0552 18.3656 44.4665 19.1311 47.5991 20.0413C62.1931 24.2851 70.7301 31.7285 70.7301 42.7632C70.7301 52.4431 62.9869 60.8708 51.5783 65.1957C46.3679 67.1748 40.3955 68.2966 34.0421 68.2966C29.9359 68.2966 26.2847 67.8309 23.064 66.9631C10.4031 63.5554 4.49771 54.0094 4.49771 42.7632C4.49771 29.88 12.4139 16.8664 29.0716 16.8628M29.0716 15.166C20.8592 15.166 14.0013 18.1857 9.23187 23.8935C5.08331 28.864 2.79736 35.5631 2.79736 42.7632C2.79736 48.8696 4.47655 54.4151 7.655 58.8C11.1086 63.5624 16.1426 66.8608 22.6195 68.6035C26.0484 69.5278 29.89 69.9969 34.0386 69.9969C40.3708 69.9969 46.6431 68.8857 52.178 66.7867C64.666 62.0526 72.427 52.8453 72.427 42.7667C72.427 36.9072 70.201 31.8132 65.809 27.6294C61.7416 23.7524 55.7727 20.6516 48.0718 18.415C44.9074 17.4943 41.408 16.7076 37.6686 16.0726C36.6279 15.8927 35.5167 15.7234 34.282 15.547C32.49 15.2965 30.7367 15.1695 29.0716 15.1695V15.166Z" fill="#231815"/>
<path d="M33.7388 52.461C36.4878 52.461 38.7164 50.2325 38.7164 47.4834C38.7164 44.7344 36.4878 42.5059 33.7388 42.5059C30.9898 42.5059 28.7612 44.7344 28.7612 47.4834C28.7612 50.2325 30.9898 52.461 33.7388 52.461Z" fill="#EB6619"/>
<path d="M17.9842 52.461C20.7332 52.461 22.9617 50.2325 22.9617 47.4834C22.9617 44.7344 20.7332 42.5059 17.9842 42.5059C15.2351 42.5059 13.0066 44.7344 13.0066 47.4834C13.0066 50.2325 15.2351 52.461 17.9842 52.461Z" fill="#EB6619"/>
<path d="M21.1801 45.9667C22.9472 45.9667 24.3797 43.6971 24.3797 40.8974C24.3797 38.0977 22.9472 35.8281 21.1801 35.8281C19.413 35.8281 17.9805 38.0977 17.9805 40.8974C17.9805 43.6971 19.413 45.9667 21.1801 45.9667Z" fill="white"/>
<path d="M21.1801 35.8243C22.9475 35.8243 24.3798 38.0926 24.3798 40.8936C24.3798 43.6946 22.9475 45.9629 21.1801 45.9629C19.4128 45.9629 17.9805 43.6946 17.9805 40.8936C17.9805 38.0926 19.4128 35.8243 21.1801 35.8243ZM21.1801 34.5508C18.672 34.5508 16.707 37.3377 16.707 40.8936C16.707 44.4495 18.672 47.2364 21.1801 47.2364C23.6883 47.2364 25.6533 44.4495 25.6533 40.8936C25.6533 37.3377 23.6883 34.5508 21.1801 34.5508Z" fill="#231815"/>
<path d="M29.4596 45.9667C31.2267 45.9667 32.6592 43.6971 32.6592 40.8974C32.6592 38.0977 31.2267 35.8281 29.4596 35.8281C27.6925 35.8281 26.26 38.0977 26.26 40.8974C26.26 43.6971 27.6925 45.9667 29.4596 45.9667Z" fill="white"/>
<path d="M29.4597 35.8243C31.2271 35.8243 32.6593 38.0926 32.6593 40.8936C32.6593 43.6946 31.2271 45.9629 29.4597 45.9629C27.6923 45.9629 26.2601 43.6946 26.2601 40.8936C26.2601 38.0926 27.6923 35.8243 29.4597 35.8243ZM29.4597 34.5508C26.9515 34.5508 24.9866 37.3377 24.9866 40.8936C24.9866 44.4495 26.9515 47.2364 29.4597 47.2364C31.9679 47.2364 33.9328 44.4495 33.9328 40.8936C33.9328 37.3377 31.9679 34.5508 29.4597 34.5508Z" fill="#231815"/>
<path d="M29.4596 53.7525C29.3256 53.7525 29.1915 53.6925 29.1033 53.5761C28.7823 53.1528 27.0361 51.0538 24.3198 51.1349C23.0922 51.1737 22.1185 51.65 21.5153 52.0416C21.3071 52.1756 21.0285 52.1192 20.8944 51.911C20.7568 51.7029 20.8168 51.4242 21.0249 51.2902C22.0268 50.634 23.1557 50.2707 24.2916 50.2354C27.4524 50.1366 29.4491 52.546 29.8159 53.0293C29.9676 53.2269 29.9288 53.5091 29.7313 53.6608C29.6501 53.7243 29.5549 53.7525 29.4596 53.7525Z" fill="#040000"/>
<path d="M24.9372 49.2045C24.5033 49.2045 24.0764 49.0458 23.7483 48.753C23.385 48.432 23.1733 47.9839 23.1627 47.5218C23.1522 47.0456 23.3568 46.5799 23.7236 46.2413C24.1011 45.892 24.6091 45.7192 25.1206 45.7721C25.3676 45.7968 25.5475 46.0155 25.5228 46.2624C25.4981 46.5094 25.2758 46.6893 25.0324 46.6646C24.7784 46.6399 24.5244 46.7246 24.3339 46.9009C24.1576 47.0632 24.0588 47.2855 24.0623 47.5042C24.0658 47.7158 24.1717 47.9275 24.3445 48.0827C24.535 48.252 24.7784 48.3297 25.0289 48.305C25.2758 48.2803 25.4981 48.4602 25.5228 48.7071C25.5475 48.9541 25.3676 49.1763 25.1206 49.201C25.0606 49.2081 25.0007 49.2116 24.9407 49.2116L24.9372 49.2045Z" fill="#040000"/>
<path d="M21.0178 41.4224L19.134 42.1879C19.3528 43.5461 20.1324 44.5056 21.0178 44.5056C22.0832 44.5056 22.9616 43.1157 22.9616 41.4259C22.9616 41.1825 22.9439 40.9391 22.9051 40.6992L21.0178 41.4259V41.4224Z" fill="#040000"/>
<path d="M29.3573 41.4224L31.2411 42.1879C31.0224 43.5461 30.2428 44.5056 29.3573 44.5056C28.292 44.5056 27.4136 43.1157 27.4136 41.4259C27.4136 41.1825 27.4312 40.9391 27.47 40.6992L29.3573 41.4259V41.4224Z" fill="#040000"/>
<path d="M25.9814 40.625H24.655V41.2106H25.9814V40.625Z" fill="black"/>
<path d="M16.2801 17.9736C17.1408 13.3629 21.1165 0.183476 38.494 0.994845C56.8203 1.85207 65.4914 11.5391 62.8456 26.3695C62.8456 26.3695 63.9992 26.9128 63.7134 27.9535C63.7134 27.9535 63.3183 28.7966 62.1718 28.726C62.1718 28.726 59.2227 28.6237 55.6773 27.9993C45.9938 26.8105 27.7768 24.1541 17.0032 19.9738C16.7175 19.9985 16.3965 19.9174 16.0437 19.6034C14.7561 18.464 16.273 17.9701 16.273 17.9701L16.2801 17.9736Z" fill="#DB4317"/>
<path d="M62.3059 29.3678C62.253 29.3678 62.1966 29.3678 62.1401 29.3643C62.0343 29.3643 59.131 29.2549 55.5892 28.6305C45.7681 27.4241 27.7345 24.7889 16.9045 20.6156C16.4565 20.6156 16.0297 20.4357 15.631 20.0794C15.0525 19.5679 14.8126 19.0387 14.922 18.5096C15.0243 18.0086 15.4194 17.6982 15.7192 17.5289C16.6611 12.8794 20.9261 -0.462356 38.5258 0.359596C48.3433 0.818196 55.7515 3.84143 59.9565 9.10827C63.4242 13.4509 64.6624 19.3033 63.5477 26.0588C64.0627 26.4575 64.5954 27.1701 64.3344 28.1261C64.3238 28.1613 64.3132 28.1966 64.2956 28.2284C64.0909 28.6658 63.4454 29.3713 62.3059 29.3713V29.3678ZM17.0104 19.3386C17.088 19.3386 17.1656 19.3527 17.2397 19.3809C27.9356 23.533 45.9657 26.1647 55.7585 27.3676C55.7691 27.3676 55.7797 27.3676 55.7903 27.3711C59.2474 27.9814 62.1684 28.0873 62.1966 28.0908C62.7716 28.1261 63.0326 27.8368 63.1173 27.7169C63.1808 27.2865 62.694 27.0078 62.5952 26.9549C62.5388 26.9302 62.4858 26.8984 62.4365 26.8561C62.2636 26.7079 62.1789 26.4822 62.2177 26.2599C63.4066 19.6032 62.3095 14.1 58.9582 9.902C54.9895 4.93149 47.9024 2.07405 38.4658 1.63309C21.928 0.857001 17.8782 12.8864 16.9081 18.0898C16.8693 18.2979 16.7317 18.4708 16.5376 18.5554C16.5165 18.566 16.4918 18.5731 16.4671 18.5801C16.3507 18.6225 16.2166 18.7071 16.1743 18.7636C16.1884 18.8059 16.2484 18.9258 16.4741 19.1234C16.7387 19.3562 16.8939 19.3421 16.9539 19.3351C16.9716 19.3351 16.9927 19.3351 17.0104 19.3351V19.3386Z" fill="#221613"/>
<path d="M52.3651 4.06384C52.3651 4.06384 32.6841 0.109294 26.9092 22.9934C26.9092 22.9934 23.6073 22.4396 19.0742 20.8274C19.0742 20.8274 22.3938 3.16075 38.4977 0.994746C38.4977 0.994746 46.7137 -0.878459 52.3651 4.06384Z" fill="#DB4317"/>
<path d="M26.9091 23.6319C26.8738 23.6319 26.8386 23.6319 26.8033 23.6249C26.6657 23.6002 23.392 23.0428 18.8589 21.4306C18.5626 21.3248 18.3897 21.0214 18.4462 20.7145C18.4815 20.5311 19.3316 16.1285 22.1996 11.3979C26.0201 5.09742 31.615 1.28752 38.3847 0.366788C39.0232 0.22568 47.0663 -1.4147 52.7847 3.58404C53.0035 3.77454 53.0634 4.08498 52.9364 4.34602C52.8094 4.60355 52.5237 4.74465 52.2415 4.68821C52.1921 4.67763 47.3768 3.75337 41.9547 5.56661C34.7159 7.99013 29.8618 13.9061 27.53 23.1486C27.4559 23.4344 27.1984 23.6284 26.9126 23.6284L26.9091 23.6319ZM19.8184 20.4147C22.9122 21.4836 25.3781 22.0409 26.4435 22.2561C29.569 10.5865 36.388 6.07107 41.6019 4.3425C44.9391 3.2348 48.0047 3.09722 50.0296 3.18189C44.9074 0.250374 38.7057 1.60148 38.6352 1.61559C38.6175 1.61912 38.5964 1.62265 38.5787 1.62617C32.116 2.49399 26.9761 5.98993 23.3109 12.0188C21.1166 15.6276 20.1324 19.1165 19.8184 20.4147Z" fill="#221613"/>
<path d="M45.2037 25.7058C45.2037 25.7058 31.5939 30.1684 16.5059 27.0075C16.5059 27.0075 5.4713 24.7886 16.0473 19.6064L45.2037 25.7094V25.7058Z" fill="#DB4317"/>
<path d="M27.7628 28.7647C24.2034 28.7647 20.3335 28.4578 16.3755 27.6287C15.8463 27.5229 11.1686 26.5105 10.844 24.0093C10.6359 22.3866 12.2445 20.7603 15.7687 19.0318C15.8957 18.9683 16.0403 18.9506 16.1779 18.9788L45.3343 25.0818C45.6165 25.1417 45.8246 25.3816 45.8387 25.6709C45.8529 25.9601 45.6765 26.2212 45.4013 26.3129C45.299 26.3447 37.7603 28.7682 27.7593 28.7682L27.7628 28.7647ZM16.1356 20.27C12.3363 22.1679 12.0505 23.399 12.1105 23.8435C12.2728 25.1029 15.229 26.0977 16.6365 26.3799C27.5935 28.6765 37.8626 26.8738 42.4698 25.7802L16.1391 20.27H16.1356Z" fill="#221613"/>
<path d="M63.2295 38.7661C64.4433 37.5524 64.4438 35.5852 63.2308 34.3721C62.0178 33.1591 60.0505 33.1597 58.8368 34.3734L42.4732 50.737C41.2595 51.9507 41.2589 53.918 42.4719 55.131C43.685 56.344 45.6522 56.3435 46.8659 55.1298L63.2295 38.7661Z" fill="#444344"/>
<path d="M61.0362 33.4605C61.8299 33.4605 62.6271 33.7639 63.2339 34.3707C64.4474 35.5842 64.4474 37.5491 63.2339 38.7626L46.8689 55.1276C46.2622 55.7344 45.4684 56.0378 44.6712 56.0378C43.8739 56.0378 43.0802 55.7344 42.4734 55.1276C41.2599 53.9141 41.2599 51.9492 42.4734 50.7356L58.8384 34.3707C59.4452 33.7639 60.2389 33.4605 61.0362 33.4605ZM61.0362 32.6104C59.9779 32.6104 58.9866 33.0231 58.2387 33.7674L41.8737 50.1324C40.3321 51.674 40.3321 54.1857 41.8737 55.7273C42.6216 56.4752 43.6129 56.8844 44.6712 56.8844C45.7295 56.8844 46.7208 56.4717 47.4687 55.7273L63.8336 39.3624C64.5815 38.6145 64.9907 37.6232 64.9907 36.5649C64.9907 35.5066 64.578 34.5153 63.8336 33.7674C63.0857 33.0196 62.0945 32.6104 61.0362 32.6104Z" fill="#040000"/>
<path d="M75.5245 42.633C86.5635 42.633 95.5124 33.6841 95.5124 22.6451C95.5124 11.6061 86.5635 2.65723 75.5245 2.65723C64.4855 2.65723 55.5366 11.6061 55.5366 22.6451C55.5366 33.6841 64.4855 42.633 75.5245 42.633Z" fill="white"/>
<path d="M75.5244 2.65678C80.6396 2.65678 85.7548 4.6076 89.6564 8.50922C97.4632 16.316 97.4632 28.9698 89.6564 36.7766C85.7548 40.6783 80.6396 42.6291 75.5244 42.6291C70.4093 42.6291 65.2941 40.6783 61.3925 36.7766C53.5857 28.9698 53.5857 16.316 61.3925 8.50922C65.2941 4.6076 70.4093 2.65678 75.5244 2.65678ZM75.5244 0.959961C69.732 0.959961 64.2852 3.21416 60.1896 7.30981C51.7337 15.7657 51.7337 29.5237 60.1896 37.976C64.2852 42.0717 69.732 44.3259 75.5244 44.3259C81.3169 44.3259 86.7637 42.0717 90.8593 37.976C99.3152 29.5202 99.3152 15.7622 90.8593 7.30981C86.7637 3.21416 81.3169 0.959961 75.5244 0.959961Z" fill="#040000"/>
<path d="M75.5244 34.773C82.2227 34.773 87.6527 29.343 87.6527 22.6448C87.6527 15.9466 82.2227 10.5166 75.5244 10.5166C68.8262 10.5166 63.3962 15.9466 63.3962 22.6448C63.3962 29.343 68.8262 34.773 75.5244 34.773Z" fill="#C81D1D"/>
<path d="M75.5243 10.5167C78.6287 10.5167 81.7331 11.7021 84.1002 14.0691C88.8379 18.8068 88.8379 26.4831 84.1002 31.2208C81.7331 33.5879 78.6287 34.7732 75.5243 34.7732C72.42 34.7732 69.3156 33.5879 66.9485 31.2208C62.2108 26.4831 62.2108 18.8068 66.9485 14.0691C69.3156 11.7021 72.42 10.5167 75.5243 10.5167ZM75.5243 8.98926C71.8767 8.98926 68.4478 10.4109 65.8691 12.9897C63.2903 15.5684 61.8687 18.9973 61.8687 22.645C61.8687 26.2926 63.2903 29.7215 65.8691 32.3003C68.4478 34.879 71.8767 36.3007 75.5243 36.3007C79.172 36.3007 82.6009 34.879 85.1796 32.3003C87.7584 29.7215 89.18 26.2926 89.18 22.645C89.18 18.9973 87.7584 15.5684 85.1796 12.9897C82.6009 10.4109 79.172 8.98926 75.5243 8.98926Z" fill="#641014"/>
<path d="M42.9108 48.1424L43.3306 48.9643C43.3588 49.0031 43.387 49.0455 43.4188 49.0843L45.673 51.8218L47.1017 53.5574L47.6449 54.1712C48.4175 54.9861 49.3206 55.6493 50.333 56.1502L53.0423 57.4872C53.6279 57.7765 54.1359 58.1787 54.5522 58.6831L55.5823 59.9319C55.7269 60.1048 55.9844 60.133 56.1573 59.9884L65.0506 52.6684C65.227 52.5238 65.2517 52.2663 65.107 52.0899L64.2039 50.9963C63.6677 50.3472 63.382 49.5252 63.3961 48.6821L63.4631 44.5406C63.4808 43.5317 63.135 42.5475 62.493 41.7714L62.2919 41.528L61.5829 40.8118L59.3428 42.9884L56.0409 38.9774L55.5188 38.346L54.3864 36.9702C53.5821 35.993 52.1357 35.8554 51.1585 36.6562C50.4389 37.2489 50.1461 38.1908 50.326 39.0339C50.3507 39.1538 50.4177 39.3831 50.4107 39.3796C49.7933 39.3408 49.1724 39.5383 48.7068 39.9229C47.9942 40.5085 47.7014 41.4362 47.8707 42.2723C47.7966 42.2617 47.719 42.2547 47.6414 42.2511C47.0735 42.23 46.4914 42.4381 46.0081 42.8403C45.5354 43.2283 45.2426 43.7786 45.1826 44.3889C45.1579 44.6323 45.172 44.8757 45.225 45.1086C45.2355 45.165 45.2532 45.2179 45.2708 45.2708C44.6817 45.2003 44.1067 45.3802 43.5987 45.7965C43.1013 46.2057 42.8191 46.7736 42.7979 47.398C42.7908 47.585 42.8085 47.772 42.8508 47.9589C42.872 48.0507 42.8967 48.1389 42.9284 48.2271" fill="white"/>
<path d="M65.6045 51.6951L64.7014 50.598C64.264 50.0653 64.0276 49.3915 64.0382 48.7001L64.1053 44.5586C64.1229 43.3979 63.7278 42.2691 62.9905 41.3731L62.7894 41.1296C62.7894 41.1296 62.7647 41.1014 62.7506 41.0873L62.0416 40.3712C61.7946 40.1243 61.396 40.1207 61.1455 40.3641L59.4028 42.0574L54.8874 36.5719C53.8608 35.3266 52.0123 35.1467 50.7635 36.1732C49.9839 36.8153 49.5712 37.8207 49.6594 38.8084C49.1655 38.9072 48.6998 39.1224 48.3153 39.4399C47.6521 39.9867 47.2535 40.8016 47.2076 41.6447C46.6432 41.7188 46.0929 41.9657 45.6202 42.3538C45.0169 42.8512 44.643 43.5532 44.5689 44.3328C44.5583 44.4457 44.5548 44.555 44.5548 44.6679C44.0785 44.7561 43.627 44.9713 43.2143 45.31C42.5758 45.8356 42.2089 46.5729 42.1842 47.3842C42.1771 47.6206 42.1983 47.864 42.2512 48.1004C42.2653 48.1603 42.2794 48.2238 42.2971 48.2838C42.3041 48.3156 42.3147 48.3438 42.3253 48.3755C42.3323 48.3967 42.3394 48.4179 42.3465 48.439C42.3711 48.5131 42.4099 48.5766 42.4558 48.6366L42.7768 49.261C42.7909 49.2927 42.8121 49.3209 42.8333 49.3492L42.8544 49.3809C42.8827 49.4197 42.9109 49.4585 42.9426 49.4973L46.6397 53.9881L47.197 54.6195C48.026 55.4909 48.9926 56.2035 50.065 56.7326L52.7743 58.0696C53.2788 58.3201 53.7162 58.6658 54.076 59.0997L55.1061 60.3485C55.2825 60.5637 55.533 60.6978 55.8117 60.726C55.8469 60.726 55.8822 60.7295 55.914 60.7295C56.1574 60.7295 56.3867 60.6448 56.5772 60.4896L65.4705 53.1697C65.915 52.8028 65.9785 52.1431 65.6116 51.6951H65.6045ZM55.9351 59.3608L55.0497 58.2883C54.577 57.7133 53.9984 57.2547 53.3282 56.9231L50.6189 55.5861C49.677 55.124 48.8339 54.4996 48.1248 53.7553L47.5957 53.1555L43.9127 48.6824C43.9127 48.6824 43.8951 48.6577 43.8845 48.6436L43.8775 48.633L43.5071 47.9099C43.5 47.8816 43.4929 47.8534 43.4859 47.8252C43.4577 47.6912 43.4436 47.5536 43.4471 47.4195C43.4612 46.9821 43.6623 46.5799 44.015 46.2871C44.2973 46.0543 44.5971 45.9273 44.9076 45.8991L47.0136 48.2027C47.1406 48.3402 47.3099 48.4108 47.4828 48.4108C47.638 48.4108 47.7897 48.3544 47.9132 48.245C48.1742 48.0086 48.1918 47.603 47.952 47.3454L45.8847 45.0877L45.8741 45.0524C45.8671 45.0277 45.86 45.003 45.853 44.9784C45.8177 44.809 45.8071 44.6326 45.8248 44.4563C45.8671 44.0153 46.0787 43.6167 46.4209 43.3344C46.7666 43.0522 47.1653 42.9005 47.5533 42.897L50.5166 46.0931C50.6436 46.2272 50.8129 46.2977 50.9822 46.2977C51.1375 46.2977 51.2927 46.2413 51.4161 46.1284C51.6737 45.8885 51.6878 45.4863 51.4514 45.2288L48.4882 42.0292C48.4106 41.4295 48.6469 40.8086 49.1196 40.4206C49.4054 40.1877 49.7687 40.0537 50.1462 40.029L53.9138 44.0929C54.0408 44.227 54.2101 44.2975 54.3794 44.2975C54.5346 44.2975 54.6898 44.2411 54.8133 44.1282C55.0708 43.8883 55.0849 43.4861 54.8486 43.2286L50.9964 39.0765C50.9964 39.0765 50.9964 39.0765 50.9964 39.073C50.9822 39.0166 50.9646 38.9531 50.954 38.9072C50.8129 38.2652 51.0563 37.5808 51.5678 37.1575C52.2734 36.5789 53.3176 36.6777 53.8996 37.3832L58.8561 43.405C58.9689 43.5426 59.1347 43.6272 59.3111 43.6378C59.4875 43.6484 59.6639 43.5814 59.7909 43.4579L61.5794 41.7223L61.8228 41.9692L62.0028 42.1879C62.546 42.8512 62.8388 43.6872 62.8282 44.5444L62.7612 48.686C62.7436 49.6808 63.0858 50.6474 63.7137 51.4129L64.4721 52.3336L55.9281 59.3678L55.9351 59.3608Z" fill="#040000"/>
</g>
<defs>
<clipPath id="clip0_1079_1907">
<rect width="99.996" height="70" fill="white"/>
</clipPath>
</defs>
</svg>
