<svg width="46" height="22" viewBox="0 0 46 22" fill="none" xmlns="http://www.w3.org/2000/svg">
<path d="M0.470492 21V1.76H6.84049C10.7925 1.76 13.8085 2.904 13.8085 6.492C13.8085 8.26 12.8205 10.08 11.1825 10.652V10.782C13.2625 11.276 14.7965 12.732 14.7965 15.332C14.7965 19.206 11.5725 21 7.33449 21H0.470492ZM4.31849 9.586H6.55449C8.99849 9.586 10.0645 8.598 10.0645 7.064C10.0645 5.374 8.92049 4.698 6.60649 4.698H4.31849V9.586ZM4.31849 18.036H6.99649C9.62249 18.036 11.0525 17.1 11.0525 15.098C11.0525 13.226 9.64849 12.446 6.99649 12.446H4.31849V18.036ZM21.4438 21.364C18.8438 21.364 17.1278 19.518 17.1278 17.048C17.1278 13.928 19.6498 12.29 25.4998 11.666C25.4478 10.236 24.8238 9.144 23.0298 9.144C21.6778 9.144 20.3778 9.742 19.0258 10.522L17.6478 8C19.3638 6.934 21.4438 6.076 23.7318 6.076C27.4238 6.076 29.3218 8.286 29.3218 12.498V21H26.2018L25.9158 19.44H25.8378C24.5638 20.532 23.1078 21.364 21.4438 21.364ZM22.6918 18.374C23.7838 18.374 24.5898 17.854 25.4998 16.944V14.006C21.9638 14.474 20.7678 15.436 20.7678 16.736C20.7678 17.88 21.5738 18.374 22.6918 18.374ZM38.3391 21.364C34.7251 21.364 32.3851 18.504 32.3851 13.746C32.3851 8.988 35.3491 6.076 38.4951 6.076C40.1331 6.076 41.1471 6.7 42.1871 7.662L42.0311 5.374V0.251999H45.8531V21H42.7591L42.4471 19.492H42.3691C41.3031 20.532 39.8471 21.364 38.3391 21.364ZM39.3271 18.218C40.3411 18.218 41.1991 17.802 42.0311 16.71V10.314C41.1471 9.508 40.2371 9.222 39.3271 9.222C37.6891 9.222 36.3111 10.782 36.3111 13.694C36.3111 16.71 37.4031 18.218 39.3271 18.218Z" fill="#C81D1D"/>
</svg>
