<svg width="75" height="22" viewBox="0 0 75 22" fill="none" xmlns="http://www.w3.org/2000/svg">
<path d="M9.86252 21.364C4.61052 21.364 0.632516 17.88 0.632516 11.458C0.632516 5.114 4.74052 1.396 9.86252 1.396C12.6445 1.396 14.5685 2.592 15.8165 3.866L13.7625 6.31C12.8265 5.4 11.7345 4.698 9.99252 4.698C6.79452 4.698 4.55852 7.194 4.55852 11.328C4.55852 15.514 6.48252 18.036 10.2525 18.036C11.1885 18.036 12.1245 17.776 12.6705 17.308V13.512H9.26452V10.366H16.1025V19.05C14.8025 20.324 12.5405 21.364 9.86252 21.364ZM26.0032 21.364C22.3632 21.364 19.0092 18.556 19.0092 13.746C19.0092 8.884 22.3632 6.076 26.0032 6.076C29.6432 6.076 32.9972 8.884 32.9972 13.746C32.9972 18.556 29.6432 21.364 26.0032 21.364ZM26.0032 18.244C27.9792 18.244 29.0972 16.476 29.0972 13.746C29.0972 10.99 27.9792 9.196 26.0032 9.196C24.0272 9.196 22.9092 10.99 22.9092 13.746C22.9092 16.476 24.0272 18.244 26.0032 18.244ZM42.2786 21.364C38.6386 21.364 35.2846 18.556 35.2846 13.746C35.2846 8.884 38.6386 6.076 42.2786 6.076C45.9186 6.076 49.2726 8.884 49.2726 13.746C49.2726 18.556 45.9186 21.364 42.2786 21.364ZM42.2786 18.244C44.2546 18.244 45.3726 16.476 45.3726 13.746C45.3726 10.99 44.2546 9.196 42.2786 9.196C40.3026 9.196 39.1846 10.99 39.1846 13.746C39.1846 16.476 40.3026 18.244 42.2786 18.244ZM57.592 21.364C53.978 21.364 51.638 18.504 51.638 13.746C51.638 8.988 54.602 6.076 57.748 6.076C59.386 6.076 60.4 6.7 61.44 7.662L61.284 5.374V0.251999H65.106V21H62.012L61.7 19.492H61.622C60.556 20.532 59.1 21.364 57.592 21.364ZM58.58 18.218C59.594 18.218 60.452 17.802 61.284 16.71V10.314C60.4 9.508 59.49 9.222 58.58 9.222C56.942 9.222 55.564 10.782 55.564 13.694C55.564 16.71 56.656 18.218 58.58 18.218ZM70.7104 14.448L70.1644 4.854L70.0344 1.24H73.8824L73.7524 4.854L73.2064 14.448H70.7104ZM71.9584 21.364C70.6064 21.364 69.5924 20.272 69.5924 18.868C69.5924 17.464 70.6064 16.372 71.9584 16.372C73.3104 16.372 74.3504 17.464 74.3504 18.868C74.3504 20.272 73.3104 21.364 71.9584 21.364Z" fill="#009B3E"/>
</svg>
