<?xml version="1.0" encoding="utf-8"?>
<!-- Generator: Adobe Illustrator 27.4.0, SVG Export Plug-In . SVG Version: 6.00 Build 0)  -->
<svg version="1.1" id="레이어_1" xmlns="http://www.w3.org/2000/svg" xmlns:xlink="http://www.w3.org/1999/xlink" x="0px"
	 y="0px" viewBox="0 0 1727.3 263" style="enable-background:new 0 0 1727.3 263;" xml:space="preserve">
<style type="text/css">
	.st0{fill-rule:evenodd;clip-rule:evenodd;fill:#FFFFFF;}
	.st1{fill:#FFFFFF;}
</style>
<g>
	<g>
		<path class="st0" d="M264.7,130.4c5.2,32.5-43.1,60.8-43.1,60.8c-94.3,62.3-194.1,5.9-194.1,5.9c72.3,54.8,158.8,49,158.8,49
			c152.5,3.3,200-115.7,200-115.7H264.7z M162.8,197.1c0,0-59.2-20.3-58.8-76.5c0,0-2.7-57.6,60.8-60.8c0,0,65.8-4.6,54.9,56.8
			h141.1c0,0-4.3-94.1-180.4-100c0,0-180.5-1.7-180.4,107.8c0,0-6.5,76.4,105.9,78.4C105.9,203,141.6,202.7,162.8,197.1z"/>
	</g>
</g>
<g>
	<polygon class="st1" points="483.9,132.3 467.5,132.3 467.5,157.1 434,157.1 434,170.5 530.4,170.5 530.4,157.1 483.9,157.1 	"/>
	<path class="st1" d="M504.8,110.1l-63.6,2l2.2,14.1l60.3-3.4c-0.1,0.6-0.1,1.2-0.2,1.8c-0.7,5.8-1.8,12-3.2,18.6l16.1,1.6
		c1.5-6.7,2.6-12.9,3.3-18.7s1.2-10.8,1.4-15s0.3-9.2,0.4-14.9v-2.5v-9h-9.9h-6.5h-60.3v13.3h60.3c0,4.1-0.1,7.9-0.2,11.4
		C504.9,109.6,504.8,109.9,504.8,110.1z"/>
	<rect x="562.5" y="156" class="st1" width="96.6" height="13.5"/>
	<path class="st1" d="M595.6,129.1c6.4-4.6,11.2-10.1,14.6-16.5c3.4,6.4,8.2,11.9,14.6,16.6c6.6,4.8,14.7,8.2,24.2,10l7.1-13.8
		c-8.1-1.3-15-3.9-20.6-7.6c-5.6-3.7-9.7-8-12.4-12.9c-2.7-4.9-4.1-9.9-4.1-15.1v-7.4h-3.2h-11.1h-3.5v7.4c0,5.1-1.4,10.1-4.1,15
		c-2.7,4.9-6.9,9.2-12.4,13c-5.6,3.8-12.3,6.3-20.3,7.7l7,13.8C580.8,137.3,588.9,133.9,595.6,129.1z"/>
	<path class="st1" d="M747.3,136.3h30V83.8h-76.4v52.4h30.1v20.3H691v13.5h96.6v-13.5h-40.3V136.3z M717.2,97h43.6v26.3h-43.6V97z"
		/>
	<polygon class="st1" points="853.5,145.9 836.7,145.9 836.7,167.1 836.7,174.2 836.7,180.4 911,180.4 911,167.1 853.5,167.1 	"/>
	<path class="st1" d="M852.3,117c2,4,4.5,7.5,7.6,10.7c4.4,4.4,10,7.8,16.7,9.9l8.5-13.1c-5.8-1.7-10.4-4.3-14.1-7.6
		c-3.6-3.3-6.2-7.1-7.8-11.3c-1.6-4.2-2.4-8.6-2.3-13.3V82.2h-3.5h-10.3h-3.5v10.1c0,4.8-0.9,9.5-2.6,13.9
		c-1.7,4.4-4.4,8.4-8.1,11.9c-3.7,3.6-8.5,6.3-14.4,8.2l8.5,13c6.8-2.2,12.5-5.6,17-10.4C847.5,125.4,850.3,121.4,852.3,117z"/>
	<rect x="891.6" y="76.4" class="st1" width="16.7" height="77"/>
	<path class="st1" d="M981,127.8c6.3-4.4,11.2-9.8,14.6-15.9c3.4,6.2,8.3,11.6,14.7,16c6.7,4.6,14.9,7.8,24.5,9.5l7-13.8
		c-8.3-1.2-15.2-3.6-20.8-7.2c-5.6-3.6-9.7-7.7-12.4-12.4c-2.7-4.7-4.1-9.6-4.1-14.7V82h-3.2H990h-3.3v7.3c0,5-1.4,9.8-4.1,14.5
		c-2.7,4.7-6.8,8.9-12.4,12.4c-5.6,3.6-12.4,6-20.6,7.2l7,13.8C966.3,135.7,974.4,132.5,981,127.8z"/>
	<polygon class="st1" points="1003.9,133.3 987.4,133.3 987.4,156.6 948,156.6 948,169.8 1044.6,169.8 1044.6,156.6 1003.9,156.6 	
		"/>
	<path class="st1" d="M1153.3,116.4h-7.3V77.7h-15.7V145c-4.5-2.6-8.1-5.9-10.9-10c-3.1-4.5-5.3-9.6-6.6-15.2
		c-1.3-5.6-2-11.7-2-18.3v-1.7h15.1V86.7h-48.1v13.2h16.8v1.7c0,7.2-0.6,13.8-1.8,19.8c-1.3,6-3.4,11.5-6.5,16.4
		c-3.1,4.9-7.2,8.8-12.4,11.8l10.2,12.7c5.8-3.5,10.4-8.2,13.8-14.3c2.2-3.9,4-8.1,5.3-12.7c1.3,3.5,3,6.8,4.9,9.9
		c3.6,5.7,8.3,10.1,14.3,13.2l8-10.6v29.5h15.7v-47.5h7.3V182h15.8V76.2h-15.8V116.4z"/>
	<path class="st1" d="M1257.5,157c-2.9-0.8-6.4-1.3-10.2-1.3c-3.9,0-7.4,0.4-10.3,1.3c-2.9,0.8-5.2,2-6.8,3.6
		c-1.6,1.6-2.4,3.5-2.4,5.6c0,2.2,0.8,4,2.4,5.6c1.6,1.6,3.8,2.8,6.8,3.7c2.9,0.9,6.3,1.3,10.3,1.3c3.9,0,7.3-0.4,10.2-1.3
		c2.9-0.9,5.2-2.1,6.8-3.7c1.6-1.6,2.4-3.5,2.4-5.6c0-2.2-0.8-4-2.4-5.6C1262.7,159.1,1260.4,157.9,1257.5,157z M1256.7,168.5
		c-0.8,0.6-2,1-3.6,1.3c-1.6,0.3-3.5,0.4-5.8,0.4c-2.3,0-4.3-0.1-5.9-0.4c-1.6-0.3-2.8-0.7-3.6-1.3c-0.8-0.6-1.2-1.3-1.2-2.3
		c0-0.9,0.4-1.7,1.2-2.3c0.8-0.6,2-1.1,3.6-1.3c1.6-0.3,3.5-0.4,5.8-0.4c2.3,0,4.2,0.1,5.8,0.4c1.6,0.3,2.8,0.7,3.6,1.3
		c0.8,0.6,1.2,1.4,1.3,2.3C1257.9,167.2,1257.5,167.9,1256.7,168.5z"/>
	<path class="st1" d="M1229.5,148.5c1.3-1.6,2.3-3.3,3.1-5.1c0.7,1.4,1.6,2.6,2.6,3.8c1.8,2.1,4.2,3.7,7.1,4.9l4.1-5.9v7.3h8.1v-12
		h3.8v13.7h8.3v-33.9h-8.3v13.1h-3.8v-12.2h-8.1v22.9c-2.1-0.9-3.9-2-5.3-3.4c-1.5-1.5-2.6-3.2-3.3-5.1c-0.7-1.9-1-3.8-1-5.9v-6.2
		h-1.7h-5.1h-1.7v6.2c0,2.2-0.4,4.3-1.1,6.4c-0.7,2.1-1.8,4-3.4,5.7c-1.6,1.8-3.7,3.2-6.2,4.3l4.7,6.7
		C1225.2,152.7,1227.6,150.9,1229.5,148.5z"/>
	<path class="st1" d="M1288.9,143.4c1,2,2.2,3.8,3.8,5.4c2.3,2.3,5.1,4,8.6,5.1l4.6-6.8c-3-0.9-5.4-2.3-7.3-4
		c-1.9-1.7-3.3-3.7-4.1-5.8c-0.9-2.2-1.3-4.5-1.3-6.9v-5.8h-1.5h-5.5h-1.8v5.8c0,2.6-0.5,5-1.4,7.3c-0.9,2.3-2.4,4.3-4.4,6.2
		c-2,1.8-4.6,3.2-7.7,4.1l4.8,6.9c3.6-1.2,6.5-3,8.9-5.4C1286.4,147.7,1287.9,145.7,1288.9,143.4z"/>
	<polygon class="st1" points="1288.8,157.8 1279.9,157.8 1279.9,168.9 1279.9,172.7 1279.9,175.9 1318.3,175.9 1318.3,168.9 
		1288.8,168.9 	"/>
	<polygon class="st1" points="1316.4,121.3 1307.6,121.3 1307.6,161.9 1316.4,161.9 1316.4,144.4 1323.6,144.4 1323.6,137.1 
		1316.4,137.1 	"/>
	<path class="st1" d="M1355.3,152.7h15.7v-27.5h-40.1v27.5h15.8v10.7h-21v7.1h50.8v-7.1h-21.2V152.7z M1339.5,132.1h22.9V146h-22.9
		V132.1z"/>
	<rect x="1417.6" y="121.2" class="st1" width="8.7" height="55.6"/>
	<path class="st1" d="M1400.3,155.3c-3.2,0.3-6.4,0.4-9.6,0.5v-29.4h-8.6v29.4v5.1v2.2h5c4.6,0,9.2-0.2,13.8-0.6
		c4.6-0.4,9.1-1.1,13.7-2l-1.1-7.2C1409.1,154.4,1404.7,155,1400.3,155.3z"/>
	<polygon class="st1" points="1471.3,140.4 1462.3,140.4 1462.3,147.4 1471.3,147.4 1471.3,176.9 1480,176.9 1480,121.2 
		1471.3,121.2 	"/>
	<path class="st1" d="M1452.7,157.3c-2.5,0.1-5.4,0.2-8.7,0.2V148h15.4v-6.8h-15.4v-8.4h17.3v-7h-26v31.8v2.2v4.9h4.5
		c5,0,9.4-0.1,13.2-0.3c3.8-0.2,7.7-0.6,11.5-1.2l-0.9-7C1460,156.8,1456.4,157.1,1452.7,157.3z"/>
	<rect x="1524.4" y="121.3" class="st1" width="8.7" height="33.6"/>
	<path class="st1" d="M1521.3,151.3l-1.1-6.9c-3.8,0.6-7.6,1-11.4,1.2c-3,0.2-6.7,0.2-10.9,0.3v-4.1h17.2v-17.3h-25.8v7h17.2v3.9
		h-17.2v10.6v4v3.1h5c6.1,0,11.2-0.1,15.2-0.3C1513.5,152.4,1517.4,152,1521.3,151.3z"/>
	<path class="st1" d="M1524.5,157c-2.9-0.8-6.3-1.2-10.3-1.2c-4,0-7.4,0.4-10.3,1.2c-2.9,0.8-5.1,2-6.6,3.6
		c-1.5,1.6-2.3,3.5-2.3,5.8c0,2.2,0.8,4.1,2.3,5.6c1.5,1.6,3.8,2.8,6.6,3.6c2.9,0.8,6.3,1.3,10.3,1.3c4,0,7.4-0.4,10.3-1.3
		c2.9-0.8,5.1-2.1,6.7-3.6c1.6-1.6,2.3-3.4,2.3-5.6c0-2.2-0.8-4.2-2.3-5.8C1529.6,159,1527.4,157.8,1524.5,157z M1523.6,168.5
		c-0.8,0.6-1.9,1-3.5,1.2c-1.6,0.3-3.5,0.4-5.9,0.4c-2.4,0-4.3-0.1-5.9-0.4c-1.6-0.3-2.7-0.7-3.5-1.2c-0.8-0.6-1.2-1.3-1.2-2.1
		c0-0.9,0.4-1.6,1.2-2.2c0.8-0.6,1.9-1,3.5-1.3c1.6-0.3,3.5-0.4,5.9-0.4c2.4,0,4.4,0.2,5.9,0.4c1.6,0.3,2.7,0.7,3.5,1.3
		c0.8,0.6,1.2,1.3,1.2,2.2C1524.7,167.2,1524.4,167.9,1523.6,168.5z"/>
	<rect x="1577.9" y="121.2" class="st1" width="8.9" height="55.7"/>
	<path class="st1" d="M1568.2,151.8c-2-2.5-3.5-5.4-4.5-8.6c-0.9-3.2-1.4-6.6-1.4-10.2v-7.7h-1.7h-5.4h-1.7v7.7
		c0,3.8-0.5,7.4-1.5,10.8c-1,3.4-2.5,6.4-4.7,9c-2.1,2.6-4.8,4.6-8.1,6l5.2,7.2c3.8-1.7,6.8-4.2,9.2-7.4c1.8-2.5,3.3-5.3,4.4-8.4
		c1,2.7,2.4,5.1,4,7.2c2.3,3.1,5.3,5.5,8.9,7.1l5.1-7C1572.8,156.3,1570.2,154.4,1568.2,151.8z"/>
	<path class="st1" d="M1611,149c3.3-2.4,5.9-5.3,7.7-8.7c1.8,3.4,4.3,6.3,7.7,8.7c3.5,2.5,7.7,4.3,12.7,5.3l3.8-7.2
		c-4.3-0.7-7.9-2-10.8-4c-2.9-2-5.1-4.2-6.5-6.8c-1.4-2.6-2.1-5.2-2.1-7.9v-3.9h-1.7h-5.8h-1.8v3.9c0,2.7-0.7,5.3-2.2,7.9
		c-1.4,2.6-3.6,4.8-6.5,6.8c-2.9,2-6.5,3.3-10.7,4.1l3.7,7.2C1603.3,153.3,1607.5,151.5,1611,149z"/>
	<rect x="1593.6" y="163.1" class="st1" width="50.8" height="7.1"/>
	<path class="st1" d="M1656.8,176.2h38.3v-19.9h-38.3V176.2z M1665.4,163.2h20.9v6.1h-20.9V163.2z"/>
	<polygon class="st1" points="1675.7,154 1684,154 1684,122.1 1675.7,122.1 1675.7,134.4 1670.7,134.4 1670.7,141.4 1675.7,141.4 	
		"/>
	<path class="st1" d="M1673,151.3l-0.8-6.7c-2.9,0.4-5.7,0.7-8.5,0.9c-1.7,0.1-3.7,0.2-6,0.2v-3.9h10.8v-6.6h-10.8v-3.7h12.8v-7
		h-21.2v21.3v3.9v2.9h3.8c4.5,0,8.1-0.1,11-0.2C1667.1,152.1,1670,151.8,1673,151.3z"/>
	<rect x="1686.8" y="121.2" class="st1" width="8.3" height="33.1"/>
</g>
</svg>
