<svg width="28" height="21" viewBox="0 0 28 21" fill="none" xmlns="http://www.w3.org/2000/svg">
<path d="M16.151 9.36784L16.8843 3.86784C16.9505 3.37103 17.3743 3 17.8755 3H20.1245C20.6257 3 21.0495 3.37103 21.1157 3.86784L21.849 9.36784C21.929 9.96732 21.4626 10.5 20.8578 10.5H17.1422C16.5374 10.5 16.071 9.96732 16.151 9.36784Z" fill="white"/>
<path d="M21.8491 14.6322L21.1158 20.1322C21.0495 20.629 20.6257 21 20.1245 21L17.8756 21C17.3744 21 16.9506 20.629 16.8844 20.1322L16.151 14.6322C16.0711 14.0327 16.5375 13.5 17.1422 13.5L20.8579 13.5C21.4627 13.5 21.929 14.0327 21.8491 14.6322Z" fill="white"/>
<path d="M16.3678 14.849L10.8678 14.1157C10.371 14.0495 10 13.6257 10 13.1245L10 10.8755C10 10.3743 10.371 9.95053 10.8678 9.88429L16.3678 9.15095C16.9673 9.07102 17.5 9.53739 17.5 10.1422L17.5 13.8578C17.5 14.4626 16.9673 14.929 16.3678 14.849Z" fill="white"/>
<path d="M21.6322 9.15096L27.1322 9.88429C27.629 9.95053 28 10.3743 28 10.8755L28 13.1245C28 13.6257 27.629 14.0495 27.1322 14.1157L21.6322 14.849C21.0327 14.929 20.5 14.4626 20.5 13.8578L20.5 10.1422C20.5 9.53739 21.0327 9.07102 21.6322 9.15096Z" fill="white"/>
<path d="M19.1534 15.8759L14.7458 19.2464C14.3476 19.5509 13.7856 19.5136 13.4312 19.1592L11.8409 17.5689C11.4865 17.2145 11.4492 16.6525 11.7537 16.2543L15.1242 11.8467C15.4916 11.3663 16.198 11.3194 16.6257 11.7471L19.253 14.3744C19.6807 14.8021 19.6338 15.5085 19.1534 15.8759Z" fill="white"/>
<path d="M18.8466 8.12425L23.2542 4.75371C23.6524 4.44925 24.2144 4.48656 24.5688 4.84096L26.1591 6.43122C26.5135 6.78562 26.5508 7.34764 26.2463 7.74578L22.8758 12.1534C22.5084 12.6338 21.802 12.6807 21.3743 12.2531L18.747 9.62572C18.3193 9.19807 18.3662 8.49163 18.8466 8.12425Z" fill="white"/>
<path d="M22.8759 11.8467L26.2464 16.2543C26.5509 16.6524 26.5136 17.2145 26.1592 17.5689L24.5689 19.1591C24.2145 19.5135 23.6525 19.5508 23.2543 19.2464L18.8467 15.8758C18.3663 15.5085 18.3194 14.802 18.7471 14.3744L21.3744 11.747C21.8021 11.3194 22.5085 11.3663 22.8759 11.8467Z" fill="white"/>
<path d="M15.1243 12.1534L11.7537 7.74581C11.4493 7.34768 11.4866 6.78566 11.841 6.43126L13.4312 4.841C13.7856 4.48659 14.3476 4.44929 14.7458 4.75375L19.1534 8.12429C19.6338 8.49167 19.6807 9.1981 19.2531 9.62575L16.6257 12.2531C16.1981 12.6808 15.4916 12.6339 15.1243 12.1534Z" fill="white"/>
<circle cx="19" cy="12" r="3" fill="#409AD6"/>
<path d="M3.48427 3.0345L3.77316 0.867836C3.8394 0.37103 4.26318 0 4.76439 0H5.23557C5.73678 0 6.16056 0.371031 6.2268 0.867837L6.51569 3.0345C6.59562 3.63399 6.12925 4.16667 5.52446 4.16667H4.4755C3.87071 4.16667 3.40434 3.63399 3.48427 3.0345Z" fill="white"/>
<path d="M6.51573 6.9655L6.22684 9.13216C6.1606 9.62897 5.73682 10 5.23561 10L4.76443 10C4.26322 10 3.83944 9.62897 3.7732 9.13216L3.48431 6.9655C3.40438 6.36601 3.87075 5.83333 4.47554 5.83333L5.5245 5.83333C6.12929 5.83333 6.59566 6.36601 6.51573 6.9655Z" fill="white"/>
<path d="M3.0345 6.51567L0.867836 6.22678C0.37103 6.16054 -4.06459e-08 5.73676 -6.25542e-08 5.23555L-8.31505e-08 4.76436C-1.05059e-07 4.26316 0.37103 3.83938 0.867837 3.77314L3.0345 3.48425C3.63399 3.40432 4.16667 3.87069 4.16667 4.47547L4.16667 5.52444C4.16667 6.12923 3.63399 6.5956 3.0345 6.51567Z" fill="white"/>
<path d="M6.9655 3.48421L9.13216 3.7731C9.62897 3.83934 10 4.26312 10 4.76432L10 5.23551C10 5.73672 9.62897 6.1605 9.13216 6.22674L6.9655 6.51563C6.36601 6.59556 5.83333 6.12919 5.83333 5.5244L5.83333 4.47544C5.83333 3.87065 6.36601 3.40428 6.9655 3.48421Z" fill="white"/>
<path d="M4.68198 7.46165L2.94564 8.78944C2.54751 9.0939 1.98549 9.05659 1.63108 8.70219L1.2979 8.36901C0.9435 8.01461 0.906197 7.45259 1.21065 7.05445L2.53844 5.31811C2.90582 4.83769 3.61226 4.7908 4.03991 5.21846L4.78164 5.96019C5.20929 6.38784 5.1624 7.09427 4.68198 7.46165Z" fill="white"/>
<path d="M5.31808 2.53847L7.05442 1.21068C7.45255 0.906225 8.01457 0.943528 8.36898 1.29793L8.70216 1.63111C9.05656 1.98552 9.09386 2.54753 8.78941 2.94567L7.46162 4.68201C7.09424 5.16243 6.38781 5.20932 5.96016 4.78167L5.21842 4.03993C4.79077 3.61228 4.83766 2.90585 5.31808 2.53847Z" fill="white"/>
<path d="M7.46159 5.31808L8.78938 7.05442C9.09384 7.45255 9.05653 8.01457 8.70213 8.36898L8.36895 8.70216C8.01454 9.05656 7.45253 9.09386 7.05439 8.78941L5.31805 7.46162C4.83763 7.09424 4.79074 6.38781 5.21839 5.96015L5.96013 5.21842C6.38778 4.79077 7.09421 4.83766 7.46159 5.31808Z" fill="white"/>
<path d="M2.53841 4.68204L1.21062 2.9457C0.906164 2.54757 0.943467 1.98555 1.29787 1.63115L1.63105 1.29796C1.98546 0.943561 2.54747 0.906258 2.94561 1.21071L4.68195 2.5385C5.16237 2.90588 5.20926 3.61232 4.78161 4.03997L4.03987 4.7817C3.61222 5.20935 2.90579 5.16246 2.53841 4.68204Z" fill="white"/>
<circle cx="4.99998" cy="5.00004" r="1.66667" fill="#409AD6"/>
</svg>
