<svg width="27" height="26" viewBox="0 0 27 26" fill="none" xmlns="http://www.w3.org/2000/svg">
<path d="M15 16C15 14.8954 15.8954 14 17 14H25C26.1046 14 27 14.8954 27 16V24C27 25.1046 26.1046 26 25 26H17C15.8954 26 15 25.1046 15 24V16Z" fill="white"/>
<path d="M19 14H23V19C23 19.5523 22.5523 20 22 20H20C19.4477 20 19 19.5523 19 19V14Z" fill="#409AD6"/>
<path d="M0 16C0 14.8954 0.895431 14 2 14H10C11.1046 14 12 14.8954 12 16V24C12 25.1046 11.1046 26 10 26H2C0.895431 26 0 25.1046 0 24V16Z" fill="white"/>
<path d="M4 14H8V19C8 19.5523 7.55228 20 7 20H5C4.44772 20 4 19.5523 4 19V14Z" fill="#409AD6"/>
<path d="M8 2C8 0.895431 8.89543 0 10 0H18C19.1046 0 20 0.895431 20 2V10C20 11.1046 19.1046 12 18 12H10C8.89543 12 8 11.1046 8 10V2Z" fill="white"/>
<path d="M12 0H16V5C16 5.55228 15.5523 6 15 6H13C12.4477 6 12 5.55228 12 5V0Z" fill="#409AD6"/>
</svg>
