<svg width="23" height="24" viewBox="0 0 23 24" fill="none" xmlns="http://www.w3.org/2000/svg">
<path d="M21.1154 12.9423C21.6677 12.9423 22.1201 13.391 22.0702 13.941C21.9144 15.6588 21.3584 17.3214 20.4409 18.7929C19.3465 20.5481 17.7817 21.9611 15.9244 22.8715C14.0671 23.7818 11.9917 24.153 9.93402 23.9428C7.87632 23.7326 5.91882 22.9495 4.28393 21.6824C2.64905 20.4153 1.40233 18.7151 0.685422 16.7749C-0.0314838 14.8347 -0.189831 12.7323 0.228372 10.7066C0.646575 8.68094 1.62456 6.81315 3.05121 5.31549C4.24729 4.05988 5.71852 3.10662 7.34317 2.5272C7.86336 2.34168 8.41068 2.66786 8.54847 3.20268L10.8643 12.1918C10.9782 12.6336 11.3765 12.9423 11.8327 12.9423H21.1154Z" fill="white"/>
<path d="M10.9239 1.31493C10.8094 0.774656 11.1544 0.238595 11.7033 0.177596C12.8762 0.0472571 14.0654 0.12171 15.2174 0.400199C16.6942 0.7572 18.0722 1.44043 19.2503 2.39972C20.4284 3.35901 21.3768 4.57 22.0256 5.94376C22.5318 7.01541 22.8457 8.16487 22.9557 9.33981C23.0072 9.88969 22.5522 10.3362 21.9999 10.3335L13.633 10.2924C13.1626 10.2901 12.7573 9.96012 12.6597 9.49986L10.9239 1.31493Z" fill="#409AD6"/>
</svg>
