<svg width="23" height="25" viewBox="0 0 23 25" fill="none" xmlns="http://www.w3.org/2000/svg">
<circle cx="18.0714" cy="7.02232" r="4.92857" fill="white"/>
<path d="M5.14759 2.59166C5.52752 1.90088 6.5201 1.90088 6.90002 2.59166L11.2326 10.469C11.5991 11.1354 11.117 11.9509 10.3563 11.9509H1.69127C0.930669 11.9509 0.448506 11.1355 0.815055 10.469L5.14759 2.59166Z" fill="white"/>
<path d="M8.95246 14.1579C10.057 14.1488 10.9524 15.0368 10.9524 16.1414L10.9524 21.9507C10.9524 23.0552 10.057 23.958 8.95246 23.9671L3.09518 24.0152C1.99065 24.0243 1.09525 23.1362 1.09525 22.0317L1.09525 16.2224C1.09525 15.1178 1.99065 14.2151 3.09518 14.206L8.95246 14.1579Z" fill="#409AD6"/>
</svg>
