<svg width="26" height="18" viewBox="0 0 26 18" fill="none" xmlns="http://www.w3.org/2000/svg">
<path d="M10.2142 2C10.2142 0.895429 11.1097 0 12.2142 0H13.7857C14.8902 0 15.7857 0.895431 15.7857 2V6.35714C15.7857 7.46171 14.8902 8.35714 13.7857 8.35714H12.2142C11.1097 8.35714 10.2142 7.46171 10.2142 6.35714V2Z" fill="#409AD6"/>
<path fill-rule="evenodd" clip-rule="evenodd" d="M8.35714 2.71074C3.47031 4.57981 0 9.31321 0 14.8571V15.8889C0 16.8576 0.785278 17.6429 1.75397 17.6429H24.246C25.2147 17.6429 26 16.8576 26 15.8889V14.8571C26 9.31321 22.5297 4.57981 17.6429 2.71074V8.21429C17.6429 9.31886 16.7474 10.2143 15.6429 10.2143H10.3571C9.25257 10.2143 8.35714 9.31885 8.35714 8.21429V2.71074Z" fill="white"/>
</svg>
