<svg width="29" height="24" viewBox="0 0 29 24" fill="none" xmlns="http://www.w3.org/2000/svg">
<rect y="19" width="6" height="5" rx="1" transform="rotate(-90 0 19)" fill="white"/>
<rect x="7" y="19" width="12" height="5" rx="1" transform="rotate(-90 7 19)" fill="white"/>
<rect x="14" y="19" width="19" height="5" rx="1" transform="rotate(-90 14 19)" fill="white"/>
<path d="M19.8176 14.7012L20.3287 10.8678C20.3949 10.371 20.8187 10 21.3199 10H22.68C23.1812 10 23.605 10.371 23.6712 10.8678L24.1823 14.7012C24.2623 15.3007 23.7959 15.8333 23.1911 15.8333H20.8088C20.204 15.8333 19.7376 15.3007 19.8176 14.7012Z" fill="#1491CE"/>
<path d="M24.1824 19.2988L23.6713 23.1322C23.6051 23.629 23.1813 24 22.6801 24L21.32 24C20.8188 24 20.395 23.629 20.3288 23.1322L19.8177 19.2988C19.7377 18.6993 20.2041 18.1667 20.8089 18.1667L23.1912 18.1667C23.796 18.1667 24.2623 18.6993 24.1824 19.2988Z" fill="#1491CE"/>
<path d="M19.7012 19.1824L15.8678 18.6713C15.371 18.6051 15 18.1813 15 17.6801L15 16.32C15 15.8188 15.371 15.395 15.8678 15.3288L19.7012 14.8177C20.3007 14.7377 20.8333 15.2041 20.8333 15.8089L20.8333 18.1912C20.8333 18.796 20.3007 19.2624 19.7012 19.1824Z" fill="#1491CE"/>
<path d="M24.2988 14.8176L28.1322 15.3288C28.629 15.395 29 15.8188 29 16.32L29 17.6801C29 18.1813 28.629 18.605 28.1322 18.6713L24.2988 19.1824C23.6993 19.2623 23.1667 18.796 23.1667 18.1912L23.1667 15.8089C23.1667 15.2041 23.6993 14.7377 24.2988 14.8176Z" fill="#1491CE"/>
<path d="M21.9177 20.1687L18.8457 22.5179C18.4476 22.8223 17.8855 22.785 17.5311 22.4306L16.5694 21.4689C16.215 21.1145 16.1777 20.5525 16.4822 20.1543L18.8313 17.0824C19.1987 16.6019 19.9051 16.555 20.3328 16.9827L22.0173 18.6672C22.445 19.0949 22.3981 19.8013 21.9177 20.1687Z" fill="#1491CE"/>
<path d="M22.0824 13.8313L25.1544 11.4821C25.5525 11.1777 26.1145 11.215 26.4689 11.5694L27.4306 12.5311C27.785 12.8855 27.8223 13.4475 27.5179 13.8457L25.1687 16.9176C24.8013 17.3981 24.0949 17.445 23.6673 17.0173L21.9827 15.3328C21.5551 14.9051 21.602 14.1987 22.0824 13.8313Z" fill="#1491CE"/>
<path d="M25.1687 17.0823L27.5179 20.1543C27.8223 20.5524 27.785 21.1145 27.4306 21.4689L26.4689 22.4306C26.1145 22.785 25.5525 22.8223 25.1543 22.5178L22.0824 20.1687C21.6019 19.8013 21.555 19.0949 21.9827 18.6672L23.6672 16.9827C24.0949 16.555 24.8013 16.6019 25.1687 17.0823Z" fill="#1491CE"/>
<path d="M18.8313 16.9176L16.4821 13.8456C16.1777 13.4475 16.215 12.8855 16.5694 12.5311L17.5311 11.5694C17.8855 11.215 18.4475 11.1777 18.8457 11.4821L21.9176 13.8313C22.3981 14.1987 22.445 14.9051 22.0173 15.3327L20.3328 17.0173C19.9051 17.4449 19.1987 17.398 18.8313 16.9176Z" fill="#1491CE"/>
<circle cx="22" cy="17" r="2.33333" fill="white"/>
</svg>
