<svg width="24" height="20" viewBox="0 0 24 20" fill="none" xmlns="http://www.w3.org/2000/svg">
<path d="M22.2411 11.2355C23.2624 11.0384 24 10.2502 24 9.31429C24 8.23055 23.0355 7.39312 21.844 7.34386H15.7163C15.7163 7.34386 16.7376 1.03847 13.9007 0.102514C13.3901 -0.0945297 12.8227 0.00399179 12.3688 0.299557C11.0071 1.23551 11.9716 3.60003 11.1773 5.07786C9.92908 7.2946 8.68085 7.98425 8.22695 8.18129C8.11347 8.23055 8 8.32907 8 8.47686V18.3783C8 18.6738 8.28369 18.9694 8.62411 19.2157C9.30496 19.7083 10.0993 19.9546 11.0071 19.9546H19.1773C20.0284 19.9546 20.6525 19.3635 20.6525 18.6246C20.6525 18.2305 20.4823 17.8857 20.1986 17.6394C21.2766 17.5901 22.0709 16.8512 22.0709 15.9152C22.0709 15.4226 21.844 14.9793 21.4468 14.6345H21.5035C22.5248 14.6345 23.3759 13.8463 23.3759 12.9103C23.4326 12.1222 22.922 11.4818 22.2411 11.2355Z" fill="white"/>
<path d="M5.20408 19.9546H0.795918C0.367347 19.9546 0 19.6484 0 19.2912V7.60419C0 7.24694 0.367347 6.94073 0.795918 6.94073H5.20408C5.63265 6.94073 6 7.24694 6 7.60419V19.2912C6 19.6484 5.63265 19.9546 5.20408 19.9546Z" fill="#409AD6"/>
</svg>
