<svg width="60" height="30" viewBox="0 0 60 30" fill="none" xmlns="http://www.w3.org/2000/svg">
<path fill-rule="evenodd" clip-rule="evenodd" d="M3 1C1.89543 1 1 1.89543 1 3V27C1 28.1046 1.89543 29 3 29H57C58.1046 29 59 28.1046 59 27V3C59 1.89543 58.1046 1 57 1H3ZM4 2C2.89543 2 2 2.89543 2 4V26C2 27.1046 2.89543 28 4 28H56C57.1046 28 58 27.1046 58 26V4C58 2.89543 57.1046 2 56 2H4Z" fill="#FA4852"/>
<path d="M12.3896 14.7485C12.3896 15.2319 12.3262 15.6982 12.1992 16.1475C12.0771 16.5918 11.9014 17.0093 11.6719 17.3999C11.4424 17.7856 11.1689 18.1396 10.8516 18.4619C10.5342 18.7793 10.1802 19.0527 9.78955 19.2822C9.39893 19.5117 8.979 19.6899 8.52979 19.8169C8.08545 19.939 7.62158 20 7.13818 20H3.97412V9.49707H7.13818C7.62158 9.49707 8.08545 9.56055 8.52979 9.6875C8.979 9.80957 9.39893 9.98535 9.78955 10.2148C10.1802 10.4443 10.5342 10.7202 10.8516 11.0425C11.1689 11.3599 11.4424 11.7139 11.6719 12.1045C11.9014 12.4902 12.0771 12.9077 12.1992 13.3569C12.3262 13.8013 12.3896 14.2651 12.3896 14.7485ZM10.2876 14.7485C10.2876 14.314 10.2046 13.9062 10.0386 13.5254C9.87744 13.1445 9.65283 12.8125 9.36475 12.5293C9.08154 12.2412 8.74707 12.0142 8.36133 11.8481C7.98047 11.6821 7.57275 11.5991 7.13818 11.5991H6.09082V17.8979H7.13818C7.57275 17.8979 7.98047 17.8174 8.36133 17.6562C8.74707 17.4902 9.08154 17.2656 9.36475 16.9824C9.65283 16.6943 9.87744 16.3599 10.0386 15.979C10.2046 15.5933 10.2876 15.1831 10.2876 14.7485ZM20.9883 20H13.7886V9.49707H20.9883V11.5991H15.8906V13.7012H19.3403V15.8032H15.8906V17.8979H20.9883V20ZM29.814 20H22.4604V9.49707H24.5625V17.8979H29.814V20ZM38.1123 20H30.9126V9.49707H38.1123V11.5991H33.0146V13.7012H36.4644V15.8032H33.0146V17.8979H38.1123V20ZM43.9937 20H41.8989V11.5991H38.7422V9.49707H47.1431V11.5991H43.9937V20ZM55.4561 20H48.2563V9.49707H55.4561V11.5991H50.3584V13.7012H53.8081V15.8032H50.3584V17.8979H55.4561V20Z" fill="#FA4852"/>
</svg>
