<svg width="60" height="30" viewBox="0 0 60 30" fill="none" xmlns="http://www.w3.org/2000/svg">
<path fill-rule="evenodd" clip-rule="evenodd" d="M3 1C1.89543 1 1 1.89543 1 3V27C1 28.1046 1.89543 29 3 29H57C58.1046 29 59 28.1046 59 27V3C59 1.89543 58.1046 1 57 1H3ZM4 2C2.89543 2 2 2.89543 2 4V26C2 27.1046 2.89543 28 4 28H56C57.1046 28 58 27.1046 58 26V4C58 2.89543 57.1046 2 56 2H4Z" fill="#5A86D4"/>
<path d="M18.0781 24H6.55859V7.19531H18.0781V10.5586H9.92188V13.9219H15.4414V17.2852H9.92188V20.6367H18.0781V24ZM33.8984 15.5977C33.8984 16.3711 33.7969 17.1172 33.5938 17.8359C33.3984 18.5469 33.1172 19.2148 32.75 19.8398C32.3828 20.457 31.9453 21.0234 31.4375 21.5391C30.9297 22.0469 30.3633 22.4844 29.7383 22.8516C29.1133 23.2188 28.4414 23.5039 27.7227 23.707C27.0117 23.9023 26.2695 24 25.4961 24H20.4336V7.19531H25.4961C26.2695 7.19531 27.0117 7.29688 27.7227 7.5C28.4414 7.69531 29.1133 7.97656 29.7383 8.34375C30.3633 8.71094 30.9297 9.15234 31.4375 9.66797C31.9453 10.1758 32.3828 10.7422 32.75 11.3672C33.1172 11.9844 33.3984 12.6523 33.5938 13.3711C33.7969 14.082 33.8984 14.8242 33.8984 15.5977ZM30.5352 15.5977C30.5352 14.9023 30.4023 14.25 30.1367 13.6406C29.8789 13.0312 29.5195 12.5 29.0586 12.0469C28.6055 11.5859 28.0703 11.2227 27.4531 10.957C26.8438 10.6914 26.1914 10.5586 25.4961 10.5586H23.8203V20.6367H25.4961C26.1914 20.6367 26.8438 20.5078 27.4531 20.25C28.0703 19.9844 28.6055 19.625 29.0586 19.1719C29.5195 18.7109 29.8789 18.1758 30.1367 17.5664C30.4023 16.9492 30.5352 16.293 30.5352 15.5977ZM39.5 24H36.1367V7.19531H39.5V24ZM49.6836 24H46.332V10.5586H41.2812V7.19531H54.7227V10.5586H49.6836V24Z" fill="#5A86D4"/>
</svg>
