<svg width="17" height="20" viewBox="0 0 17 20" fill="none" xmlns="http://www.w3.org/2000/svg">
<path fill-rule="evenodd" clip-rule="evenodd" d="M0.799988 0C0.358185 0 0 0.35817 0 0.800003V19.2C0 19.6418 0.358185 20 0.799988 20H16.2C16.6418 20 17 19.6418 17 19.2V0.800003C17 0.35817 16.6418 0 16.2 0H0.799988ZM2.5 2C2.22385 2 2 2.22385 2 2.5V4.5C2 4.77615 2.22385 5 2.5 5H14.5C14.7762 5 15 4.77615 15 4.5V2.5C15 2.22385 14.7762 2 14.5 2H2.5ZM2 7.5C2 7.22385 2.22385 7 2.5 7H4.5C4.77615 7 5 7.22385 5 7.5V8.5C5 8.77615 4.77615 9 4.5 9H2.5C2.22385 9 2 8.77615 2 8.5V7.5ZM2.5 10C2.22385 10 2 10.2239 2 10.5V11.5C2 11.7761 2.22385 12 2.5 12H4.5C4.77615 12 5 11.7761 5 11.5V10.5C5 10.2239 4.77615 10 4.5 10H2.5ZM2 13.5C2 13.2239 2.22385 13 2.5 13H4.5C4.77615 13 5 13.2239 5 13.5V14.5C5 14.7761 4.77615 15 4.5 15H2.5C2.22385 15 2 14.7761 2 14.5V13.5ZM2.5 16C2.22385 16 2 16.2239 2 16.5V17.5C2 17.7761 2.22385 18 2.5 18H4.5C4.77615 18 5 17.7761 5 17.5V16.5C5 16.2239 4.77615 16 4.5 16H2.5ZM12 7.5C12 7.22385 12.2238 7 12.5 7H14.5C14.7762 7 15 7.22385 15 7.5V8.5C15 8.77615 14.7762 9 14.5 9H12.5C12.2238 9 12 8.77615 12 8.5V7.5ZM12.5 10C12.2238 10 12 10.2239 12 10.5V11.5C12 11.7761 12.2238 12 12.5 12H14.5C14.7762 12 15 11.7761 15 11.5V10.5C15 10.2239 14.7762 10 14.5 10H12.5ZM12 13.5C12 13.2239 12.2238 13 12.5 13H14.5C14.7762 13 15 13.2239 15 13.5V14.5C15 14.7761 14.7762 15 14.5 15H12.5C12.2238 15 12 14.7761 12 14.5V13.5ZM12.5 16C12.2238 16 12 16.2239 12 16.5V17.5C12 17.7761 12.2238 18 12.5 18H14.5C14.7762 18 15 17.7761 15 17.5V16.5C15 16.2239 14.7762 16 14.5 16H12.5ZM7 7.5C7 7.22385 7.22385 7 7.5 7H9.5C9.77615 7 10 7.22385 10 7.5V8.5C10 8.77615 9.77615 9 9.5 9H7.5C7.22385 9 7 8.77615 7 8.5V7.5ZM7.5 10C7.22385 10 7 10.2239 7 10.5V11.5C7 11.7761 7.22385 12 7.5 12H9.5C9.77615 12 10 11.7761 10 11.5V10.5C10 10.2239 9.77615 10 9.5 10H7.5ZM7 13.5C7 13.2239 7.22385 13 7.5 13H9.5C9.77615 13 10 13.2239 10 13.5V14.5C10 14.7761 9.77615 15 9.5 15H7.5C7.22385 15 7 14.7761 7 14.5V13.5ZM7.5 16C7.22385 16 7 16.2239 7 16.5V17.5C7 17.7761 7.22385 18 7.5 18H9.5C9.77615 18 10 17.7761 10 17.5V16.5C10 16.2239 9.77615 16 9.5 16H7.5Z" />
</svg>
