<svg width="19" height="19" viewBox="0 0 19 19" fill="none" xmlns="http://www.w3.org/2000/svg">
<ellipse cx="1.5" cy="2" rx="1.5" ry="2" />
<circle cx="5" cy="3" r="1" />
<ellipse cx="4" cy="6.5" rx="2" ry="1.5" />
<path d="M10.2032 4.47427C10.3371 4.23275 10.6414 4.14549 10.8829 4.27936L17.0053 7.67303C17.2468 7.80691 17.334 8.11122 17.2002 8.35274L15.9881 10.5393L8.99119 6.66082L10.2032 4.47427Z" />
<rect x="8.8317" y="6.92355" width="8.01845" height="2" transform="rotate(29 8.8317 6.92355)" />
<path d="M15.1628 0.514398C15.2967 0.272878 15.601 0.185616 15.8425 0.319492L17.5917 1.28911C17.8333 1.42299 17.9205 1.72731 17.7866 1.96883L15.3575 6.35108L12.7337 4.89665L15.1628 0.514398Z" />
<path d="M7.87977 9.61815C5.50136 12.2227 1.06998 11.6893 1.06998 11.6893C1.06998 11.6893 1.24033 14.1597 2.90804 14.4919C4.60196 14.0353 7.77836 12.8167 7.77836 12.8167C7.77836 12.8167 6.2033 14.6579 3.84155 15.4363C1.4798 16.2147 1.8673 15.7615 1.88763 16.2892C1.90796 16.8169 4.9349 18.748 6.67109 17.3556C8.40728 15.9631 9.84111 15.6663 10.1411 14.2638C10.7531 14.5742 9.34432 16.4031 8.61053 16.9596C7.87673 17.5162 9.99631 18.8331 11.9647 17.5233C13.933 16.2135 13.793 15.0269 14.0345 13.015L7.87977 9.61815Z" />

</svg>
