<svg width="18" height="18" viewBox="0 0 18 18" fill="none" xmlns="http://www.w3.org/2000/svg">
<rect width="3" height="3" fill="#1491CE"/>
<rect y="5" width="3" height="3" fill="#1491CE"/>
<rect y="10" width="3" height="3" fill="#1491CE"/>
<rect y="15" width="3" height="3" fill="#1491CE"/>
<path d="M15.5993 14.804H15.1822L15.0344 14.6616C15.6679 13.9229 15.9952 12.9152 15.8157 11.8441C15.5676 10.3774 14.3429 9.2061 12.8647 9.02671C10.6316 8.75235 8.75221 10.6306 9.02673 12.8624C9.20622 14.3397 10.3782 15.5638 11.8458 15.8117C12.9175 15.9911 13.9258 15.664 14.6649 15.0309L14.8074 15.1786V15.5954L17.0511 17.8378C17.2675 18.0541 17.6212 18.0541 17.8377 17.8378C18.0541 17.6214 18.0541 17.2679 17.8377 17.0516L15.5993 14.804ZM12.4318 14.804C11.1173 14.804 10.0562 13.7435 10.0562 12.4298C10.0562 11.116 11.1173 10.0555 12.4318 10.0555C13.7463 10.0555 14.8074 11.116 14.8074 12.4298C14.8074 13.7435 13.7463 14.804 12.4318 14.804Z" fill="#1491CE"/>
<rect x="5" y="1" width="13" height="1" fill="#1491CE"/>
<rect x="5" y="6" width="13" height="1" fill="#1491CE"/>
<rect x="5" y="11" width="3" height="1" fill="#1491CE"/>
<rect x="5" y="16" width="5" height="1" fill="#1491CE"/>
</svg>
