<svg width="22" height="18" viewBox="0 0 22 18" fill="none" xmlns="http://www.w3.org/2000/svg">
<g clip-path="url(#clip0_15_24)">
<path d="M2.5 7.5C2.5 9.95 4.26 11.97 6.58 12.41L5.09 10.92L6.5 9.5L10.5 13.51L6.5 17.5L5.09 16.09L6.67 14.51V14.45C3.2 14.04 0.5 11.08 0.5 7.5C0.5 3.63 3.63 0.5 7.5 0.5H10.5V2.5H7.5C4.74 2.5 2.5 4.74 2.5 7.5Z" />
<path d="M21.5 7.5V0.5H12.5V7.5H21.5ZM19.5 5.5H14.5V2.5H19.5V5.5Z" />
<path d="M21.5 9.5H12.5V16.5H21.5V9.5Z" />
</g>
<defs>
<clipPath id="clip0_15_24">
<rect width="22" height="18" fill="white"/>
</clipPath>
</defs>
</svg>
