<svg width="18" height="18" viewBox="0 0 18 18" fill="none" xmlns="http://www.w3.org/2000/svg">
<g clip-path="url(#clip0_4_9)">
<path fill-rule="evenodd" clip-rule="evenodd" d="M11.6179 13.5714C10.6786 14.4764 9.47549 15 8.23488 15C5.52815 15 3 12.5076 3 9C3 5.49238 5.52815 3 8.23488 3C10.6372 3 12.8988 4.96329 13.3772 7.85715H15.3965C14.895 3.98024 11.8797 1 8.23488 1C4.23916 1 1 4.58172 1 9C1 13.4183 4.23916 17 8.23488 17C10.6934 17 12.8656 15.644 14.173 13.5714H11.6179Z" />
<path d="M15.4705 11.0111L9.51827 6.46398L17.3636 3.29018L15.4705 11.0111Z" />
</g>
<defs>
<clipPath id="clip0_4_9">
<rect width="18" height="18" fill="white"/>
</clipPath>
</defs>
</svg>
