<svg width="18" height="18" viewBox="0 0 18 18" fill="none" xmlns="http://www.w3.org/2000/svg">
<path d="M12.9765 11.4713H12.1865L11.9065 11.2013C13.1065 9.80133 13.7265 7.89133 13.3865 5.86133C12.9165 3.08133 10.5965 0.861329 7.79646 0.521329C3.56646 0.00132874 0.00645569 3.56133 0.526456 7.79133C0.866456 10.5913 3.08646 12.9113 5.86646 13.3813C7.89646 13.7213 9.80646 13.1013 11.2065 11.9013L11.4765 12.1813V12.9713L15.7265 17.2213C16.1365 17.6313 16.8065 17.6313 17.2165 17.2213C17.6265 16.8113 17.6265 16.1413 17.2165 15.7313L12.9765 11.4713ZM6.97646 11.4713C4.48646 11.4713 2.47646 9.46133 2.47646 6.97133C2.47646 4.48133 4.48646 2.47133 6.97646 2.47133C9.46646 2.47133 11.4765 4.48133 11.4765 6.97133C11.4765 9.46133 9.46646 11.4713 6.97646 11.4713Z" fill="white"/>
</svg>
