<svg width="535" height="233" viewBox="0 0 535 233" fill="none" xmlns="http://www.w3.org/2000/svg">
<path d="M51.6 131.7H94.2V99C94.2 84.9 95.7 63.6 96.3 49.5H95.1C89.4 62.1 83.4 75 77.1 87.6L51.6 131.7ZM168.9 131.7V172.2H144V228H94.2V172.2H0.600001V135.3L78.3 4.79999H144V131.7H168.9ZM268.013 232.2C220.912 232.2 189.113 192 189.113 115.2C189.113 38.4 220.912 0.599995 268.013 0.599995C315.113 0.599995 347.213 39 347.213 115.2C347.213 192 315.113 232.2 268.013 232.2ZM268.013 190.8C283.913 190.8 296.813 176.4 296.813 115.2C296.813 54.3 283.913 41.7 268.013 41.7C252.113 41.7 239.513 54.3 239.513 115.2C239.513 176.4 252.113 190.8 268.013 190.8ZM417.225 131.7H459.825V99C459.825 84.9 461.325 63.6 461.925 49.5H460.725C455.025 62.1 449.025 75 442.725 87.6L417.225 131.7ZM534.525 131.7V172.2H509.625V228H459.825V172.2H366.225V135.3L443.925 4.79999H509.625V131.7H534.525Z" fill="#8AE3FF"/>
</svg>
