<svg width="300" height="263" viewBox="0 0 300 263" fill="none" xmlns="http://www.w3.org/2000/svg">
<path d="M248.733 86.0808C246.887 89.3501 244.36 91.4001 241.143 92.2307C237.936 93.0612 234.693 92.5576 231.424 90.7109C228.154 88.8642 226.034 86.3371 225.062 83.1384C224.09 79.9398 224.523 76.7058 226.369 73.4365C228.216 70.1672 230.761 68.1261 234.004 67.3132C237.247 66.5002 240.507 67.0127 243.768 68.8595C247.037 70.7062 249.14 73.2244 250.076 76.4054C251.013 79.5864 250.562 82.8115 248.716 86.0808H248.733ZM255.546 68.7799L237.989 58.8483L239.429 56.2947C240.887 53.7057 242.672 51.3907 244.775 49.3496C246.878 47.3085 249.511 45.7003 252.692 44.5251C255.298 43.5708 257.843 42.7668 260.326 42.1041C262.809 41.4414 265.106 40.761 267.201 40.063C269.304 39.3649 271.141 38.5697 272.732 37.6684C274.314 36.7671 275.498 35.6361 276.266 34.2754C277.768 31.6246 278.148 29.1947 277.424 26.9857C276.69 24.7767 275.109 22.983 272.661 21.5957C269.533 19.8285 266.573 19.7667 263.79 21.4278C261.007 23.089 258.541 25.7398 256.403 29.3714L238.333 16.0555C240.719 12.4681 243.573 9.41088 246.887 6.88378C250.2 4.35669 253.761 2.50996 257.569 1.33478C261.378 0.168425 265.354 -0.238029 269.498 0.133082C273.642 0.504194 277.76 1.83843 281.842 4.15346C286.401 6.73357 290.068 9.61411 292.851 12.8039C295.635 15.9937 297.596 19.3514 298.745 22.8769C299.894 26.4025 300.256 29.9722 299.823 33.595C299.39 37.2178 298.197 40.761 296.236 44.2335C294.884 46.6193 293.311 48.572 291.5 50.1095C289.688 51.6469 287.656 52.9723 285.412 54.0768C283.167 55.1902 280.72 56.1356 278.069 56.9309C275.418 57.7261 272.546 58.5479 269.463 59.4049C268.075 59.7937 266.706 60.2709 265.345 60.8452C263.984 61.4195 262.712 62.0469 261.519 62.7273C260.326 63.3988 259.292 64.1234 258.418 64.8833C257.534 65.6432 256.907 66.3677 256.527 67.0481L255.546 68.7799Z" fill="black"/>
<path d="M119.463 262.385C185.44 262.385 238.925 251.359 238.925 237.759C238.925 224.158 185.44 213.133 119.463 213.133C53.4853 213.133 0 224.158 0 237.759C0 251.359 53.4853 262.385 119.463 262.385Z" fill="black"/>
<path d="M148.913 89.413C139.671 86.7269 129.606 84.4737 118.782 82.6358C115.566 82.088 112.279 81.5843 108.921 81.1072C103.805 80.3915 98.9191 80.0469 94.2625 80.0469C45.1167 80.0469 21.772 118.43 21.772 156.443C21.772 189.613 39.1966 217.774 76.5375 227.829C86.0362 230.391 96.8073 231.77 108.921 231.77C127.654 231.77 145.282 228.456 160.647 222.624C194.304 209.865 217.145 185.01 217.145 156.452C217.145 123.909 191.971 101.951 148.913 89.4307V89.413Z" fill="#369CD8"/>
<path d="M94.2625 80.0379C98.9191 80.0379 103.805 80.3825 108.921 81.0982C112.279 81.5753 115.566 82.079 118.782 82.6268C129.606 84.4647 139.671 86.7179 148.913 89.404C191.962 101.925 217.145 123.873 217.145 156.425C217.145 184.983 194.304 209.839 160.647 222.598C145.282 228.43 127.663 231.743 108.921 231.743C96.8161 231.743 86.0362 230.365 76.5375 227.802C39.1877 217.747 21.772 189.587 21.772 156.416C21.772 118.413 45.1167 80.029 94.2625 80.0202M94.2625 69.417C68.3288 69.417 46.61 79.0217 31.4562 97.1709C18.3789 112.837 11.1776 133.876 11.1776 156.407C11.1776 175.608 16.5057 193.103 26.5788 206.993C37.5354 222.103 53.4225 232.547 73.7983 238.025C84.3838 240.879 96.2064 242.329 108.939 242.329C128.29 242.329 147.482 238.927 164.429 232.494C203.493 217.685 227.766 188.526 227.766 156.407C227.766 137.534 220.608 121.152 206.506 107.712C193.853 95.6599 175.474 86.064 151.9 79.2073C142.366 76.4328 131.824 74.0647 120.585 72.1562C117.475 71.626 114.143 71.1047 110.441 70.5833C104.883 69.8058 99.4581 69.417 94.289 69.417H94.2625Z" fill="#389DD0"/>
<path d="M148.913 89.414C139.671 86.7279 129.606 84.4747 118.782 82.6368C115.566 82.089 112.279 81.5853 108.921 81.1082C103.805 80.3925 98.9191 80.0479 94.2625 80.0479C45.1167 80.0479 21.772 118.431 21.772 156.444C21.772 189.614 39.1966 217.775 76.5375 227.83C86.0362 230.392 96.8073 231.771 108.921 231.771C127.654 231.771 145.282 228.457 160.647 222.625C194.304 209.866 217.145 185.011 217.145 156.453C217.145 123.91 191.971 101.952 148.913 89.4317V89.414Z" fill="#369CD8"/>
<path d="M94.2625 80.0386C98.9191 80.0386 103.805 80.3832 108.921 81.0989C112.279 81.5761 115.566 82.0797 118.782 82.6275C129.607 84.4654 139.671 86.7186 148.913 89.4047C191.962 101.925 217.145 123.874 217.145 156.426C217.145 184.984 194.304 209.839 160.647 222.599C145.282 228.43 127.663 231.744 108.921 231.744C96.8161 231.744 86.0362 230.365 76.5375 227.803C39.1878 217.748 21.772 189.587 21.772 156.417C21.772 118.413 45.1167 80.0298 94.2625 80.0209M94.2625 77.3701C70.7588 77.3701 51.1517 85.9852 37.5531 102.27C25.6687 116.505 19.1212 135.732 19.1212 156.417C19.1212 173.93 23.9192 189.808 33.0026 202.329C42.8635 215.927 57.275 225.355 75.8483 230.357C85.7623 233.025 96.8868 234.386 108.921 234.386C127.318 234.386 145.529 231.161 161.584 225.064C197.485 211.456 219.787 185.143 219.787 156.417C219.787 139.805 213.46 125.358 200.993 113.483C189.267 102.314 171.993 93.3544 149.647 86.86C140.404 84.1738 130.163 81.8676 119.224 80.0121C116.176 79.4908 112.924 78.9871 109.293 78.4658C104.124 77.7412 99.0605 77.379 94.2625 77.379V77.3701Z" fill="#231815"/>
<path d="M108.029 185.027C116.135 185.027 122.706 178.456 122.706 170.35C122.706 162.245 116.135 155.674 108.029 155.674C99.9233 155.674 93.3524 162.245 93.3524 170.35C93.3524 178.456 99.9233 185.027 108.029 185.027Z" fill="#EB6619"/>
<path d="M61.5516 185.027C69.6572 185.027 76.2282 178.456 76.2282 170.35C76.2282 162.245 69.6572 155.674 61.5516 155.674C53.4459 155.674 46.875 162.245 46.875 170.35C46.875 178.456 53.4459 185.027 61.5516 185.027Z" fill="#EB6619"/>
<path d="M70.9885 165.862C76.2003 165.862 80.4253 159.168 80.4253 150.911C80.4253 142.655 76.2003 135.961 70.9885 135.961C65.7767 135.961 61.5516 142.655 61.5516 150.911C61.5516 159.168 65.7767 165.862 70.9885 165.862Z" fill="white"/>
<path d="M70.9885 135.96C76.2018 135.96 80.4254 142.658 80.4254 150.911C80.4254 159.164 76.2018 165.861 70.9885 165.861C65.7753 165.861 61.5517 159.164 61.5517 150.911C61.5517 142.658 65.7753 135.96 70.9885 135.96ZM70.9885 133.31C64.2113 133.31 58.9009 141.041 58.9009 150.911C58.9009 160.781 64.2113 168.512 70.9885 168.512C77.7657 168.512 83.0762 160.781 83.0762 150.911C83.0762 141.041 77.7657 133.31 70.9885 133.31Z" fill="#231815"/>
<path d="M95.4023 165.862C100.614 165.862 104.839 159.168 104.839 150.911C104.839 142.655 100.614 135.961 95.4023 135.961C90.1905 135.961 85.9655 142.655 85.9655 150.911C85.9655 159.168 90.1905 165.862 95.4023 165.862Z" fill="white"/>
<path d="M95.4023 135.96C100.616 135.96 104.839 142.658 104.839 150.911C104.839 159.164 100.616 165.861 95.4023 165.861C90.1891 165.861 85.9655 159.164 85.9655 150.911C85.9655 142.658 90.1891 135.96 95.4023 135.96ZM95.4023 133.31C88.6251 133.31 83.3147 141.041 83.3147 150.911C83.3147 160.781 88.6251 168.512 95.4023 168.512C102.18 168.512 107.49 160.781 107.49 150.911C107.49 141.041 102.18 133.31 95.4023 133.31Z" fill="#231815"/>
<path d="M95.4995 145.238L101.967 147.544C101.216 151.635 98.5391 154.524 95.4995 154.524C91.8414 154.524 88.8284 150.336 88.8284 145.247C88.8284 140.157 91.8414 135.969 95.4995 135.969C98.3182 135.969 100.845 138.452 101.791 142.145L95.4995 145.255V145.238Z" fill="#040000"/>
<path d="M92.2126 185.893C91.8415 185.893 91.4703 185.743 91.2141 185.433C90.41 184.506 86.0627 179.911 79.8422 180.503C77.0235 180.768 74.8498 182.005 73.5244 183.003C72.9413 183.445 72.1107 183.322 71.6689 182.738C71.2271 182.155 71.3508 181.325 71.934 180.883C74.2313 179.169 76.8733 178.126 79.5948 177.87C87.123 177.163 92.2656 182.606 93.2199 183.701C93.697 184.249 93.644 185.089 93.0873 185.575C92.8399 185.796 92.5307 185.902 92.2214 185.902L92.2126 185.893Z" fill="#040000"/>
<path d="M82.0688 175.431C80.7876 175.431 79.5329 174.962 78.5609 174.105C77.4918 173.16 76.8644 171.835 76.8291 170.465C76.8026 169.06 77.4034 167.682 78.4814 166.683C79.5948 165.649 81.0969 165.155 82.599 165.305C83.3235 165.375 83.8537 166.029 83.783 166.754C83.7123 167.487 83.0673 168.009 82.3339 167.938C81.5917 167.858 80.8318 168.115 80.2751 168.627C79.7538 169.113 79.4622 169.758 79.4799 170.403C79.4887 171.03 79.798 171.658 80.3105 172.108C80.876 172.603 81.5917 172.842 82.3339 172.762C83.0585 172.692 83.7123 173.222 83.783 173.946C83.8537 174.671 83.3235 175.325 82.599 175.395C82.4223 175.413 82.2456 175.422 82.0688 175.422V175.431Z" fill="#040000"/>
<path d="M71.0857 145.238L77.5537 147.544C76.8026 151.635 74.1253 154.524 71.0857 154.524C67.4276 154.524 64.4146 150.336 64.4146 145.247C64.4146 140.157 67.4276 135.969 71.0857 135.969C73.9044 135.969 76.4315 138.452 77.377 142.145L71.0857 145.255V145.238Z" fill="#040000"/>
<path d="M85.1349 150.116H81.2294V151.839H85.1349V150.116Z" fill="black"/>
<path d="M54.4741 83.9607C57.0188 70.3621 68.7354 31.4926 120.002 33.8872C174.06 36.4142 199.632 64.9899 191.83 108.728H191.838C191.838 108.728 195.249 110.327 194.401 113.393C194.401 113.393 193.235 115.876 189.85 115.673C189.85 115.673 181.156 115.373 170.694 113.526C142.127 110.027 88.4043 102.189 56.6212 89.8544C55.7818 89.9339 54.8364 89.6865 53.7937 88.7587C50.0031 85.401 54.4741 83.9431 54.4741 83.9431V83.9607Z" fill="#F9C200"/>
<path d="M190.248 116.954C190.098 116.954 189.939 116.954 189.78 116.936C189.718 116.936 180.908 116.609 170.473 114.771C141.579 111.228 88.307 103.444 56.4179 91.135C55.2251 91.1615 54.0499 90.6844 52.9631 89.7124C51.4344 88.3605 50.7982 86.9998 51.0721 85.6744C51.3637 84.2871 52.5654 83.4654 53.3695 83.0678C54.7744 75.9548 58.4944 63.0719 68.0196 52.1064C80.1426 38.1367 97.6467 31.5892 120.055 32.6319C148.825 33.975 170.526 42.8198 182.808 58.2033C192.987 70.9448 196.574 88.1838 193.217 108.082C194.675 109.081 196.354 111.051 195.611 113.729C195.594 113.799 195.567 113.87 195.541 113.932C195.479 114.056 194.074 116.945 190.248 116.945V116.954ZM56.63 88.6256C56.7802 88.6256 56.9392 88.6521 57.0806 88.714C88.687 100.978 141.933 108.763 170.853 112.306C181.165 114.117 189.815 114.444 189.903 114.444C192.095 114.577 193.031 113.296 193.234 112.96C193.632 111.175 191.715 110.079 191.361 109.894C191.246 109.85 191.14 109.779 191.034 109.699C190.69 109.408 190.522 108.966 190.601 108.524C194.136 88.7051 190.858 72.3055 180.855 59.7761C169.033 44.9758 147.977 36.4579 119.949 35.1501C70.6792 32.8528 58.6092 68.6916 55.711 84.2076C55.6404 84.5964 55.393 84.9233 55.0395 85.1C54.9688 85.1354 54.907 85.1619 54.8363 85.1796C54.3326 85.3563 53.6169 85.8069 53.5374 86.2045C53.4844 86.4873 53.7406 87.0616 54.6331 87.8569C55.5078 88.6344 56.1263 88.6786 56.5151 88.6433C56.5505 88.6433 56.5946 88.6433 56.63 88.6433V88.6256Z" fill="#221613"/>
<path d="M160.912 42.9361C160.912 42.9361 102.86 31.2638 85.833 98.7708C85.833 98.7708 76.0869 97.145 62.718 92.3824C62.718 92.3824 72.5083 40.2677 120.002 33.8881C120.002 33.8881 144.239 28.3656 160.904 42.9361H160.912Z" fill="#FBDC61"/>
<path d="M85.8329 100.025C85.7622 100.025 85.6916 100.025 85.6297 100.008C85.5325 99.99 75.6185 98.3023 62.3027 93.5574C61.7195 93.3542 61.3749 92.7533 61.4898 92.1437C61.587 91.6047 64.0787 78.7306 72.4817 64.8669C80.2663 52.0282 94.7926 36.0174 119.79 32.6421C121.433 32.2798 145.025 27.3758 161.743 41.9817C162.167 42.3528 162.291 42.9713 162.043 43.475C161.796 43.9875 161.222 44.2614 160.674 44.1465C160.532 44.12 146.209 41.3544 130.057 46.7443C108.462 53.9545 93.9886 71.5558 87.0523 99.0622C86.9109 99.6277 86.4073 100.008 85.8418 100.008L85.8329 100.025ZM64.1759 91.5693C74.2048 95.0684 82.0865 96.7737 84.914 97.3304C93.9974 62.7551 114.055 49.4393 129.368 44.3586C140.607 40.6298 150.804 40.6563 156.477 41.1158C140.766 30.6186 120.505 35.0631 120.284 35.1073C120.249 35.1073 120.214 35.125 120.17 35.125C100.889 37.7139 85.5855 48.1404 74.6642 66.104C67.8163 77.3699 64.9535 88.2205 64.1759 91.5605V91.5693Z" fill="#221613"/>
<path d="M139.794 106.775C139.794 106.775 99.6524 119.941 55.1455 110.61C55.1455 110.61 22.6026 104.071 53.7936 88.7764L139.794 106.775Z" fill="#F9C200"/>
<path d="M88.3512 115.178C77.8894 115.178 66.5174 114.277 54.8804 111.838C53.3695 111.538 39.9564 108.64 39.0551 101.695C38.472 97.2061 43.1109 92.6202 53.2369 87.6543C53.4843 87.5306 53.7759 87.4953 54.041 87.5572L140.042 105.556C140.598 105.671 141.005 106.148 141.031 106.714C141.058 107.279 140.713 107.8 140.174 107.968C139.874 108.066 117.731 115.178 88.3423 115.178H88.3512ZM53.9615 90.0931C45.5496 94.2725 41.1493 98.2664 41.5469 101.368C42.1124 105.768 51.7348 108.649 55.3929 109.382C90.1449 116.663 122.564 110.027 134.537 106.952L53.9703 90.0931H53.9615Z" fill="#221613"/>
<path d="M105.458 183.241L67.0476 198.271L70.6527 183.736C71.1917 181.554 71.0503 179.301 70.2286 177.215C68.9562 173.955 66.164 171.507 62.7798 170.668C57.0011 169.236 51.1428 172.771 49.7114 178.541L45.7617 194.463C44.2861 200.419 41.7767 206.295 38.1009 212.444C36.0686 215.837 35.7328 219.893 37.1731 223.569L43.4555 239.633C47.741 250.589 60.1467 256.015 71.1033 251.729L83.5179 246.869C83.5179 246.869 83.5621 246.852 83.5886 246.843C83.6151 246.843 83.6328 246.825 83.6593 246.816L94.5629 242.549C96.4892 241.798 98.0089 240.331 98.8307 238.44C99.6613 236.549 99.7055 234.437 98.9544 232.511C98.3801 231.053 97.4169 229.86 96.2241 229.021C97.6997 228.199 98.8572 226.927 99.5376 225.363C100.368 223.472 100.412 221.36 99.6613 219.434C99.0516 217.887 98.0001 216.641 96.7101 215.793C97.7527 215.007 98.5833 213.955 99.1134 212.727C99.944 210.836 99.9882 208.724 99.2371 206.798C98.6805 205.367 97.735 204.192 96.5687 203.352L111.254 197.609C113.18 196.858 114.7 195.391 115.522 193.5C116.361 191.583 116.397 189.453 115.619 187.509C114.046 183.577 109.496 181.66 105.467 183.233L105.458 183.241ZM112.244 192.077C111.802 193.102 110.98 193.889 109.938 194.295L89.1818 202.416C88.2628 202.778 87.8122 203.812 88.1745 204.722C88.5368 205.632 89.5706 206.091 90.4807 205.729C92.6278 204.89 95.0577 205.95 95.8971 208.097C96.3036 209.14 96.2859 210.271 95.8353 211.296C95.3935 212.321 94.5717 213.107 93.5291 213.514L89.6147 215.042C88.6958 215.404 88.2452 216.438 88.6074 217.348C88.9697 218.258 90.0035 218.718 90.9136 218.356C93.0608 217.516 95.4907 218.577 96.3301 220.724C96.7366 221.766 96.7189 222.897 96.2682 223.922C95.8265 224.947 95.0047 225.734 93.9621 226.14L88.9167 228.119C87.9978 228.482 87.5471 229.516 87.9094 230.426C88.2717 231.336 89.3055 231.795 90.2156 231.433C92.3627 230.594 94.7926 231.654 95.6321 233.801C96.0385 234.844 96.0208 235.975 95.5702 237C95.1284 238.025 94.3067 238.811 93.264 239.217L82.3604 243.485C82.3604 243.485 82.3162 243.503 82.2897 243.512C82.2632 243.512 82.2455 243.529 82.219 243.538L69.8044 248.398C60.6769 251.968 50.3476 247.453 46.7778 238.325L40.4954 222.261C39.4616 219.619 39.7002 216.703 41.1581 214.265C45.0195 207.814 47.6526 201.611 49.2166 195.311L53.1663 179.389C53.7494 177.03 55.4459 175.227 57.5577 174.397C58.9008 173.866 60.4118 173.743 61.9227 174.114C64.1936 174.679 66.058 176.314 66.9151 178.496C67.4629 179.893 67.5601 181.404 67.1978 182.861L62.7622 200.737C62.6031 201.382 62.8152 202.062 63.3188 202.504C63.8225 202.946 64.5205 203.069 65.1479 202.822L106.774 186.537C108.983 185.671 111.466 186.696 112.314 188.817C112.739 189.868 112.721 191.008 112.261 192.051L112.244 192.077Z" fill="#221E1F"/>
<path d="M112.244 192.078C111.802 193.103 110.98 193.889 109.937 194.295L89.1817 202.416C88.2628 202.778 87.8122 203.812 88.1744 204.722C88.5367 205.632 89.5705 206.092 90.4806 205.729C92.6278 204.89 95.0577 205.95 95.8971 208.097C96.3035 209.14 96.2859 210.271 95.8352 211.296C95.3934 212.321 94.5717 213.107 93.529 213.514L89.6147 215.042C88.6958 215.405 88.2451 216.438 88.6074 217.349C88.9697 218.259 90.0035 218.718 90.9136 218.356C93.0607 217.516 95.4906 218.577 96.3301 220.724C96.7365 221.767 96.7188 222.898 96.2682 223.923C95.8264 224.948 95.0047 225.734 93.962 226.14L88.9166 228.12C87.9977 228.482 87.5471 229.516 87.9093 230.426C88.2716 231.336 89.3054 231.795 90.2155 231.433C92.3627 230.594 94.7926 231.654 95.632 233.801C96.0385 234.844 96.0208 235.975 95.5702 237C95.1284 238.025 94.3066 238.811 93.264 239.218L82.3603 243.485C82.3603 243.485 82.3162 243.503 82.2897 243.512C82.2631 243.512 82.2455 243.53 82.219 243.538L69.8044 248.398C60.6768 251.968 50.3475 247.453 46.7778 238.325L40.4954 222.261C39.4616 219.619 39.7002 216.704 41.1581 214.265C45.0194 207.815 47.6525 201.612 49.2165 195.312L53.1662 179.389C53.7494 177.03 55.4459 175.227 57.5577 174.397C58.9008 173.867 60.4117 173.743 61.9227 174.114C64.1935 174.68 66.0579 176.314 66.915 178.497C67.4628 179.893 67.56 181.404 67.1978 182.862L62.7621 200.737C62.6031 201.382 62.8151 202.062 63.3188 202.504C63.8224 202.946 64.5205 203.07 65.1478 202.822L106.774 186.537C108.983 185.672 111.466 186.697 112.314 188.817C112.738 189.869 112.721 191.008 112.261 192.051L112.244 192.078Z" fill="white"/>
<path d="M41.8031 140.67C41.6617 140.67 41.5115 140.653 41.3702 140.609L38.2776 139.69C36.3336 139.115 34.9729 137.295 34.9729 135.263V129.263C34.9729 127.231 36.3336 125.411 38.2776 124.836L40.2038 124.271C41.0079 124.041 41.8473 124.492 42.0859 125.296C42.1566 125.543 42.1654 125.799 42.1124 126.038C42.8016 126.179 43.3141 126.789 43.3141 127.522V139.168C43.3141 139.645 43.0843 140.096 42.7044 140.379C42.4393 140.573 42.1212 140.679 41.8031 140.679V140.67Z" fill="#FBDC61"/>
<path d="M41.8032 141.916C41.5381 141.916 41.273 141.881 41.0168 141.801L37.9242 140.882C35.4501 140.149 33.7183 137.834 33.7183 135.254V129.254C33.7183 126.674 35.4501 124.359 37.9242 123.625L39.8504 123.06C41.3172 122.636 42.8547 123.466 43.2876 124.924C43.3142 125.022 43.3407 125.119 43.3583 125.216C44.1006 125.72 44.5777 126.568 44.5777 127.504V139.15C44.5777 140.016 44.1624 140.847 43.4644 141.368C42.9872 141.722 42.404 141.916 41.812 141.916H41.8032ZM40.628 125.455C40.628 125.455 40.575 125.455 40.5485 125.463L38.6311 126.029C37.2085 126.453 36.2188 127.778 36.2188 129.254V135.254C36.2188 136.729 37.2085 138.064 38.6311 138.479L41.8032 139.407C41.8562 139.407 41.9181 139.389 41.9622 139.354C42.0329 139.301 42.0683 139.23 42.0683 139.141V127.496C42.0683 127.354 41.9622 127.257 41.865 127.239C41.5381 127.169 41.2554 126.974 41.0698 126.7C40.8843 126.418 40.8224 126.082 40.8931 125.755C40.8931 125.711 40.8931 125.667 40.8931 125.631C40.8577 125.525 40.7517 125.446 40.6368 125.446L40.628 125.455Z" fill="#221613"/>
<path d="M130.128 140.67C129.81 140.67 129.483 140.563 129.227 140.369C128.847 140.086 128.617 139.636 128.617 139.159V127.504C128.617 126.779 129.12 126.178 129.792 126.028C129.739 125.79 129.748 125.533 129.819 125.277C130.057 124.473 130.897 124.023 131.701 124.252L133.653 124.827C135.597 125.401 136.958 127.221 136.958 129.253V135.253C136.958 137.285 135.597 139.106 133.653 139.68L130.561 140.599C130.419 140.643 130.278 140.661 130.128 140.661V140.67Z" fill="#FBDC61"/>
<path d="M130.128 141.916C129.536 141.916 128.953 141.722 128.476 141.368C127.777 140.847 127.362 140.016 127.362 139.15V127.496C127.362 126.559 127.822 125.72 128.546 125.225C128.564 125.119 128.59 125.021 128.617 124.924C128.829 124.217 129.297 123.625 129.951 123.281C130.596 122.927 131.347 122.848 132.054 123.06L134.007 123.634C136.481 124.368 138.213 126.683 138.213 129.263V135.262C138.213 137.843 136.481 140.158 134.007 140.891L130.914 141.81C130.658 141.889 130.393 141.925 130.128 141.925V141.916ZM131.268 125.446C131.215 125.446 131.17 125.463 131.144 125.481C131.1 125.507 131.047 125.552 131.02 125.64C131.011 125.684 131.003 125.728 131.02 125.764C131.17 126.435 130.746 127.098 130.075 127.257C129.978 127.284 129.872 127.372 129.872 127.513V139.168C129.872 139.247 129.907 139.327 129.978 139.38C130.039 139.424 130.128 139.442 130.207 139.424L133.3 138.505C134.723 138.081 135.712 136.756 135.712 135.28V129.28C135.712 127.805 134.723 126.471 133.3 126.055L131.347 125.481C131.347 125.481 131.294 125.472 131.277 125.472L131.268 125.446Z" fill="#221613"/>
<path d="M90.1362 172.648C89.1377 172.648 88.5192 172.621 88.4397 172.621C88.0686 172.604 87.7239 172.427 87.4942 172.127L83.5269 166.931C81.3709 165.288 79.7981 166.533 79.4181 166.887L75.3005 171.985C75.1327 172.189 74.9118 172.339 74.6555 172.409C72.3935 173.037 68.9386 172.109 68.2759 171.915C62.559 170.951 57.01 169.37 51.7968 167.223C46.1594 164.899 42.0684 157.759 42.0684 150.24V130.783C42.0684 130.094 42.625 129.528 43.3231 129.528C44.0211 129.528 44.5778 130.085 44.5778 130.783V150.24C44.5778 156.681 48.0945 162.981 52.7511 164.908C57.8141 167.002 63.2041 168.53 68.7619 169.458C68.8149 169.458 68.8591 169.476 68.9121 169.494C69.7692 169.741 72.1461 170.289 73.6305 170.068L77.5184 165.261C77.5184 165.261 77.5714 165.199 77.5891 165.173C78.7642 163.962 81.8657 162.389 85.2057 165.067C85.2852 165.129 85.3559 165.199 85.4178 165.288L89.12 170.139C90.6575 170.165 94.9871 170.165 99.087 169.467C106.739 168.159 112.686 166.71 117.793 164.89C123.245 162.955 127.362 156.655 127.362 150.249V130.792C127.362 130.103 127.919 129.537 128.617 129.537C129.315 129.537 129.872 130.094 129.872 130.792V150.249C129.872 157.671 125.038 164.978 118.641 167.249C113.384 169.114 107.313 170.607 99.5112 171.932C95.9061 172.551 92.2126 172.657 90.1362 172.657V172.648Z" fill="#231815"/>
<path d="M85.0907 132.231C59.6254 132.231 40.3099 129.536 40.1243 129.51C37.9153 129.2 36.369 127.141 36.6783 124.932C36.9876 122.732 39.0287 121.177 41.2377 121.478C41.4409 121.504 60.4206 124.128 85.0907 124.128C109.761 124.128 128.741 121.513 128.926 121.486C131.144 121.195 133.194 122.732 133.503 124.932C133.812 127.15 132.266 129.2 130.057 129.51C129.872 129.536 110.627 132.231 85.0907 132.231Z" fill="#FBDC61"/>
<path d="M85.0908 133.486C59.7226 133.486 40.1332 130.774 39.9388 130.747C38.5427 130.553 37.2969 129.819 36.4486 128.688C35.5915 127.557 35.2381 126.161 35.4325 124.756C35.8389 121.876 38.5074 119.843 41.4056 120.241C41.6 120.268 60.4295 122.874 85.0908 122.874C109.752 122.874 128.564 120.268 128.758 120.241C131.665 119.861 134.343 121.885 134.749 124.756C135.156 127.655 133.132 130.341 130.234 130.747C130.039 130.774 110.609 133.486 85.0908 133.486ZM40.6899 122.698C39.3203 122.698 38.1098 123.714 37.9154 125.11C37.8094 125.852 38.0038 126.585 38.4544 127.186C38.905 127.787 39.5589 128.167 40.2923 128.273C40.4867 128.3 59.5724 130.986 85.0908 130.986C110.609 130.986 129.695 128.3 129.88 128.273C131.409 128.061 132.478 126.638 132.266 125.11C132.054 123.599 130.632 122.53 129.094 122.733C128.917 122.759 109.823 125.392 85.0908 125.392C60.3588 125.392 41.2554 122.759 41.061 122.733C40.9373 122.715 40.8048 122.706 40.6811 122.706L40.6899 122.698Z" fill="#221613"/>
</svg>
