<svg width="16" height="17" viewBox="0 0 16 17" fill="none" xmlns="http://www.w3.org/2000/svg">
<path d="M10.1733 5.61176C9.49329 5.41008 8.74662 5.24874 7.94662 5.10084C7.70662 5.0605 7.46662 5.02017 7.21329 4.99328C6.83995 4.93949 6.47995 4.9126 6.13329 4.9126C2.50662 4.9126 0.786621 7.76302 0.786621 10.6C0.786621 13.074 2.07995 15.1714 4.82662 15.9244C5.53329 16.1126 6.31995 16.2202 7.21329 16.2202C8.59995 16.2202 9.89329 15.9782 11.04 15.5345C13.52 14.5798 15.2133 12.7378 15.2133 10.6C15.2133 8.17983 13.36 6.5395 10.1733 5.61176Z" fill="#369CD8"/>
<path d="M6.13333 4.9126C6.48 4.9126 6.84 4.93949 7.21333 4.99328C7.46667 5.03361 7.70667 5.0605 7.94667 5.10084C8.74667 5.23529 9.49333 5.41008 10.1733 5.61176C13.36 6.5395 15.2133 8.17983 15.2133 10.6C15.2133 12.7244 13.52 14.5798 11.04 15.5345C9.90667 15.9647 8.6 16.2202 7.21333 16.2202C6.32 16.2202 5.52 16.1126 4.82667 15.9244C2.06667 15.1714 0.786667 13.0739 0.786667 10.6C0.786667 7.76302 2.50667 4.9126 6.13333 4.9126ZM6.13333 4.11933C4.21333 4.11933 2.61333 4.83193 1.49333 6.18992C0.533333 7.34622 0 8.91933 0 10.6C0 12.0252 0.4 13.3294 1.13333 14.3647C1.94667 15.4941 3.12 16.274 4.62667 16.6773C5.41333 16.8924 6.28 17 7.22667 17C8.65333 17 10.08 16.7445 11.32 16.2605C14.2133 15.158 16 12.9933 16 10.6C16 9.18823 15.4667 7.97815 14.4267 6.96975C13.4933 6.06891 12.1333 5.3563 10.3867 4.84538C9.68 4.6437 8.90667 4.45546 8.06667 4.32101C7.84 4.28067 7.58667 4.24034 7.32 4.2C6.92 4.14622 6.52 4.11933 6.13333 4.11933Z" fill="#389DD0"/>
<path d="M10.1733 5.61176C9.49329 5.41008 8.74662 5.24874 7.94662 5.10084C7.70662 5.0605 7.46662 5.02017 7.21329 4.99328C6.83995 4.9395 6.47995 4.9126 6.13329 4.9126C2.50662 4.9126 0.786621 7.76303 0.786621 10.6C0.786621 13.074 2.07995 15.1714 4.82662 15.9244C5.53329 16.1126 6.31995 16.2202 7.21329 16.2202C8.59995 16.2202 9.89329 15.9782 11.04 15.5345C13.52 14.5798 15.2133 12.7378 15.2133 10.6C15.2133 8.17983 13.36 6.5395 10.1733 5.61176Z" fill="#389DD0"/>
<path d="M6.13334 4.9126C6.48 4.9126 6.84 4.93949 7.21334 4.99328C7.46667 5.03361 7.70667 5.0605 7.94667 5.10084C8.74667 5.23529 9.49334 5.41008 10.1733 5.61176C13.36 6.5395 15.2133 8.17983 15.2133 10.6C15.2133 12.7244 13.52 14.5798 11.04 15.5345C9.90667 15.9647 8.6 16.2202 7.21334 16.2202C6.32 16.2202 5.52 16.1126 4.82667 15.9244C2.06667 15.1714 0.78667 13.0739 0.78667 10.6C0.78667 7.76302 2.50667 4.9126 6.13334 4.9126ZM6.13334 4.71092C4.4 4.71092 2.94667 5.3563 1.94667 6.56639C1.06667 7.62857 0.58667 9.05378 0.58667 10.6C0.58667 11.9042 0.94667 13.0874 1.61334 14.0151C2.34667 15.0235 3.41334 15.7361 4.77334 16.0992C5.50667 16.3008 6.33334 16.395 7.21334 16.395C8.57334 16.395 9.92 16.1529 11.1067 15.6958C13.76 14.6874 15.4133 12.7244 15.4133 10.5866C15.4133 9.34958 14.9467 8.27395 14.0267 7.38655C13.16 6.55294 11.88 5.88067 10.2267 5.39664C9.54667 5.19496 8.78667 5.02017 7.97334 4.88571C7.74667 4.84538 7.50667 4.80504 7.24 4.7647C6.86667 4.73781 6.49334 4.71092 6.13334 4.71092Z" fill="#231815" stroke="#221714" stroke-width="0.3715" stroke-miterlimit="10"/>
<path d="M7.16002 12.7244C7.75648 12.7244 8.24002 12.2368 8.24002 11.6353C8.24002 11.0338 7.75648 10.5462 7.16002 10.5462C6.56355 10.5462 6.08002 11.0338 6.08002 11.6353C6.08002 12.2368 6.56355 12.7244 7.16002 12.7244Z" fill="#EB6619"/>
<path d="M3.71995 12.7244C4.31642 12.7244 4.79995 12.2368 4.79995 11.6353C4.79995 11.0338 4.31642 10.5462 3.71995 10.5462C3.12349 10.5462 2.63995 11.0338 2.63995 11.6353C2.63995 12.2368 3.12349 12.7244 3.71995 12.7244Z" fill="#EB6619"/>
<path d="M4.41336 11.2992C4.79628 11.2992 5.1067 10.7995 5.1067 10.1832C5.1067 9.56686 4.79628 9.06723 4.41336 9.06723C4.03045 9.06723 3.72003 9.56686 3.72003 10.1832C3.72003 10.7995 4.03045 11.2992 4.41336 11.2992Z" fill="white"/>
<path d="M4.41335 9.06723C4.80002 9.06723 5.10669 9.56471 5.10669 10.1832C5.10669 10.8017 4.80002 11.2992 4.41335 11.2992C4.02669 11.2992 3.72002 10.8017 3.72002 10.1832C3.72002 9.57815 4.04002 9.06723 4.41335 9.06723ZM4.41335 8.87899C3.90669 8.87899 3.52002 9.45714 3.52002 10.1966C3.52002 10.9361 3.90669 11.5143 4.41335 11.5143C4.92002 11.5143 5.30669 10.9361 5.30669 10.1966C5.30669 9.45714 4.92002 8.87899 4.41335 8.87899Z" fill="#231815"/>
<path d="M6.22672 11.2992C6.60964 11.2992 6.92005 10.7995 6.92005 10.1832C6.92005 9.56686 6.60964 9.06723 6.22672 9.06723C5.8438 9.06723 5.53339 9.56686 5.53339 10.1832C5.53339 10.7995 5.8438 11.2992 6.22672 11.2992Z" fill="white"/>
<path d="M6.22665 9.06723C6.61331 9.06723 6.91998 9.56471 6.91998 10.1832C6.91998 10.8017 6.61331 11.2992 6.22665 11.2992C5.83998 11.2992 5.53331 10.8017 5.53331 10.1832C5.51998 9.57815 5.83998 9.06723 6.22665 9.06723ZM6.22665 8.87899C5.71998 8.87899 5.33331 9.45714 5.33331 10.1966C5.33331 10.9361 5.71998 11.5143 6.22665 11.5143C6.73331 11.5143 7.11998 10.9361 7.11998 10.1966C7.11998 9.45714 6.71998 8.87899 6.22665 8.87899Z" fill="#231815"/>
<path d="M6.01335 10.2908L6.49335 10.4924C6.44002 10.842 6.24002 11.084 6.01335 11.084C5.74669 11.084 5.52002 10.7345 5.52002 10.2908C5.52002 9.8605 5.74669 9.49748 6.01335 9.49748C6.22669 9.49748 6.41335 9.7126 6.48002 10.0218L6.01335 10.2908Z" fill="#040000"/>
<path d="M5.17333 12.5227C5.13333 12.5227 5.09333 12.5227 5.05333 12.5227C4.74666 12.4958 4.50666 12.3613 4.36 12.2403C4.32 12.2134 4.30666 12.1462 4.34666 12.1059C4.37333 12.0655 4.43999 12.0521 4.47999 12.0924C4.59999 12.1866 4.81333 12.3076 5.07999 12.3345C5.66666 12.3882 6.08 11.958 6.16 11.8639C6.2 11.8235 6.25333 11.8235 6.29333 11.8504C6.33333 11.8908 6.33333 11.9445 6.30666 11.9849C6.21333 12.079 5.79999 12.5227 5.17333 12.5227Z" fill="#040000"/>
<path d="M5.24 12.0118C5.14667 12.0118 5.05333 11.9714 4.98667 11.9176C4.90667 11.8504 4.86667 11.7429 4.85333 11.6487C4.85333 11.5412 4.89333 11.4471 4.97333 11.3664C5.05333 11.2857 5.16 11.2588 5.28 11.2588C5.33333 11.2588 5.37333 11.3126 5.37333 11.3664C5.37333 11.4202 5.32 11.4605 5.26667 11.4605C5.21333 11.4605 5.16 11.4739 5.12 11.5143C5.08 11.5546 5.05333 11.595 5.06667 11.6487C5.06667 11.6891 5.09333 11.7429 5.13333 11.7697C5.17333 11.8101 5.22667 11.8235 5.28 11.8235C5.33333 11.8235 5.38667 11.8639 5.38667 11.9176C5.38667 11.9714 5.34667 12.0252 5.29333 12.0252C5.26667 12.0118 5.25333 12.0118 5.24 12.0118Z" fill="#040000"/>
<path d="M4.21337 10.2908L4.69337 10.4924C4.64003 10.842 4.44003 11.084 4.21337 11.084C3.9467 11.084 3.72003 10.7345 3.72003 10.2908C3.72003 9.8605 3.9467 9.49748 4.21337 9.49748C4.4267 9.49748 4.61336 9.7126 4.68003 10.0218L4.21337 10.2908Z" fill="#040000"/>
<path d="M7.1467 11.9176C6.20003 11.9176 5.4267 11.1378 5.4267 10.1832C5.4267 9.22857 6.20003 8.44874 7.1467 8.44874C8.09336 8.44874 8.85336 9.24202 8.85336 10.1966C8.85336 11.1513 8.09336 11.9176 7.1467 11.9176ZM7.1467 8.66386C6.3067 8.66386 5.6267 9.34958 5.6267 10.1966C5.6267 11.0437 6.3067 11.7294 7.1467 11.7294C7.9867 11.7294 8.6667 11.0303 8.6667 10.1966C8.6667 9.34958 7.97336 8.66386 7.1467 8.66386Z" fill="black"/>
<path d="M3.49338 11.9176C2.54671 11.9176 1.77338 11.1378 1.77338 10.1832C1.77338 9.22857 2.54671 8.44874 3.49338 8.44874C4.44004 8.44874 5.21338 9.24202 5.21338 10.1966C5.21338 11.1513 4.44004 11.9176 3.49338 11.9176ZM3.49338 8.66386C2.65338 8.66386 1.97338 9.34958 1.97338 10.1966C1.97338 11.0437 2.65338 11.7294 3.49338 11.7294C4.33338 11.7294 5.01338 11.0437 5.01338 10.1966C5.01338 9.34958 4.33338 8.66386 3.49338 8.66386Z" fill="black"/>
<path d="M5.46667 10.1294H5.17334V10.2639H5.46667V10.1294Z" fill="black"/>
<path d="M2.38149 4.72446C2.67955 3.66559 3.93803 0.65615 8.72355 1.03233C13.7575 1.43637 16.026 3.76311 15.0987 7.17659C15.0987 7.17659 15.4133 7.31592 15.314 7.55277C15.314 7.55277 15.1981 7.74783 14.8835 7.71997C14.8835 7.71997 14.0721 7.66423 13.0951 7.48311C10.4457 7.10693 5.46145 6.28491 2.54708 5.19817C2.46428 5.19817 2.38149 5.18424 2.28214 5.10064C1.95096 4.82199 2.38149 4.72446 2.38149 4.72446Z" fill="#F9C200" stroke="#221613" stroke-width="0.5" stroke-miterlimit="10" stroke-linecap="round" stroke-linejoin="round"/>
<path d="M12.8628 1.94503C12.8628 1.94503 7.68631 0.768817 5.86496 6.22876C5.86496 6.22876 4.98624 6.05451 3.80396 5.61887C3.80396 5.61887 4.90635 1.39323 9.22008 1.04472C9.22008 1.04472 11.4249 0.696211 12.8628 1.94503Z" fill="#FBDC61" stroke="#221613" stroke-width="0.5" stroke-miterlimit="10" stroke-linecap="round" stroke-linejoin="round"/>
<path d="M10.3921 7.31079C10.3921 7.31079 6.67477 8.24724 2.65031 7.29616C2.65031 7.29616 -0.291263 6.63772 2.61798 5.48179L10.3921 7.31079Z" fill="#F9C200" stroke="#221613" stroke-width="0.5" stroke-miterlimit="10" stroke-linecap="round" stroke-linejoin="round"/>
</svg>
