<svg width="50" height="143" viewBox="0 0 50 143" fill="none" xmlns="http://www.w3.org/2000/svg">
<g clip-path="url(#clip0_3_12)">
<path d="M27.8 43.528C34.264 43.528 39.256 45.064 42.776 48.136C46.36 51.144 48.152 55.784 48.152 62.056V97H37.496L34.52 89.896H34.136C32.728 91.752 31.288 93.288 29.816 94.504C28.344 95.72 26.648 96.584 24.728 97.096C22.808 97.672 20.472 97.96 17.72 97.96C14.84 97.96 12.248 97.384 9.944 96.232C7.704 95.016 5.912 93.192 4.568 90.76C3.224 88.264 2.552 85.128 2.552 81.352C2.552 75.784 4.376 71.688 8.024 69.064C11.736 66.376 17.176 64.904 24.344 64.648L32.792 64.36V62.056C32.792 59.304 32.184 57.288 30.968 56.008C29.752 54.728 28.088 54.088 25.976 54.088C23.8 54.088 21.528 54.472 19.16 55.24C16.792 55.944 14.424 56.84 12.056 57.928L7.352 48.232C10.168 46.76 13.272 45.608 16.664 44.776C20.12 43.944 23.832 43.528 27.8 43.528ZM28.376 72.904C24.6 73.032 21.944 73.864 20.408 75.4C18.936 76.936 18.2 78.952 18.2 81.448C18.2 83.624 18.712 85.192 19.736 86.152C20.824 87.048 22.232 87.496 23.96 87.496C26.392 87.496 28.472 86.6 30.2 84.808C31.992 82.952 32.888 80.36 32.888 77.032V72.712L28.376 72.904Z" fill="#6B8FCB"/>
<path d="M42.776 48.136L42.1185 48.8894L42.1257 48.8958L42.1331 48.902L42.776 48.136ZM48.152 97V98H49.152V97H48.152ZM37.496 97L36.5737 97.3864L36.8307 98H37.496V97ZM34.52 89.896L35.4423 89.5096L35.1853 88.896H34.52V89.896ZM34.136 89.896V88.896H33.6394L33.3393 89.2916L34.136 89.896ZM29.816 94.504L30.4529 95.275L30.4529 95.275L29.816 94.504ZM24.728 97.096L24.4703 96.1298L24.4554 96.1337L24.4407 96.1382L24.728 97.096ZM9.944 96.232L9.46691 97.1109L9.48172 97.1189L9.49679 97.1264L9.944 96.232ZM4.568 90.76L3.68748 91.2341L3.69276 91.2437L4.568 90.76ZM8.024 69.064L8.60793 69.8758L8.61051 69.8739L8.024 69.064ZM24.344 64.648L24.3099 63.6486L24.3083 63.6486L24.344 64.648ZM32.792 64.36L32.8261 65.3594L33.792 65.3265V64.36H32.792ZM30.968 56.008L30.243 56.6967L30.243 56.6967L30.968 56.008ZM19.16 55.24L19.445 56.1985L19.4568 56.195L19.4685 56.1912L19.16 55.24ZM12.056 57.928L11.1563 58.3645L11.5837 59.2455L12.4735 58.8367L12.056 57.928ZM7.352 48.232L6.88875 47.3458L6.02869 47.7953L6.45229 48.6685L7.352 48.232ZM16.664 44.776L16.4299 43.8038L16.4258 43.8048L16.664 44.776ZM28.376 72.904L28.4099 73.9035L28.4185 73.9031L28.376 72.904ZM20.408 75.4L19.7009 74.6929L19.6934 74.7004L19.686 74.7081L20.408 75.4ZM19.736 86.152L19.0521 86.8815L19.0755 86.9035L19.1003 86.9239L19.736 86.152ZM30.2 84.808L29.4806 84.1134L29.4802 84.1139L30.2 84.808ZM32.888 72.712H33.888V71.6685L32.8455 71.7129L32.888 72.712ZM27.8 44.528C34.1149 44.528 38.8401 46.0283 42.1185 48.8894L43.4335 47.3826C39.6719 44.0997 34.4131 42.528 27.8 42.528V44.528ZM42.1331 48.902C45.42 51.6606 47.152 55.9728 47.152 62.056H49.152C49.152 55.5952 47.3 50.6274 43.4189 47.37L42.1331 48.902ZM47.152 62.056V97H49.152V62.056H47.152ZM48.152 96H37.496V98H48.152V96ZM38.4183 96.6136L35.4423 89.5096L33.5977 90.2824L36.5737 97.3864L38.4183 96.6136ZM34.52 88.896H34.136V90.896H34.52V88.896ZM33.3393 89.2916C31.9682 91.099 30.5803 92.5756 29.1791 93.733L30.4529 95.275C31.9957 94.0004 33.4878 92.405 34.9327 90.5004L33.3393 89.2916ZM29.1791 93.733C27.8226 94.8537 26.2572 95.6533 24.4703 96.1298L24.9857 98.0622C27.0388 97.5147 28.8655 96.5863 30.4529 95.275L29.1791 93.733ZM24.4407 96.1382C22.6413 96.678 20.4082 96.96 17.72 96.96V98.96C20.5358 98.96 22.9747 98.666 25.0153 98.0538L24.4407 96.1382ZM17.72 96.96C14.9767 96.96 12.5407 96.4123 10.3912 95.3376L9.49679 97.1264C11.9553 98.3557 14.7033 98.96 17.72 98.96V96.96ZM10.4211 95.3531C8.36385 94.2364 6.7036 92.557 5.44324 90.2763L3.69276 91.2437C5.1204 93.827 7.04415 95.7956 9.46691 97.1109L10.4211 95.3531ZM5.44847 90.2859C4.20465 87.9759 3.552 85.0153 3.552 81.352H1.552C1.552 85.2407 2.24335 88.5521 3.68753 91.2341L5.44847 90.2859ZM3.552 81.352C3.552 76.0195 5.28407 72.2667 8.60793 69.8758L7.44007 68.2522C3.46793 71.1093 1.552 75.5485 1.552 81.352H3.552ZM8.61051 69.8739C12.0945 67.351 17.3066 65.9 24.3797 65.6474L24.3083 63.6486C17.0454 63.908 11.3775 65.401 7.43749 68.2541L8.61051 69.8739ZM24.3781 65.6474L32.8261 65.3594L32.7579 63.3606L24.3099 63.6486L24.3781 65.6474ZM33.792 64.36V62.056H31.792V64.36H33.792ZM33.792 62.056C33.792 59.1859 33.1621 56.8657 31.693 55.3192L30.243 56.6967C31.2059 57.7103 31.792 59.4221 31.792 62.056H33.792ZM31.693 55.3192C30.2516 53.802 28.304 53.088 25.976 53.088V55.088C27.872 55.088 29.2524 55.654 30.243 56.6967L31.693 55.3192ZM25.976 53.088C23.6814 53.088 21.305 53.493 18.8515 54.2888L19.4685 56.1912C21.751 55.451 23.9186 55.088 25.976 55.088V53.088ZM18.875 54.2815C16.4593 54.9996 14.0471 55.9127 11.6385 57.0193L12.4735 58.8367C14.8009 57.7673 17.1247 56.8884 19.445 56.1985L18.875 54.2815ZM12.9557 57.4915L8.25171 47.7955L6.45229 48.6685L11.1563 58.3645L12.9557 57.4915ZM7.81525 49.1182C10.5533 47.687 13.5807 46.5619 16.9022 45.7472L16.4258 43.8048C12.9633 44.6541 9.78271 45.833 6.88875 47.3458L7.81525 49.1182ZM16.8981 45.7482C20.2691 44.9367 23.9018 44.528 27.8 44.528V42.528C23.7622 42.528 19.9709 42.9513 16.4299 43.8038L16.8981 45.7482ZM28.3421 71.9046C24.4848 72.0353 21.509 72.8848 19.7009 74.6929L21.1151 76.1071C22.379 74.8432 24.7152 74.0287 28.4099 73.9034L28.3421 71.9046ZM19.686 74.7081C18.005 76.4621 17.2 78.742 17.2 81.448H19.2C19.2 79.162 19.867 77.4099 21.13 76.0919L19.686 74.7081ZM17.2 81.448C17.2 83.7506 17.7384 85.6499 19.0521 86.8815L20.4199 85.4225C19.6856 84.734 19.2 83.4974 19.2 81.448H17.2ZM19.1003 86.9239C20.4051 87.9985 22.0542 88.496 23.96 88.496V86.496C22.4098 86.496 21.2429 86.0975 20.3717 85.3801L19.1003 86.9239ZM23.96 88.496C26.6707 88.496 29.0084 87.4844 30.9198 85.5021L29.4802 84.1139C27.9356 85.7156 26.1133 86.496 23.96 86.496V88.496ZM30.9194 85.5026C32.9392 83.4107 33.888 80.541 33.888 77.032H31.888C31.888 80.179 31.0448 82.4933 29.4806 84.1134L30.9194 85.5026ZM33.888 77.032V72.712H31.888V77.032H33.888ZM32.8455 71.7129L28.3335 71.9049L28.4185 73.9031L32.9305 73.7111L32.8455 71.7129Z" fill="#304362"/>
</g>
<defs>
<clipPath id="clip0_3_12">
<rect width="50" height="143" fill="white"/>
</clipPath>
</defs>
</svg>
