<svg width="53" height="143" viewBox="0 0 53 143" fill="none" xmlns="http://www.w3.org/2000/svg">
<g clip-path="url(#clip0_3_14)">
<path d="M22.08 97.96C16.768 97.96 12.416 95.688 9.024 91.144C5.632 86.536 3.936 79.784 3.936 70.888C3.936 61.928 5.664 55.144 9.12 50.536C12.576 45.928 17.056 43.624 22.56 43.624C24.864 43.624 26.848 43.976 28.512 44.68C30.24 45.32 31.712 46.216 32.928 47.368C34.208 48.52 35.296 49.832 36.192 51.304H36.576C36.384 50.28 36.192 48.808 36 46.888C35.808 44.904 35.712 42.888 35.712 40.84V24.04H51.072V97H39.456L36.288 90.184H35.712C34.88 91.592 33.856 92.904 32.64 94.12C31.424 95.272 29.952 96.2 28.224 96.904C26.496 97.608 24.448 97.96 22.08 97.96ZM27.936 86.536C31.136 86.536 33.408 85.384 34.752 83.08C36.16 80.712 36.864 77.192 36.864 72.52V70.984C36.864 65.864 36.224 61.96 34.944 59.272C33.664 56.584 31.264 55.24 27.744 55.24C25.248 55.24 23.232 56.616 21.696 59.368C20.224 62.056 19.488 65.96 19.488 71.08C19.488 76.2 20.224 80.072 21.696 82.696C23.232 85.256 25.312 86.536 27.936 86.536Z" fill="#6B8FCB"/>
<path d="M9.024 91.144L8.21865 91.7368L8.22265 91.7422L9.024 91.144ZM9.12 50.536L9.92 51.136L9.92 51.136L9.12 50.536ZM28.512 44.68L28.1224 45.601L28.1433 45.6098L28.1647 45.6177L28.512 44.68ZM32.928 47.368L32.2403 48.094L32.2495 48.1027L32.259 48.1113L32.928 47.368ZM36.192 51.304L35.3378 51.8239L35.63 52.304H36.192V51.304ZM36.576 51.304V52.304H37.7809L37.5589 51.1197L36.576 51.304ZM36 46.888L35.0046 46.9843L35.005 46.9875L36 46.888ZM35.712 24.04V23.04H34.712V24.04H35.712ZM51.072 24.04H52.072V23.04H51.072V24.04ZM51.072 97V98H52.072V97H51.072ZM39.456 97L38.5492 97.4215L38.8181 98H39.456V97ZM36.288 90.184L37.1948 89.7625L36.926 89.184H36.288V90.184ZM35.712 90.184V89.184H35.1414L34.8511 89.6753L35.712 90.184ZM32.64 94.12L33.3277 94.846L33.3376 94.8367L33.3471 94.8271L32.64 94.12ZM28.224 96.904L27.8467 95.9779L27.8467 95.9779L28.224 96.904ZM34.752 83.08L33.8924 82.5689L33.8882 82.5761L34.752 83.08ZM34.944 59.272L35.8469 58.8421L35.8469 58.8421L34.944 59.272ZM21.696 59.368L20.8228 58.8806L20.8189 58.8877L21.696 59.368ZM21.696 82.696L20.8239 83.1853L20.831 83.198L20.8385 83.2105L21.696 82.696ZM22.08 96.96C17.1076 96.96 13.0434 94.8568 9.82535 90.5458L8.22265 91.7422C11.7886 96.5192 16.4284 98.96 22.08 98.96V96.96ZM9.82934 90.5512C6.61655 86.1866 4.936 79.6813 4.936 70.888H2.936C2.936 79.8867 4.64746 86.8854 8.21866 91.7368L9.82934 90.5512ZM4.936 70.888C4.936 62.0318 6.64815 55.4985 9.92 51.136L8.32 49.936C4.67985 54.7895 2.936 61.8242 2.936 70.888H4.936ZM9.92 51.136C13.1974 46.7661 17.3875 44.624 22.56 44.624V42.624C16.7245 42.624 11.9546 45.0899 8.32 49.936L9.92 51.136ZM22.56 44.624C24.7655 44.624 26.6105 44.9613 28.1224 45.601L28.9016 43.759C27.0855 42.9907 24.9625 42.624 22.56 42.624V44.624ZM28.1647 45.6177C29.7788 46.2156 31.1317 47.0437 32.2403 48.094L33.6157 46.642C32.2923 45.3883 30.7012 44.4244 28.8593 43.7422L28.1647 45.6177ZM32.259 48.1113C33.4667 49.1982 34.4923 50.4349 35.3378 51.8239L37.0462 50.7841C36.0997 49.2291 34.9493 47.8418 33.597 46.6247L32.259 48.1113ZM36.192 52.304H36.576V50.304H36.192V52.304ZM37.5589 51.1197C37.3748 50.1381 37.1862 48.6996 36.995 46.7885L35.005 46.9875C35.1979 48.9164 35.3932 50.4219 35.5931 51.4883L37.5589 51.1197ZM36.9954 46.7917C36.8065 44.8406 36.712 42.8567 36.712 40.84H34.712C34.712 42.9193 34.8095 44.9674 35.0047 46.9843L36.9954 46.7917ZM36.712 40.84V24.04H34.712V40.84H36.712ZM35.712 25.04H51.072V23.04H35.712V25.04ZM50.072 24.04V97H52.072V24.04H50.072ZM51.072 96H39.456V98H51.072V96ZM40.3628 96.5785L37.1948 89.7625L35.3812 90.6055L38.5492 97.4215L40.3628 96.5785ZM36.288 89.184H35.712V91.184H36.288V89.184ZM34.8511 89.6753C34.064 91.0073 33.0925 92.2532 31.9329 93.4129L33.3471 94.8271C34.6195 93.5548 35.696 92.1767 36.5729 90.6927L34.8511 89.6753ZM31.9523 93.394C30.8361 94.4514 29.4728 95.3154 27.8467 95.9779L28.6013 97.8301C30.4312 97.0846 32.0119 96.0926 33.3277 94.846L31.9523 93.394ZM27.8467 95.9779C26.266 96.6219 24.3521 96.96 22.08 96.96V98.96C24.5439 98.96 26.726 98.5941 28.6013 97.8301L27.8467 95.9779ZM27.936 87.536C31.408 87.536 34.0541 86.2611 35.6158 83.5839L33.8882 82.5761C32.7619 84.5069 30.864 85.536 27.936 85.536V87.536ZM35.6115 83.5911C37.155 80.9952 37.864 77.2614 37.864 72.52H35.864C35.864 77.1226 35.165 80.4288 33.8925 82.5689L35.6115 83.5911ZM37.864 72.52V70.984H35.864V72.52H37.864ZM37.864 70.984C37.864 65.8076 37.2213 61.7283 35.8469 58.8421L34.0411 59.7019C35.2267 62.1917 35.864 65.9204 35.864 70.984H37.864ZM35.8469 58.8421C35.1256 57.3274 34.0682 56.157 32.6726 55.3755C31.2872 54.5997 29.6283 54.24 27.744 54.24V56.24C29.3797 56.24 30.6808 56.5523 31.6954 57.1205C32.6998 57.683 33.4824 58.5286 34.0411 59.7019L35.8469 58.8421ZM27.744 54.24C24.7865 54.24 22.4812 55.9093 20.8228 58.8806L22.5692 59.8554C23.9828 57.3227 25.7095 56.24 27.744 56.24V54.24ZM20.8189 58.8877C19.2292 61.7906 18.488 65.8914 18.488 71.08H20.488C20.488 66.0286 21.2188 62.3214 22.5731 59.8483L20.8189 58.8877ZM18.488 71.08C18.488 76.2659 19.2283 80.341 20.8239 83.1853L22.5681 82.2067C21.2197 79.803 20.488 76.1341 20.488 71.08H18.488ZM20.8385 83.2105C22.5256 86.0223 24.9067 87.536 27.936 87.536V85.536C25.7173 85.536 23.9384 84.4897 22.5535 82.1815L20.8385 83.2105Z" fill="#304362"/>
</g>
<defs>
<clipPath id="clip0_3_14">
<rect width="53" height="143" fill="white"/>
</clipPath>
</defs>
</svg>
