<svg width="51" height="143" viewBox="0 0 51 143" fill="none" xmlns="http://www.w3.org/2000/svg">
<g clip-path="url(#clip0_3_23)">
<path d="M20.464 43.624C23.728 43.624 26.48 44.264 28.72 45.544C31.024 46.824 32.912 48.744 34.384 51.304H34.768L35.92 44.584H49.072V97.096C49.072 102.088 48.112 106.28 46.192 109.672C44.336 113.064 41.52 115.624 37.744 117.352C33.968 119.144 29.2 120.04 23.44 120.04C19.728 120.04 16.336 119.816 13.264 119.368C10.256 118.92 7.344 118.12 4.528 116.968V105.544C6.576 106.44 8.56 107.176 10.48 107.752C12.464 108.392 14.48 108.84 16.528 109.096C18.64 109.416 20.912 109.576 23.344 109.576C26.864 109.576 29.456 108.584 31.12 106.6C32.848 104.616 33.712 101.64 33.712 97.672V96.616C33.712 95.528 33.744 94.408 33.808 93.256C33.936 92.104 34.064 91.08 34.192 90.184H33.712C32.304 92.936 30.48 94.92 28.24 96.136C26.064 97.352 23.376 97.96 20.176 97.96C14.608 97.96 10.16 95.592 6.832 90.856C3.568 86.056 1.936 79.4 1.936 70.888C1.936 65.128 2.704 60.232 4.24 56.2C5.776 52.104 7.92 49 10.672 46.888C13.488 44.712 16.752 43.624 20.464 43.624ZM25.84 55.24C23.984 55.24 22.448 55.848 21.232 57.064C20.016 58.216 19.088 59.976 18.448 62.344C17.872 64.648 17.584 67.56 17.584 71.08C17.584 76.328 18.256 80.264 19.6 82.888C21.008 85.448 23.152 86.728 26.032 86.728C27.568 86.728 28.88 86.504 29.968 86.056C31.12 85.544 32.048 84.744 32.752 83.656C33.456 82.504 33.968 81.032 34.288 79.24C34.672 77.448 34.864 75.272 34.864 72.712V70.984C34.864 67.208 34.576 64.168 34 61.864C33.424 59.56 32.464 57.896 31.12 56.872C29.84 55.784 28.08 55.24 25.84 55.24Z" fill="#6B8FCB"/>
<path d="M28.72 45.544L28.2238 46.4123L28.2344 46.4182L28.72 45.544ZM34.384 51.304L33.5171 51.8025L33.8055 52.304H34.384V51.304ZM34.768 51.304V52.304H35.6112L35.7536 51.473L34.768 51.304ZM35.92 44.584V43.584H35.0768L34.9344 44.415L35.92 44.584ZM49.072 44.584H50.072V43.584H49.072V44.584ZM46.192 109.672L45.3217 109.179L45.3182 109.186L45.3147 109.192L46.192 109.672ZM37.744 117.352L37.3278 116.443L37.3153 116.449L37.744 117.352ZM13.264 119.368L13.1167 120.357L13.1197 120.358L13.264 119.368ZM4.528 116.968H3.528V117.639L4.14937 117.894L4.528 116.968ZM4.528 105.544L4.92882 104.628L3.528 104.015V105.544H4.528ZM10.48 107.752L10.787 106.8L10.7772 106.797L10.7673 106.794L10.48 107.752ZM16.528 109.096L16.6778 108.107L16.6649 108.105L16.652 108.104L16.528 109.096ZM31.12 106.6L30.3659 105.943L30.3598 105.95L30.3538 105.957L31.12 106.6ZM33.808 93.256L32.8141 93.1456L32.8111 93.173L32.8095 93.2005L33.808 93.256ZM34.192 90.184L35.182 90.3254L35.345 89.184H34.192V90.184ZM33.712 90.184V89.184H33.1003L32.8218 89.7285L33.712 90.184ZM28.24 96.136L27.7629 95.2571L27.7522 95.2631L28.24 96.136ZM6.832 90.856L6.00507 91.4183L6.00939 91.4247L6.01381 91.4309L6.832 90.856ZM4.24 56.2L5.1745 56.556L5.17633 56.5511L4.24 56.2ZM10.672 46.888L11.2808 47.6813L11.2834 47.6793L10.672 46.888ZM21.232 57.064L21.9197 57.79L21.9296 57.7807L21.9391 57.7711L21.232 57.064ZM18.448 62.344L17.4826 62.0831L17.4802 62.0923L17.4779 62.1015L18.448 62.344ZM19.6 82.888L18.71 83.3439L18.7167 83.357L18.7238 83.3699L19.6 82.888ZM29.968 86.056L30.3488 86.9807L30.3615 86.9754L30.3741 86.9698L29.968 86.056ZM32.752 83.656L33.5916 84.1993L33.5986 84.1884L33.6053 84.1774L32.752 83.656ZM34.288 79.24L33.3102 79.0305L33.3066 79.0473L33.3036 79.0642L34.288 79.24ZM34 61.864L34.9701 61.6215L34.9701 61.6215L34 61.864ZM31.12 56.872L30.4724 57.6339L30.4927 57.6512L30.514 57.6674L31.12 56.872ZM20.464 44.624C23.5993 44.624 26.17 45.2386 28.2239 46.4122L29.2161 44.6758C26.79 43.2894 23.8567 42.624 20.464 42.624V44.624ZM28.2344 46.4182C30.361 47.5996 32.1245 49.3806 33.5171 51.8025L35.2509 50.8055C33.6995 48.1074 31.687 46.0484 29.2056 44.6698L28.2344 46.4182ZM34.384 52.304H34.768V50.304H34.384V52.304ZM35.7536 51.473L36.9056 44.753L34.9344 44.415L33.7824 51.135L35.7536 51.473ZM35.92 45.584H49.072V43.584H35.92V45.584ZM48.072 44.584V97.096H50.072V44.584H48.072ZM48.072 97.096C48.072 101.963 47.136 105.974 45.3217 109.179L47.0623 110.165C49.088 106.586 50.072 102.213 50.072 97.096H48.072ZM45.3147 109.192C43.57 112.381 40.9233 114.797 37.3279 116.443L38.1601 118.261C42.1167 116.451 45.102 113.747 47.0693 110.152L45.3147 109.192ZM37.3153 116.449C33.7139 118.158 29.1045 119.04 23.44 119.04V121.04C29.2955 121.04 34.2221 120.13 38.1727 118.255L37.3153 116.449ZM23.44 119.04C19.7673 119.04 16.4244 118.818 13.4083 118.378L13.1197 120.358C16.2477 120.814 19.6887 121.04 23.44 121.04V119.04ZM13.4113 118.379C10.4827 117.943 7.64839 117.164 4.90663 116.042L4.14937 117.894C7.03961 119.076 10.0293 119.897 13.1167 120.357L13.4113 118.379ZM5.528 116.968V105.544H3.528V116.968H5.528ZM4.12718 106.46C6.20799 107.371 8.22992 108.121 10.1927 108.71L10.7673 106.794C8.89008 106.231 6.94402 105.509 4.92882 104.628L4.12718 106.46ZM10.173 108.704C12.216 109.363 14.2932 109.824 16.404 110.088L16.652 108.104C14.6668 107.856 12.712 107.421 10.787 106.8L10.173 108.704ZM16.3782 110.085C18.546 110.413 20.8686 110.576 23.344 110.576V108.576C20.9554 108.576 18.734 108.419 16.6778 108.107L16.3782 110.085ZM23.344 110.576C27.0475 110.576 29.9703 109.527 31.8862 107.243L30.3538 105.957C28.9417 107.641 26.6805 108.576 23.344 108.576V110.576ZM31.8741 107.257C33.8242 105.018 34.712 101.763 34.712 97.672H32.712C32.712 101.517 31.8718 104.214 30.3659 105.943L31.8741 107.257ZM34.712 97.672V96.616H32.712V97.672H34.712ZM34.712 96.616C34.712 95.5476 34.7434 94.4461 34.8065 93.3115L32.8095 93.2005C32.7446 94.3699 32.712 95.5084 32.712 96.616H34.712ZM34.8019 93.3664C34.929 92.2221 35.0558 91.2087 35.182 90.3254L33.2021 90.0426C33.0722 90.9513 32.943 91.9859 32.8141 93.1456L34.8019 93.3664ZM34.192 89.184H33.712V91.184H34.192V89.184ZM32.8218 89.7285C31.4858 92.3397 29.7909 94.1562 27.7629 95.2571L28.7171 97.0149C31.1691 95.6838 33.1222 93.5323 34.6022 90.6395L32.8218 89.7285ZM27.7522 95.2631C25.7618 96.3754 23.2525 96.96 20.176 96.96V98.96C23.4995 98.96 26.3662 98.3286 28.7278 97.0089L27.7522 95.2631ZM20.176 96.96C14.9487 96.96 10.7997 94.7631 7.65019 90.2811L6.01381 91.4309C9.52026 96.4209 14.2673 98.96 20.176 98.96V96.96ZM7.65893 90.2937C4.54897 85.7202 2.936 79.2882 2.936 70.888H0.936C0.936 79.5118 2.58703 86.3918 6.00507 91.4183L7.65893 90.2937ZM2.936 70.888C2.936 65.2113 3.69362 60.4433 5.17449 56.556L3.30551 55.844C1.71438 60.0207 0.936 65.0447 0.936 70.888H2.936ZM5.17633 56.5511C6.66367 52.5849 8.71142 49.6532 11.2808 47.6813L10.0632 46.0947C7.12858 48.3468 4.88833 51.6231 3.30367 55.8489L5.17633 56.5511ZM11.2834 47.6793C13.9164 45.6447 16.9631 44.624 20.464 44.624V42.624C16.5409 42.624 13.0596 43.7793 10.0606 46.0967L11.2834 47.6793ZM25.84 54.24C23.742 54.24 21.9442 54.9375 20.5249 56.3569L21.9391 57.7711C22.9518 56.7584 24.226 56.24 25.84 56.24V54.24ZM20.5443 56.338C19.1465 57.6623 18.1497 59.6149 17.4826 62.0831L19.4134 62.6049C20.0263 60.3371 20.8855 58.7697 21.9197 57.79L20.5443 56.338ZM17.4779 62.1015C16.875 64.5129 16.584 67.5135 16.584 71.08H18.584C18.584 67.6065 18.869 64.7831 19.4181 62.5865L17.4779 62.1015ZM16.584 71.08C16.584 76.3809 17.2574 80.5079 18.71 83.3439L20.49 82.4321C19.2546 80.0201 18.584 76.2751 18.584 71.08H16.584ZM18.7238 83.3699C19.4987 84.7788 20.5027 85.8811 21.7514 86.6266C23.0009 87.3726 24.4396 87.728 26.032 87.728V85.728C24.7444 85.728 23.6711 85.4434 22.7766 84.9094C21.8813 84.3749 21.1093 83.5572 20.4762 82.4061L18.7238 83.3699ZM26.032 87.728C27.6607 87.728 29.1092 87.4911 30.3488 86.9807L29.5873 85.1313C28.6508 85.5169 27.4754 85.728 26.032 85.728V87.728ZM30.3741 86.9698C31.7087 86.3767 32.7852 85.4454 33.5916 84.1993L31.9124 83.1127C31.3108 84.0426 30.5313 84.7113 29.5619 85.1422L30.3741 86.9698ZM33.6053 84.1774C34.3924 82.8895 34.9377 81.2901 35.2724 79.4158L33.3036 79.0642C32.9983 80.7738 32.5196 82.1185 31.8987 83.1345L33.6053 84.1774ZM35.2658 79.4495C35.6691 77.5676 35.864 75.317 35.864 72.712H33.864C33.864 75.227 33.6749 77.3284 33.3102 79.0305L35.2658 79.4495ZM35.864 72.712V70.984H33.864V72.712H35.864ZM35.864 70.984C35.864 67.1682 35.5741 64.0372 34.9701 61.6215L33.0299 62.1065C33.5779 64.2988 33.864 67.2478 33.864 70.984H35.864ZM34.9701 61.6215C34.361 59.1849 33.3114 57.2845 31.726 56.0766L30.514 57.6674C31.6166 58.5075 32.487 59.9351 33.0299 62.1065L34.9701 61.6215ZM31.7677 56.1101C30.2541 54.8236 28.2375 54.24 25.84 54.24V56.24C27.9225 56.24 29.4259 56.7444 30.4724 57.6339L31.7677 56.1101Z" fill="#304362"/>
</g>
<defs>
<clipPath id="clip0_3_23">
<rect width="51" height="143" fill="white"/>
</clipPath>
</defs>
</svg>
