<svg width="24" height="143" viewBox="0 0 24 143" fill="none" xmlns="http://www.w3.org/2000/svg">
<g clip-path="url(#clip0_3_19)">
<path d="M21.888 44.584V97H6.528V44.584H21.888ZM14.304 24.04C16.544 24.04 18.464 24.552 20.064 25.576C21.664 26.536 22.464 28.36 22.464 31.048C22.464 33.672 21.664 35.496 20.064 36.52C18.464 37.544 16.544 38.056 14.304 38.056C12 38.056 10.048 37.544 8.448 36.52C6.848 35.496 6.048 33.672 6.048 31.048C6.048 28.36 6.848 26.536 8.448 25.576C10.048 24.552 12 24.04 14.304 24.04Z" fill="#6B8FCB"/>
<path d="M21.888 44.584H22.888V43.584H21.888V44.584ZM21.888 97V98H22.888V97H21.888ZM6.528 97H5.528V98H6.528V97ZM6.528 44.584V43.584H5.528V44.584H6.528ZM20.064 25.576L19.5249 26.4183L19.5371 26.4261L19.5495 26.4335L20.064 25.576ZM20.064 36.52L19.5249 35.6777L19.5249 35.6777L20.064 36.52ZM8.448 36.52L8.98706 35.6777L8.98705 35.6777L8.448 36.52ZM8.448 25.576L8.9625 26.4335L8.97489 26.4261L8.98706 26.4183L8.448 25.576ZM20.888 44.584V97H22.888V44.584H20.888ZM21.888 96H6.528V98H21.888V96ZM7.528 97V44.584H5.528V97H7.528ZM6.528 45.584H21.888V43.584H6.528V45.584ZM14.304 25.04C16.3877 25.04 18.1129 25.5145 19.5249 26.4183L20.6031 24.7337C18.8151 23.5895 16.7003 23.04 14.304 23.04V25.04ZM19.5495 26.4335C20.7267 27.1398 21.464 28.5414 21.464 31.048H23.464C23.464 28.1786 22.6013 25.9322 20.5785 24.7185L19.5495 26.4335ZM21.464 31.048C21.464 33.4743 20.7349 34.9033 19.5249 35.6777L20.6031 37.3623C22.5931 36.0886 23.464 33.8697 23.464 31.048H21.464ZM19.5249 35.6777C18.1129 36.5815 16.3877 37.056 14.304 37.056V39.056C16.7003 39.056 18.8151 38.5065 20.6031 37.3623L19.5249 35.6777ZM14.304 37.056C12.1501 37.056 10.3948 36.5787 8.98706 35.6777L7.90895 37.3623C9.70121 38.5093 11.8499 39.056 14.304 39.056V37.056ZM8.98705 35.6777C7.77708 34.9033 7.048 33.4743 7.048 31.048H5.048C5.048 33.8697 5.91892 36.0886 7.90895 37.3623L8.98705 35.6777ZM7.048 31.048C7.048 28.5414 7.78527 27.1398 8.9625 26.4335L7.93351 24.7185C5.91073 25.9322 5.048 28.1786 5.048 31.048H7.048ZM8.98706 26.4183C10.3948 25.5173 12.1501 25.04 14.304 25.04V23.04C11.8499 23.04 9.70121 23.5867 7.90895 24.7337L8.98706 26.4183Z" fill="#304362"/>
</g>
<defs>
<clipPath id="clip0_3_19">
<rect width="24" height="143" fill="white"/>
</clipPath>
</defs>
</svg>
