<svg width="44" height="143" viewBox="0 0 44 143" fill="none" xmlns="http://www.w3.org/2000/svg">
<g clip-path="url(#clip0_2_7)">
<path d="M1.584 98V29.456H17.136V86H42.576V98H1.584Z" fill="#6B8FCB"/>
<path d="M1.584 98H0.584V99H1.584V98ZM1.584 29.456V28.456H0.584V29.456H1.584ZM17.136 29.456H18.136V28.456H17.136V29.456ZM17.136 86H16.136V87H17.136V86ZM42.576 86H43.576V85H42.576V86ZM42.576 98V99H43.576V98H42.576ZM2.584 98V29.456H0.584V98H2.584ZM1.584 30.456H17.136V28.456H1.584V30.456ZM16.136 29.456V86H18.136V29.456H16.136ZM17.136 87H42.576V85H17.136V87ZM41.576 86V98H43.576V86H41.576ZM42.576 97H1.584V99H42.576V97Z" fill="#304362"/>
</g>
<defs>
<clipPath id="clip0_2_7">
<rect width="44" height="143" fill="white"/>
</clipPath>
</defs>
</svg>
