<svg width="372" height="143" viewBox="0 0 372 143" fill="none" xmlns="http://www.w3.org/2000/svg">
<path d="M9.584 103V34.456H25.136V91H50.576V103H9.584ZM106.454 76.696C106.454 81.048 105.878 84.92 104.726 88.312C103.638 91.704 102.038 94.584 99.926 96.952C97.814 99.256 95.222 101.016 92.15 102.232C89.142 103.384 85.75 103.96 81.974 103.96C78.454 103.96 75.19 103.384 72.182 102.232C69.174 101.016 66.582 99.256 64.406 96.952C62.294 94.584 60.63 91.704 59.414 88.312C58.262 84.92 57.686 81.048 57.686 76.696C57.686 70.872 58.678 65.976 60.662 62.008C62.646 57.976 65.462 54.904 69.11 52.792C72.758 50.68 77.142 49.624 82.262 49.624C86.998 49.624 91.158 50.68 94.742 52.792C98.39 54.904 101.238 57.976 103.286 62.008C105.398 65.976 106.454 70.872 106.454 76.696ZM73.334 76.696C73.334 80.152 73.622 83.064 74.198 85.432C74.838 87.736 75.798 89.496 77.078 90.712C78.422 91.864 80.118 92.44 82.166 92.44C84.278 92.44 85.942 91.864 87.158 90.712C88.438 89.496 89.366 87.736 89.942 85.432C90.518 83.064 90.806 80.152 90.806 76.696C90.806 73.24 90.518 70.36 89.942 68.056C89.366 65.752 88.406 64.024 87.062 62.872C85.782 61.72 84.118 61.144 82.07 61.144C78.934 61.144 76.694 62.456 75.35 65.08C74.006 67.64 73.334 71.512 73.334 76.696ZM139.175 49.528C145.639 49.528 150.631 51.064 154.151 54.136C157.735 57.144 159.527 61.784 159.527 68.056V103H148.871L145.895 95.896H145.511C144.103 97.752 142.663 99.288 141.191 100.504C139.719 101.72 138.023 102.584 136.103 103.096C134.183 103.672 131.847 103.96 129.095 103.96C126.215 103.96 123.623 103.384 121.319 102.232C119.079 101.016 117.287 99.192 115.943 96.76C114.599 94.264 113.927 91.128 113.927 87.352C113.927 81.784 115.751 77.688 119.399 75.064C123.111 72.376 128.551 70.904 135.719 70.648L144.167 70.36V68.056C144.167 65.304 143.559 63.288 142.343 62.008C141.127 60.728 139.463 60.088 137.351 60.088C135.175 60.088 132.903 60.472 130.535 61.24C128.167 61.944 125.799 62.84 123.431 63.928L118.727 54.232C121.543 52.76 124.647 51.608 128.039 50.776C131.495 49.944 135.207 49.528 139.175 49.528ZM139.751 78.904C135.975 79.032 133.319 79.864 131.783 81.4C130.311 82.936 129.575 84.952 129.575 87.448C129.575 89.624 130.087 91.192 131.111 92.152C132.199 93.048 133.607 93.496 135.335 93.496C137.767 93.496 139.847 92.6 141.575 90.808C143.367 88.952 144.263 86.36 144.263 83.032V78.712L139.751 78.904ZM187.861 103.96C182.549 103.96 178.197 101.688 174.805 97.144C171.413 92.536 169.717 85.784 169.717 76.888C169.717 67.928 171.445 61.144 174.901 56.536C178.357 51.928 182.837 49.624 188.341 49.624C190.645 49.624 192.629 49.976 194.293 50.68C196.021 51.32 197.493 52.216 198.709 53.368C199.989 54.52 201.077 55.832 201.973 57.304H202.357C202.165 56.28 201.973 54.808 201.781 52.888C201.589 50.904 201.493 48.888 201.493 46.84V30.04H216.853V103H205.237L202.069 96.184H201.493C200.661 97.592 199.637 98.904 198.421 100.12C197.205 101.272 195.733 102.2 194.005 102.904C192.277 103.608 190.229 103.96 187.861 103.96ZM193.717 92.536C196.917 92.536 199.189 91.384 200.533 89.08C201.941 86.712 202.645 83.192 202.645 78.52V76.984C202.645 71.864 202.005 67.96 200.725 65.272C199.445 62.584 197.045 61.24 193.525 61.24C191.029 61.24 189.013 62.616 187.477 65.368C186.005 68.056 185.269 71.96 185.269 77.08C185.269 82.2 186.005 86.072 187.477 88.696C189.013 91.256 191.093 92.536 193.717 92.536ZM245.232 50.584V103H229.872V50.584H245.232ZM237.648 30.04C239.888 30.04 241.808 30.552 243.408 31.576C245.008 32.536 245.808 34.36 245.808 37.048C245.808 39.672 245.008 41.496 243.408 42.52C241.808 43.544 239.888 44.056 237.648 44.056C235.344 44.056 233.392 43.544 231.792 42.52C230.192 41.496 229.392 39.672 229.392 37.048C229.392 34.36 230.192 32.536 231.792 31.576C233.392 30.552 235.344 30.04 237.648 30.04ZM287.846 49.624C293.094 49.624 297.318 51.16 300.518 54.232C303.782 57.24 305.414 62.104 305.414 68.824V103H290.054V72.376C290.054 68.6 289.478 65.784 288.326 63.928C287.238 62.008 285.478 61.048 283.046 61.048C279.334 61.048 276.838 62.552 275.558 65.56C274.278 68.504 273.638 72.76 273.638 78.328V103H258.278V50.584H269.894L272.006 57.304H272.678C273.766 55.512 275.046 54.072 276.518 52.984C278.054 51.832 279.782 51 281.702 50.488C283.622 49.912 285.67 49.624 287.846 49.624ZM334.12 49.624C337.384 49.624 340.136 50.264 342.376 51.544C344.68 52.824 346.568 54.744 348.04 57.304H348.424L349.576 50.584H362.728V103.096C362.728 108.088 361.768 112.28 359.848 115.672C357.992 119.064 355.176 121.624 351.4 123.352C347.624 125.144 342.856 126.04 337.096 126.04C333.384 126.04 329.992 125.816 326.92 125.368C323.912 124.92 321 124.12 318.184 122.968V111.544C320.232 112.44 322.216 113.176 324.136 113.752C326.12 114.392 328.136 114.84 330.184 115.096C332.296 115.416 334.568 115.576 337 115.576C340.52 115.576 343.112 114.584 344.776 112.6C346.504 110.616 347.368 107.64 347.368 103.672V102.616C347.368 101.528 347.4 100.408 347.464 99.256C347.592 98.104 347.72 97.08 347.848 96.184H347.368C345.96 98.936 344.136 100.92 341.896 102.136C339.72 103.352 337.032 103.96 333.832 103.96C328.264 103.96 323.816 101.592 320.488 96.856C317.224 92.056 315.592 85.4 315.592 76.888C315.592 71.128 316.36 66.232 317.896 62.2C319.432 58.104 321.576 55 324.328 52.888C327.144 50.712 330.408 49.624 334.12 49.624ZM339.496 61.24C337.64 61.24 336.104 61.848 334.888 63.064C333.672 64.216 332.744 65.976 332.104 68.344C331.528 70.648 331.24 73.56 331.24 77.08C331.24 82.328 331.912 86.264 333.256 88.888C334.664 91.448 336.808 92.728 339.688 92.728C341.224 92.728 342.536 92.504 343.624 92.056C344.776 91.544 345.704 90.744 346.408 89.656C347.112 88.504 347.624 87.032 347.944 85.24C348.328 83.448 348.52 81.272 348.52 78.712V76.984C348.52 73.208 348.232 70.168 347.656 67.864C347.08 65.56 346.12 63.896 344.776 62.872C343.496 61.784 341.736 61.24 339.496 61.24Z" fill="#6B8FCB"/>
<path d="M9.584 103H8.584V104H9.584V103ZM9.584 34.456V33.456H8.584V34.456H9.584ZM25.136 34.456H26.136V33.456H25.136V34.456ZM25.136 91H24.136V92H25.136V91ZM50.576 91H51.576V90H50.576V91ZM50.576 103V104H51.576V103H50.576ZM10.584 103V34.456H8.584V103H10.584ZM9.584 35.456H25.136V33.456H9.584V35.456ZM24.136 34.456V91H26.136V34.456H24.136ZM25.136 92H50.576V90H25.136V92ZM49.576 91V103H51.576V91H49.576ZM50.576 102H9.584V104H50.576V102ZM104.726 88.312L103.779 87.9904L103.776 87.9985L103.774 88.0066L104.726 88.312ZM99.926 96.952L100.663 97.6278L100.672 97.6176L99.926 96.952ZM92.15 102.232L92.5077 103.166L92.518 103.162L92.15 102.232ZM72.182 102.232L71.8072 103.159L71.8158 103.163L71.8244 103.166L72.182 102.232ZM64.406 96.952L63.6597 97.6176L63.6692 97.6283L63.679 97.6386L64.406 96.952ZM59.414 88.312L58.4671 88.6336L58.4698 88.6415L58.4727 88.6495L59.414 88.312ZM60.662 62.008L61.5564 62.4552L61.5593 62.4495L60.662 62.008ZM69.11 52.792L69.611 53.6574L69.611 53.6574L69.11 52.792ZM94.742 52.792L94.2343 53.6536L94.241 53.6574L94.742 52.792ZM103.286 62.008L102.394 62.4609L102.399 62.4694L102.403 62.4778L103.286 62.008ZM74.198 85.432L73.2263 85.6684L73.2302 85.6841L73.2345 85.6996L74.198 85.432ZM77.078 90.712L76.3893 91.437L76.4078 91.4546L76.4272 91.4713L77.078 90.712ZM87.158 90.712L87.8457 91.438L87.8468 91.437L87.158 90.712ZM89.942 85.432L90.9122 85.6745L90.9137 85.6684L89.942 85.432ZM89.942 68.056L88.9719 68.2985L88.9719 68.2985L89.942 68.056ZM87.062 62.872L86.393 63.6153L86.402 63.6234L86.4112 63.6313L87.062 62.872ZM75.35 65.08L76.2354 65.5449L76.24 65.5359L75.35 65.08ZM105.454 76.696C105.454 80.9613 104.889 84.7215 103.779 87.9904L105.673 88.6336C106.867 85.1185 107.454 81.1347 107.454 76.696H105.454ZM103.774 88.0066C102.723 91.2818 101.188 94.0348 99.1797 96.2864L100.672 97.6176C102.888 95.1332 104.553 92.1262 105.678 88.6174L103.774 88.0066ZM99.1888 96.2763C97.1849 98.4624 94.7215 100.139 91.782 101.302L92.518 103.162C95.7225 101.893 98.4431 100.05 100.663 97.6277L99.1888 96.2763ZM91.7924 101.298C88.9164 102.4 85.6484 102.96 81.974 102.96V104.96C85.8516 104.96 89.3676 104.368 92.5076 103.166L91.7924 101.298ZM81.974 102.96C78.5649 102.96 75.4233 102.403 72.5396 101.298L71.8244 103.166C74.9567 104.365 78.3431 104.96 81.974 104.96V102.96ZM72.5568 101.305C69.6789 100.141 67.2079 98.4623 65.133 96.2654L63.679 97.6386C65.9561 100.05 68.6691 101.891 71.8072 103.159L72.5568 101.305ZM65.1523 96.2864C63.1366 94.0264 61.5338 91.2619 60.3553 87.9745L58.4727 88.6495C59.7262 92.1461 61.4514 95.1416 63.6597 97.6176L65.1523 96.2864ZM60.3609 87.9904C59.2507 84.7215 58.686 80.9613 58.686 76.696H56.686C56.686 81.1347 57.2733 85.1185 58.4671 88.6336L60.3609 87.9904ZM58.686 76.696C58.686 70.9806 59.6601 66.2479 61.5564 62.4552L59.7676 61.5608C57.6959 65.7041 56.686 70.7634 56.686 76.696H58.686ZM61.5593 62.4495C63.462 58.5826 66.1456 55.6637 69.611 53.6574L68.609 51.9266C64.7784 54.1443 61.83 57.3694 59.7647 61.5665L61.5593 62.4495ZM69.611 53.6574C73.0772 51.6507 77.2803 50.624 82.262 50.624V48.624C77.0037 48.624 72.4388 49.7093 68.609 51.9266L69.611 53.6574ZM82.262 50.624C86.8446 50.624 90.8245 51.6442 94.2343 53.6535L95.2497 51.9305C91.4915 49.7158 87.1514 48.624 82.262 48.624V50.624ZM94.241 53.6574C97.7093 55.6654 100.427 58.5881 102.394 62.4609L104.178 61.5551C102.049 57.3639 99.0707 54.1426 95.243 51.9266L94.241 53.6574ZM102.403 62.4778C104.419 66.2647 105.454 70.9889 105.454 76.696H107.454C107.454 70.7551 106.377 65.6873 104.169 61.5381L102.403 62.4778ZM72.334 76.696C72.334 80.2014 72.6255 83.1983 73.2263 85.6684L75.1697 85.1956C74.6185 82.9297 74.334 80.1026 74.334 76.696H72.334ZM73.2345 85.6996C73.9064 88.1185 74.9393 90.0596 76.3893 91.437L77.7668 89.987C76.6567 88.9324 75.7696 87.3535 75.1615 85.1644L73.2345 85.6996ZM76.4272 91.4713C77.9804 92.8026 79.9189 93.44 82.166 93.44V91.44C80.3171 91.44 78.8636 90.9254 77.7288 89.9527L76.4272 91.4713ZM82.166 93.44C84.4641 93.44 86.3989 92.8086 87.8457 91.438L86.4703 89.986C85.4851 90.9194 84.0919 91.44 82.166 91.44V93.44ZM87.8468 91.437C89.3044 90.0523 90.3055 88.101 90.9121 85.6745L88.9719 85.1895C88.4265 87.371 87.5716 88.9397 86.4693 89.987L87.8468 91.437ZM90.9137 85.6684C91.5145 83.1983 91.806 80.2014 91.806 76.696H89.806C89.806 80.1026 89.5215 82.9297 88.9703 85.1956L90.9137 85.6684ZM91.806 76.696C91.806 73.1917 91.5147 70.2238 90.9121 67.8135L88.9719 68.2985C89.5213 70.4962 89.806 73.2883 89.806 76.696H91.806ZM90.9121 67.8135C90.3028 65.376 89.26 63.4389 87.7128 62.1127L86.4112 63.6313C87.552 64.6091 88.4292 66.128 88.9719 68.2985L90.9121 67.8135ZM87.731 62.1287C86.2337 60.7811 84.3156 60.144 82.07 60.144V62.144C83.9204 62.144 85.3303 62.6589 86.393 63.6153L87.731 62.1287ZM82.07 60.144C80.3613 60.144 78.8349 60.5023 77.5326 61.2651C76.2267 62.03 75.2067 63.1662 74.46 64.6241L76.24 65.5359C76.8373 64.3698 77.6093 63.538 78.5434 62.9909C79.4811 62.4417 80.6427 62.144 82.07 62.144V60.144ZM74.4646 64.6152C73.0071 67.3914 72.334 71.4595 72.334 76.696H74.334C74.334 71.5645 75.0049 67.8886 76.2354 65.5448L74.4646 64.6152ZM154.151 54.136L153.493 54.8894L153.501 54.8958L153.508 54.902L154.151 54.136ZM159.527 103V104H160.527V103H159.527ZM148.871 103L147.949 103.386L148.206 104H148.871V103ZM145.895 95.896L146.817 95.5096L146.56 94.896H145.895V95.896ZM145.511 95.896V94.896H145.014L144.714 95.2916L145.511 95.896ZM141.191 100.504L141.828 101.275L141.828 101.275L141.191 100.504ZM136.103 103.096L135.845 102.13L135.83 102.134L135.816 102.138L136.103 103.096ZM121.319 102.232L120.842 103.111L120.857 103.119L120.872 103.126L121.319 102.232ZM115.943 96.76L115.062 97.2341L115.068 97.2437L115.943 96.76ZM119.399 75.064L119.983 75.8758L119.986 75.8739L119.399 75.064ZM135.719 70.648L135.685 69.6486L135.683 69.6486L135.719 70.648ZM144.167 70.36L144.201 71.3594L145.167 71.3265V70.36H144.167ZM142.343 62.008L141.618 62.6967L141.618 62.6967L142.343 62.008ZM130.535 61.24L130.82 62.1985L130.832 62.195L130.844 62.1912L130.535 61.24ZM123.431 63.928L122.531 64.3645L122.959 65.2455L123.849 64.8367L123.431 63.928ZM118.727 54.232L118.264 53.3458L117.404 53.7953L117.827 54.6685L118.727 54.232ZM128.039 50.776L127.805 49.8038L127.801 49.8048L128.039 50.776ZM139.751 78.904L139.785 79.9035L139.794 79.9031L139.751 78.904ZM131.783 81.4L131.076 80.6929L131.068 80.7004L131.061 80.7081L131.783 81.4ZM131.111 92.152L130.427 92.8815L130.45 92.9035L130.475 92.9239L131.111 92.152ZM141.575 90.808L140.856 90.1134L140.855 90.1139L141.575 90.808ZM144.263 78.712H145.263V77.6685L144.22 77.7129L144.263 78.712ZM139.175 50.528C145.49 50.528 150.215 52.0283 153.493 54.8894L154.809 53.3826C151.047 50.0997 145.788 48.528 139.175 48.528V50.528ZM153.508 54.902C156.795 57.6606 158.527 61.9728 158.527 68.056H160.527C160.527 61.5952 158.675 56.6274 154.794 53.37L153.508 54.902ZM158.527 68.056V103H160.527V68.056H158.527ZM159.527 102H148.871V104H159.527V102ZM149.793 102.614L146.817 95.5096L144.973 96.2824L147.949 103.386L149.793 102.614ZM145.895 94.896H145.511V96.896H145.895V94.896ZM144.714 95.2916C143.343 97.099 141.955 98.5756 140.554 99.733L141.828 101.275C143.371 100 144.863 98.405 146.308 96.5004L144.714 95.2916ZM140.554 99.733C139.198 100.854 137.632 101.653 135.845 102.13L136.361 104.062C138.414 103.515 140.24 102.586 141.828 101.275L140.554 99.733ZM135.816 102.138C134.016 102.678 131.783 102.96 129.095 102.96V104.96C131.911 104.96 134.35 104.666 136.39 104.054L135.816 102.138ZM129.095 102.96C126.352 102.96 123.916 102.412 121.766 101.338L120.872 103.126C123.33 104.356 126.078 104.96 129.095 104.96V102.96ZM121.796 101.353C119.739 100.236 118.079 98.557 116.818 96.2763L115.068 97.2437C116.495 99.827 118.419 101.796 120.842 103.111L121.796 101.353ZM116.823 96.2859C115.58 93.9759 114.927 91.0153 114.927 87.352H112.927C112.927 91.2407 113.618 94.5521 115.063 97.2341L116.823 96.2859ZM114.927 87.352C114.927 82.0195 116.659 78.2667 119.983 75.8758L118.815 74.2522C114.843 77.1093 112.927 81.5485 112.927 87.352H114.927ZM119.986 75.8739C123.47 73.351 128.682 71.9 135.755 71.6474L135.683 69.6486C128.42 69.908 122.752 71.401 118.812 74.2541L119.986 75.8739ZM135.753 71.6474L144.201 71.3594L144.133 69.3606L135.685 69.6486L135.753 71.6474ZM145.167 70.36V68.056H143.167V70.36H145.167ZM145.167 68.056C145.167 65.1859 144.537 62.8657 143.068 61.3192L141.618 62.6967C142.581 63.7103 143.167 65.4221 143.167 68.056H145.167ZM143.068 61.3192C141.627 59.802 139.679 59.088 137.351 59.088V61.088C139.247 61.088 140.627 61.654 141.618 62.6967L143.068 61.3192ZM137.351 59.088C135.056 59.088 132.68 59.493 130.226 60.2888L130.844 62.1912C133.126 61.451 135.294 61.088 137.351 61.088V59.088ZM130.25 60.2815C127.834 60.9996 125.422 61.9127 123.014 63.0193L123.849 64.8367C126.176 63.7673 128.5 62.8884 130.82 62.1985L130.25 60.2815ZM124.331 63.4915L119.627 53.7955L117.827 54.6685L122.531 64.3645L124.331 63.4915ZM119.19 55.1182C121.928 53.687 124.956 52.5619 128.277 51.7472L127.801 49.8048C124.338 50.6541 121.158 51.833 118.264 53.3458L119.19 55.1182ZM128.273 51.7482C131.644 50.9367 135.277 50.528 139.175 50.528V48.528C135.137 48.528 131.346 48.9513 127.805 49.8038L128.273 51.7482ZM139.717 77.9046C135.86 78.0353 132.884 78.8848 131.076 80.6929L132.49 82.1071C133.754 80.8432 136.09 80.0287 139.785 79.9034L139.717 77.9046ZM131.061 80.7081C129.38 82.4621 128.575 84.742 128.575 87.448H130.575C130.575 85.162 131.242 83.4099 132.505 82.0919L131.061 80.7081ZM128.575 87.448C128.575 89.7506 129.113 91.6499 130.427 92.8815L131.795 91.4225C131.061 90.734 130.575 89.4974 130.575 87.448H128.575ZM130.475 92.9239C131.78 93.9985 133.429 94.496 135.335 94.496V92.496C133.785 92.496 132.618 92.0975 131.747 91.3801L130.475 92.9239ZM135.335 94.496C138.046 94.496 140.383 93.4844 142.295 91.5021L140.855 90.1139C139.311 91.7156 137.488 92.496 135.335 92.496V94.496ZM142.294 91.5026C144.314 89.4107 145.263 86.541 145.263 83.032H143.263C143.263 86.179 142.42 88.4933 140.856 90.1134L142.294 91.5026ZM145.263 83.032V78.712H143.263V83.032H145.263ZM144.22 77.7129L139.708 77.9049L139.794 79.9031L144.306 79.7111L144.22 77.7129ZM174.805 97.144L174 97.7368L174.004 97.7422L174.805 97.144ZM174.901 56.536L175.701 57.136L175.701 57.136L174.901 56.536ZM194.293 50.68L193.904 51.601L193.925 51.6098L193.946 51.6177L194.293 50.68ZM198.709 53.368L198.022 54.094L198.031 54.1027L198.04 54.1113L198.709 53.368ZM201.973 57.304L201.119 57.8239L201.411 58.304H201.973V57.304ZM202.357 57.304V58.304H203.562L203.34 57.1197L202.357 57.304ZM201.781 52.888L200.786 52.9843L200.786 52.9875L201.781 52.888ZM201.493 30.04V29.04H200.493V30.04H201.493ZM216.853 30.04H217.853V29.04H216.853V30.04ZM216.853 103V104H217.853V103H216.853ZM205.237 103L204.33 103.421L204.599 104H205.237V103ZM202.069 96.184L202.976 95.7625L202.707 95.184H202.069V96.184ZM201.493 96.184V95.184H200.923L200.632 95.6753L201.493 96.184ZM198.421 100.12L199.109 100.846L199.119 100.837L199.128 100.827L198.421 100.12ZM194.005 102.904L193.628 101.978L193.628 101.978L194.005 102.904ZM200.533 89.08L199.674 88.5689L199.669 88.5761L200.533 89.08ZM200.725 65.272L201.628 64.8421L201.628 64.8421L200.725 65.272ZM187.477 65.368L186.604 64.8806L186.6 64.8877L187.477 65.368ZM187.477 88.696L186.605 89.1853L186.612 89.198L186.62 89.2105L187.477 88.696ZM187.861 102.96C182.889 102.96 178.825 100.857 175.607 96.5458L174.004 97.7422C177.57 102.519 182.21 104.96 187.861 104.96V102.96ZM175.611 96.5512C172.398 92.1866 170.717 85.6813 170.717 76.888H168.717C168.717 85.8867 170.429 92.8854 174 97.7368L175.611 96.5512ZM170.717 76.888C170.717 68.0318 172.429 61.4985 175.701 57.136L174.101 55.936C170.461 60.7895 168.717 67.8242 168.717 76.888H170.717ZM175.701 57.136C178.979 52.7661 183.169 50.624 188.341 50.624V48.624C182.506 48.624 177.736 51.0899 174.101 55.936L175.701 57.136ZM188.341 50.624C190.547 50.624 192.392 50.9613 193.904 51.601L194.683 49.759C192.867 48.9907 190.744 48.624 188.341 48.624V50.624ZM193.946 51.6177C195.56 52.2156 196.913 53.0437 198.022 54.094L199.397 52.642C198.074 51.3883 196.482 50.4244 194.641 49.7422L193.946 51.6177ZM198.04 54.1113C199.248 55.1982 200.274 56.4349 201.119 57.8239L202.827 56.7841C201.881 55.2291 200.731 53.8418 199.378 52.6247L198.04 54.1113ZM201.973 58.304H202.357V56.304H201.973V58.304ZM203.34 57.1197C203.156 56.1381 202.967 54.6996 202.776 52.7885L200.786 52.9875C200.979 54.9164 201.174 56.4219 201.374 57.4883L203.34 57.1197ZM202.777 52.7917C202.588 50.8406 202.493 48.8567 202.493 46.84H200.493C200.493 48.9193 200.591 50.9674 200.786 52.9843L202.777 52.7917ZM202.493 46.84V30.04H200.493V46.84H202.493ZM201.493 31.04H216.853V29.04H201.493V31.04ZM215.853 30.04V103H217.853V30.04H215.853ZM216.853 102H205.237V104H216.853V102ZM206.144 102.579L202.976 95.7625L201.162 96.6055L204.33 103.421L206.144 102.579ZM202.069 95.184H201.493V97.184H202.069V95.184ZM200.632 95.6753C199.845 97.0073 198.874 98.2532 197.714 99.4129L199.128 100.827C200.401 99.5548 201.477 98.1767 202.354 96.6927L200.632 95.6753ZM197.734 99.394C196.617 100.451 195.254 101.315 193.628 101.978L194.383 103.83C196.212 103.085 197.793 102.093 199.109 100.846L197.734 99.394ZM193.628 101.978C192.047 102.622 190.133 102.96 187.861 102.96V104.96C190.325 104.96 192.507 104.594 194.383 103.83L193.628 101.978ZM193.717 93.536C197.189 93.536 199.835 92.2611 201.397 89.5839L199.669 88.5761C198.543 90.5069 196.645 91.536 193.717 91.536V93.536ZM201.393 89.5911C202.936 86.9952 203.645 83.2614 203.645 78.52H201.645C201.645 83.1226 200.946 86.4288 199.674 88.5689L201.393 89.5911ZM203.645 78.52V76.984H201.645V78.52H203.645ZM203.645 76.984C203.645 71.8076 203.003 67.7283 201.628 64.8421L199.822 65.7019C201.008 68.1917 201.645 71.9204 201.645 76.984H203.645ZM201.628 64.8421C200.907 63.3274 199.849 62.157 198.454 61.3755C197.068 60.5997 195.41 60.24 193.525 60.24V62.24C195.161 62.24 196.462 62.5523 197.477 63.1205C198.481 63.683 199.264 64.5286 199.822 65.7019L201.628 64.8421ZM193.525 60.24C190.568 60.24 188.262 61.9093 186.604 64.8806L188.35 65.8554C189.764 63.3227 191.491 62.24 193.525 62.24V60.24ZM186.6 64.8877C185.01 67.7906 184.269 71.8914 184.269 77.08H186.269C186.269 72.0286 187 68.3214 188.354 65.8483L186.6 64.8877ZM184.269 77.08C184.269 82.2659 185.01 86.341 186.605 89.1853L188.349 88.2067C187.001 85.803 186.269 82.1341 186.269 77.08H184.269ZM186.62 89.2105C188.307 92.0223 190.688 93.536 193.717 93.536V91.536C191.499 91.536 189.72 90.4897 188.335 88.1815L186.62 89.2105ZM245.232 50.584H246.232V49.584H245.232V50.584ZM245.232 103V104H246.232V103H245.232ZM229.872 103H228.872V104H229.872V103ZM229.872 50.584V49.584H228.872V50.584H229.872ZM243.408 31.576L242.869 32.4183L242.881 32.4261L242.893 32.4335L243.408 31.576ZM243.408 42.52L242.869 41.6777L242.869 41.6777L243.408 42.52ZM231.792 42.52L232.331 41.6777L232.331 41.6777L231.792 42.52ZM231.792 31.576L232.306 32.4335L232.319 32.4261L232.331 32.4183L231.792 31.576ZM244.232 50.584V103H246.232V50.584H244.232ZM245.232 102H229.872V104H245.232V102ZM230.872 103V50.584H228.872V103H230.872ZM229.872 51.584H245.232V49.584H229.872V51.584ZM237.648 31.04C239.731 31.04 241.457 31.5145 242.869 32.4183L243.947 30.7337C242.159 29.5895 240.044 29.04 237.648 29.04V31.04ZM242.893 32.4335C244.07 33.1398 244.808 34.5414 244.808 37.048H246.808C246.808 34.1786 245.945 31.9322 243.922 30.7185L242.893 32.4335ZM244.808 37.048C244.808 39.4743 244.079 40.9033 242.869 41.6777L243.947 43.3623C245.937 42.0886 246.808 39.8697 246.808 37.048H244.808ZM242.869 41.6777C241.457 42.5815 239.731 43.056 237.648 43.056V45.056C240.044 45.056 242.159 44.5065 243.947 43.3623L242.869 41.6777ZM237.648 43.056C235.494 43.056 233.739 42.5787 232.331 41.6777L231.253 43.3623C233.045 44.5093 235.194 45.056 237.648 45.056V43.056ZM232.331 41.6777C231.121 40.9033 230.392 39.4743 230.392 37.048H228.392C228.392 39.8697 229.263 42.0886 231.253 43.3623L232.331 41.6777ZM230.392 37.048C230.392 34.5414 231.129 33.1398 232.306 32.4335L231.277 30.7185C229.254 31.9322 228.392 34.1786 228.392 37.048H230.392ZM232.331 32.4183C233.739 31.5173 235.494 31.04 237.648 31.04V29.04C235.194 29.04 233.045 29.5867 231.253 30.7337L232.331 32.4183ZM300.518 54.232L299.825 54.9534L299.833 54.9604L299.84 54.9674L300.518 54.232ZM305.414 103V104H306.414V103H305.414ZM290.054 103H289.054V104H290.054V103ZM288.326 63.928L287.456 64.421L287.466 64.4384L287.476 64.4554L288.326 63.928ZM275.558 65.56L276.475 65.9587L276.478 65.9516L275.558 65.56ZM273.638 103V104H274.638V103H273.638ZM258.278 103H257.278V104H258.278V103ZM258.278 50.584V49.584H257.278V50.584H258.278ZM269.894 50.584L270.848 50.2842L270.628 49.584H269.894V50.584ZM272.006 57.304L271.052 57.6038L271.272 58.304H272.006V57.304ZM272.678 57.304V58.304H273.241L273.533 57.823L272.678 57.304ZM276.518 52.984L277.112 53.7882L277.118 53.784L276.518 52.984ZM281.702 50.488L281.96 51.4542L281.975 51.4503L281.989 51.4458L281.702 50.488ZM287.846 50.624C292.886 50.624 296.845 52.0923 299.825 54.9534L301.211 53.5106C297.791 50.2277 293.302 48.624 287.846 48.624V50.624ZM299.84 54.9674C302.813 57.707 304.414 62.2402 304.414 68.824H306.414C306.414 61.9678 304.751 56.773 301.196 53.4966L299.84 54.9674ZM304.414 68.824V103H306.414V68.824H304.414ZM305.414 102H290.054V104H305.414V102ZM291.054 103V72.376H289.054V103H291.054ZM291.054 72.376C291.054 68.5329 290.474 65.4925 289.176 63.4006L287.476 64.4554C288.482 66.0755 289.054 68.6671 289.054 72.376H291.054ZM289.196 63.435C287.909 61.1646 285.793 60.048 283.046 60.048V62.048C285.163 62.048 286.567 62.8514 287.456 64.421L289.196 63.435ZM283.046 60.048C281.057 60.048 279.315 60.4511 277.874 61.3195C276.424 62.1931 275.35 63.4954 274.638 65.1684L276.478 65.9516C277.046 64.6166 277.86 63.6629 278.906 63.0325C279.961 62.3969 281.323 62.048 283.046 62.048V60.048ZM274.641 65.1613C273.28 68.2914 272.638 72.709 272.638 78.328H274.638C274.638 72.811 275.276 68.7166 276.475 65.9587L274.641 65.1613ZM272.638 78.328V103H274.638V78.328H272.638ZM273.638 102H258.278V104H273.638V102ZM259.278 103V50.584H257.278V103H259.278ZM258.278 51.584H269.894V49.584H258.278V51.584ZM268.94 50.8838L271.052 57.6038L272.96 57.0042L270.848 50.2842L268.94 50.8838ZM272.006 58.304H272.678V56.304H272.006V58.304ZM273.533 57.823C274.563 56.1261 275.759 54.7885 277.112 53.7882L275.924 52.1798C274.333 53.3555 272.969 54.8979 271.823 56.785L273.533 57.823ZM277.118 53.784C278.548 52.7115 280.159 51.9344 281.96 51.4542L281.444 49.5218C279.405 50.0656 277.56 50.9525 275.918 52.184L277.118 53.784ZM281.989 51.4458C283.809 50.9001 285.759 50.624 287.846 50.624V48.624C285.581 48.624 283.435 48.9239 281.415 49.5302L281.989 51.4458ZM342.376 51.544L341.88 52.4123L341.891 52.4182L342.376 51.544ZM348.04 57.304L347.173 57.8025L347.462 58.304H348.04V57.304ZM348.424 57.304V58.304H349.267L349.41 57.473L348.424 57.304ZM349.576 50.584V49.584H348.733L348.591 50.415L349.576 50.584ZM362.728 50.584H363.728V49.584H362.728V50.584ZM359.848 115.672L358.978 115.179L358.974 115.186L358.971 115.192L359.848 115.672ZM351.4 123.352L350.984 122.443L350.972 122.449L351.4 123.352ZM326.92 125.368L326.773 126.357L326.776 126.358L326.92 125.368ZM318.184 122.968H317.184V123.639L317.806 123.894L318.184 122.968ZM318.184 111.544L318.585 110.628L317.184 110.015V111.544H318.184ZM324.136 113.752L324.443 112.8L324.433 112.797L324.424 112.794L324.136 113.752ZM330.184 115.096L330.334 114.107L330.321 114.105L330.308 114.104L330.184 115.096ZM344.776 112.6L344.022 111.943L344.016 111.95L344.01 111.957L344.776 112.6ZM347.464 99.256L346.47 99.1456L346.467 99.173L346.466 99.2005L347.464 99.256ZM347.848 96.184L348.838 96.3254L349.001 95.184H347.848V96.184ZM347.368 96.184V95.184H346.757L346.478 95.7285L347.368 96.184ZM341.896 102.136L341.419 101.257L341.408 101.263L341.896 102.136ZM320.488 96.856L319.661 97.4183L319.666 97.4247L319.67 97.4309L320.488 96.856ZM317.896 62.2L318.831 62.556L318.833 62.5511L317.896 62.2ZM324.328 52.888L324.937 53.6813L324.94 53.6793L324.328 52.888ZM334.888 63.064L335.576 63.79L335.586 63.7807L335.595 63.7711L334.888 63.064ZM332.104 68.344L331.139 68.0831L331.136 68.0923L331.134 68.1015L332.104 68.344ZM333.256 88.888L332.366 89.3439L332.373 89.357L332.38 89.3699L333.256 88.888ZM343.624 92.056L344.005 92.9807L344.018 92.9754L344.03 92.9698L343.624 92.056ZM346.408 89.656L347.248 90.1993L347.255 90.1884L347.262 90.1774L346.408 89.656ZM347.944 85.24L346.966 85.0305L346.963 85.0473L346.96 85.0642L347.944 85.24ZM347.656 67.864L348.626 67.6215L348.626 67.6215L347.656 67.864ZM344.776 62.872L344.129 63.6339L344.149 63.6512L344.17 63.6674L344.776 62.872ZM334.12 50.624C337.256 50.624 339.826 51.2386 341.88 52.4122L342.872 50.6758C340.446 49.2894 337.513 48.624 334.12 48.624V50.624ZM341.891 52.4182C344.017 53.5996 345.781 55.3806 347.173 57.8025L348.907 56.8055C347.356 54.1074 345.343 52.0484 342.862 50.6698L341.891 52.4182ZM348.04 58.304H348.424V56.304H348.04V58.304ZM349.41 57.473L350.562 50.753L348.591 50.415L347.439 57.135L349.41 57.473ZM349.576 51.584H362.728V49.584H349.576V51.584ZM361.728 50.584V103.096H363.728V50.584H361.728ZM361.728 103.096C361.728 107.963 360.792 111.974 358.978 115.179L360.719 116.165C362.744 112.586 363.728 108.213 363.728 103.096H361.728ZM358.971 115.192C357.226 118.381 354.58 120.797 350.984 122.443L351.816 124.261C355.773 122.451 358.758 119.747 360.726 116.152L358.971 115.192ZM350.972 122.449C347.37 124.158 342.761 125.04 337.096 125.04V127.04C342.952 127.04 347.878 126.13 351.829 124.255L350.972 122.449ZM337.096 125.04C333.424 125.04 330.081 124.818 327.065 124.378L326.776 126.358C329.904 126.814 333.345 127.04 337.096 127.04V125.04ZM327.068 124.379C324.139 123.943 321.305 123.164 318.563 122.042L317.806 123.894C320.696 125.076 323.686 125.897 326.773 126.357L327.068 124.379ZM319.184 122.968V111.544H317.184V122.968H319.184ZM317.783 112.46C319.864 113.371 321.886 114.121 323.849 114.71L324.424 112.794C322.546 112.231 320.6 111.509 318.585 110.628L317.783 112.46ZM323.829 114.704C325.872 115.363 327.949 115.824 330.06 116.088L330.308 114.104C328.323 113.856 326.368 113.421 324.443 112.8L323.829 114.704ZM330.034 116.085C332.202 116.413 334.525 116.576 337 116.576V114.576C334.612 114.576 332.39 114.419 330.334 114.107L330.034 116.085ZM337 116.576C340.704 116.576 343.627 115.527 345.542 113.243L344.01 111.957C342.598 113.641 340.337 114.576 337 114.576V116.576ZM345.53 113.257C347.48 111.018 348.368 107.763 348.368 103.672H346.368C346.368 107.517 345.528 110.214 344.022 111.943L345.53 113.257ZM348.368 103.672V102.616H346.368V103.672H348.368ZM348.368 102.616C348.368 101.548 348.4 100.446 348.463 99.3115L346.466 99.2005C346.401 100.37 346.368 101.508 346.368 102.616H348.368ZM348.458 99.3664C348.585 98.2221 348.712 97.2087 348.838 96.3254L346.858 96.0426C346.728 96.9513 346.599 97.9859 346.47 99.1456L348.458 99.3664ZM347.848 95.184H347.368V97.184H347.848V95.184ZM346.478 95.7285C345.142 98.3397 343.447 100.156 341.419 101.257L342.373 103.015C344.825 101.684 346.778 99.5323 348.258 96.6395L346.478 95.7285ZM341.408 101.263C339.418 102.375 336.909 102.96 333.832 102.96V104.96C337.156 104.96 340.022 104.329 342.384 103.009L341.408 101.263ZM333.832 102.96C328.605 102.96 324.456 100.763 321.306 96.2811L319.67 97.4309C323.177 102.421 327.924 104.96 333.832 104.96V102.96ZM321.315 96.2937C318.205 91.7202 316.592 85.2882 316.592 76.888H314.592C314.592 85.5118 316.243 92.3918 319.661 97.4183L321.315 96.2937ZM316.592 76.888C316.592 71.2113 317.35 66.4433 318.831 62.556L316.962 61.844C315.371 66.0207 314.592 71.0447 314.592 76.888H316.592ZM318.833 62.5511C320.32 58.5849 322.368 55.6532 324.937 53.6813L323.719 52.0947C320.785 54.3468 318.545 57.6231 316.96 61.8489L318.833 62.5511ZM324.94 53.6793C327.573 51.6447 330.619 50.624 334.12 50.624V48.624C330.197 48.624 326.716 49.7793 323.717 52.0967L324.94 53.6793ZM339.496 60.24C337.398 60.24 335.6 60.9375 334.181 62.3569L335.595 63.7711C336.608 62.7584 337.882 62.24 339.496 62.24V60.24ZM334.201 62.338C332.803 63.6623 331.806 65.6149 331.139 68.0831L333.07 68.6049C333.683 66.3371 334.542 64.7697 335.576 63.79L334.201 62.338ZM331.134 68.1015C330.531 70.5129 330.24 73.5135 330.24 77.08H332.24C332.24 73.6065 332.525 70.7831 333.074 68.5865L331.134 68.1015ZM330.24 77.08C330.24 82.3809 330.914 86.5079 332.366 89.3439L334.146 88.4321C332.911 86.0201 332.24 82.2751 332.24 77.08H330.24ZM332.38 89.3699C333.155 90.7788 334.159 91.8811 335.408 92.6266C336.657 93.3726 338.096 93.728 339.688 93.728V91.728C338.401 91.728 337.327 91.4434 336.433 90.9094C335.538 90.3749 334.766 89.5572 334.132 88.4061L332.38 89.3699ZM339.688 93.728C341.317 93.728 342.765 93.4911 344.005 92.9807L343.244 91.1313C342.307 91.5169 341.132 91.728 339.688 91.728V93.728ZM344.03 92.9698C345.365 92.3767 346.441 91.4454 347.248 90.1993L345.569 89.1127C344.967 90.0426 344.188 90.7113 343.218 91.1422L344.03 92.9698ZM347.262 90.1774C348.049 88.8895 348.594 87.2901 348.929 85.4158L346.96 85.0642C346.655 86.7738 346.176 88.1185 345.555 89.1345L347.262 90.1774ZM348.922 85.4495C349.325 83.5676 349.52 81.317 349.52 78.712H347.52C347.52 81.227 347.331 83.3284 346.966 85.0305L348.922 85.4495ZM349.52 78.712V76.984H347.52V78.712H349.52ZM349.52 76.984C349.52 73.1682 349.23 70.0372 348.626 67.6215L346.686 68.1065C347.234 70.2988 347.52 73.2478 347.52 76.984H349.52ZM348.626 67.6215C348.017 65.1849 346.968 63.2845 345.382 62.0766L344.17 63.6674C345.273 64.5075 346.143 65.9351 346.686 68.1065L348.626 67.6215ZM345.424 62.1101C343.91 60.8236 341.894 60.24 339.496 60.24V62.24C341.579 62.24 343.082 62.7444 344.129 63.6339L345.424 62.1101Z" fill="#304362"/>
</svg>
