<svg width="53" height="143" viewBox="0 0 53 143" fill="none" xmlns="http://www.w3.org/2000/svg">
<g clip-path="url(#clip0_3_21)">
<path d="M33.096 43.624C38.344 43.624 42.568 45.16 45.768 48.232C49.032 51.24 50.664 56.104 50.664 62.824V97H35.304V66.376C35.304 62.6 34.728 59.784 33.576 57.928C32.488 56.008 30.728 55.048 28.296 55.048C24.584 55.048 22.088 56.552 20.808 59.56C19.528 62.504 18.888 66.76 18.888 72.328V97H3.528V44.584H15.144L17.256 51.304H17.928C19.016 49.512 20.296 48.072 21.768 46.984C23.304 45.832 25.032 45 26.952 44.488C28.872 43.912 30.92 43.624 33.096 43.624Z" fill="#6B8FCB"/>
<path d="M45.768 48.232L45.0755 48.9534L45.0828 48.9604L45.0903 48.9674L45.768 48.232ZM50.664 97V98H51.664V97H50.664ZM35.304 97H34.304V98H35.304V97ZM33.576 57.928L32.706 58.421L32.7158 58.4384L32.7264 58.4554L33.576 57.928ZM20.808 59.56L21.7251 59.9587L21.7282 59.9516L20.808 59.56ZM18.888 97V98H19.888V97H18.888ZM3.528 97H2.528V98H3.528V97ZM3.528 44.584V43.584H2.528V44.584H3.528ZM15.144 44.584L16.098 44.2842L15.8779 43.584H15.144V44.584ZM17.256 51.304L16.302 51.6038L16.5221 52.304H17.256V51.304ZM17.928 51.304V52.304H18.4907L18.7828 51.823L17.928 51.304ZM21.768 46.984L22.3624 47.7882L22.368 47.784L21.768 46.984ZM26.952 44.488L27.2097 45.4542L27.2246 45.4503L27.2393 45.4458L26.952 44.488ZM33.096 44.624C38.1363 44.624 42.0952 46.0923 45.0755 48.9534L46.4605 47.5106C43.0408 44.2277 38.5517 42.624 33.096 42.624V44.624ZM45.0903 48.9674C48.0631 51.707 49.664 56.2402 49.664 62.824H51.664C51.664 55.9678 50.0009 50.773 46.4457 47.4966L45.0903 48.9674ZM49.664 62.824V97H51.664V62.824H49.664ZM50.664 96H35.304V98H50.664V96ZM36.304 97V66.376H34.304V97H36.304ZM36.304 66.376C36.304 62.5329 35.724 59.4925 34.4256 57.4006L32.7264 58.4554C33.732 60.0755 34.304 62.6671 34.304 66.376H36.304ZM34.446 57.435C33.1595 55.1646 31.0435 54.048 28.296 54.048V56.048C30.4125 56.048 31.8165 56.8514 32.706 58.421L34.446 57.435ZM28.296 54.048C26.3072 54.048 24.5649 54.4511 23.1239 55.3195C21.674 56.1931 20.5998 57.4954 19.8878 59.1684L21.7282 59.9516C22.2962 58.6166 23.11 57.6629 24.1561 57.0325C25.2111 56.3969 26.5728 56.048 28.296 56.048V54.048ZM19.8909 59.1613C18.53 62.2914 17.888 66.709 17.888 72.328H19.888C19.888 66.811 20.526 62.7166 21.7251 59.9587L19.8909 59.1613ZM17.888 72.328V97H19.888V72.328H17.888ZM18.888 96H3.528V98H18.888V96ZM4.528 97V44.584H2.528V97H4.528ZM3.528 45.584H15.144V43.584H3.528V45.584ZM14.19 44.8838L16.302 51.6038L18.21 51.0042L16.098 44.2842L14.19 44.8838ZM17.256 52.304H17.928V50.304H17.256V52.304ZM18.7828 51.823C19.8131 50.1261 21.009 48.7885 22.3624 47.7882L21.1736 46.1798C19.583 47.3555 18.2189 48.8979 17.0732 50.785L18.7828 51.823ZM22.368 47.784C23.798 46.7115 25.409 45.9344 27.2097 45.4542L26.6943 43.5218C24.655 44.0656 22.81 44.9525 21.168 46.184L22.368 47.784ZM27.2393 45.4458C29.0585 44.9001 31.009 44.624 33.096 44.624V42.624C30.831 42.624 28.6855 42.9239 26.6647 43.5302L27.2393 45.4458Z" fill="#304362"/>
</g>
<defs>
<clipPath id="clip0_3_21">
<rect width="53" height="143" fill="white"/>
</clipPath>
</defs>
</svg>
