<svg width="52" height="143" viewBox="0 0 52 143" fill="none" xmlns="http://www.w3.org/2000/svg">
<g clip-path="url(#clip0_3_10)">
<path d="M50.704 70.696C50.704 75.048 50.128 78.92 48.976 82.312C47.888 85.704 46.288 88.584 44.176 90.952C42.064 93.256 39.472 95.016 36.4 96.232C33.392 97.384 30 97.96 26.224 97.96C22.704 97.96 19.44 97.384 16.432 96.232C13.424 95.016 10.832 93.256 8.656 90.952C6.544 88.584 4.88 85.704 3.664 82.312C2.512 78.92 1.936 75.048 1.936 70.696C1.936 64.872 2.928 59.976 4.912 56.008C6.896 51.976 9.712 48.904 13.36 46.792C17.008 44.68 21.392 43.624 26.512 43.624C31.248 43.624 35.408 44.68 38.992 46.792C42.64 48.904 45.488 51.976 47.536 56.008C49.648 59.976 50.704 64.872 50.704 70.696ZM17.584 70.696C17.584 74.152 17.872 77.064 18.448 79.432C19.088 81.736 20.048 83.496 21.328 84.712C22.672 85.864 24.368 86.44 26.416 86.44C28.528 86.44 30.192 85.864 31.408 84.712C32.688 83.496 33.616 81.736 34.192 79.432C34.768 77.064 35.056 74.152 35.056 70.696C35.056 67.24 34.768 64.36 34.192 62.056C33.616 59.752 32.656 58.024 31.312 56.872C30.032 55.72 28.368 55.144 26.32 55.144C23.184 55.144 20.944 56.456 19.6 59.08C18.256 61.64 17.584 65.512 17.584 70.696Z" fill="#6B8FCB"/>
<path d="M48.976 82.312L48.0291 81.9904L48.0264 81.9985L48.0238 82.0066L48.976 82.312ZM44.176 90.952L44.9132 91.6278L44.9223 91.6176L44.176 90.952ZM36.4 96.232L36.7577 97.1659L36.768 97.1618L36.4 96.232ZM16.432 96.232L16.0572 97.1591L16.0658 97.1626L16.0744 97.1659L16.432 96.232ZM8.656 90.952L7.90971 91.6176L7.9192 91.6283L7.92899 91.6386L8.656 90.952ZM3.664 82.312L2.71712 82.6336L2.71982 82.6415L2.72266 82.6495L3.664 82.312ZM4.912 56.008L5.80645 56.4552L5.80926 56.4495L4.912 56.008ZM13.36 46.792L13.861 47.6574L13.861 47.6574L13.36 46.792ZM38.992 46.792L38.4843 47.6536L38.491 47.6574L38.992 46.792ZM47.536 56.008L46.6444 56.4609L46.6488 56.4694L46.6533 56.4778L47.536 56.008ZM18.448 79.432L17.4763 79.6684L17.4802 79.6841L17.4845 79.6996L18.448 79.432ZM21.328 84.712L20.6393 85.437L20.6578 85.4546L20.6772 85.4713L21.328 84.712ZM31.408 84.712L32.0957 85.438L32.0968 85.437L31.408 84.712ZM34.192 79.432L35.1622 79.6745L35.1637 79.6684L34.192 79.432ZM34.192 62.056L33.2219 62.2985L33.2219 62.2985L34.192 62.056ZM31.312 56.872L30.643 57.6153L30.652 57.6234L30.6612 57.6313L31.312 56.872ZM19.6 59.08L20.4854 59.5449L20.49 59.5359L19.6 59.08ZM49.704 70.696C49.704 74.9613 49.1393 78.7215 48.0291 81.9904L49.9229 82.6336C51.1167 79.1185 51.704 75.1347 51.704 70.696H49.704ZM48.0238 82.0066C46.9732 85.2818 45.4378 88.0348 43.4297 90.2864L44.9223 91.6176C47.1382 89.1332 48.8028 86.1262 49.9282 82.6174L48.0238 82.0066ZM43.4388 90.2763C41.4349 92.4624 38.9715 94.1386 36.032 95.3022L36.768 97.1618C39.9725 95.8934 42.6931 94.0496 44.9132 91.6277L43.4388 90.2763ZM36.0424 95.2981C33.1664 96.3996 29.8984 96.96 26.224 96.96V98.96C30.1016 98.96 33.6176 98.3684 36.7576 97.1659L36.0424 95.2981ZM26.224 96.96C22.8149 96.96 19.6733 96.4025 16.7896 95.2981L16.0744 97.1659C19.2067 98.3655 22.5931 98.96 26.224 98.96V96.96ZM16.8068 95.3049C13.9289 94.1415 11.4579 92.4623 9.38301 90.2654L7.92899 91.6386C10.2061 94.0497 12.9191 95.8905 16.0572 97.1591L16.8068 95.3049ZM9.4023 90.2864C7.38659 88.0264 5.78384 85.2619 4.60534 81.9745L2.72266 82.6495C3.97616 86.1461 5.70141 89.1416 7.90971 91.6176L9.4023 90.2864ZM4.61088 81.9904C3.50068 78.7215 2.936 74.9613 2.936 70.696H0.936C0.936 75.1347 1.52332 79.1185 2.71712 82.6336L4.61088 81.9904ZM2.936 70.696C2.936 64.9806 3.91008 60.2479 5.80643 56.4552L4.01757 55.5608C1.94592 59.7041 0.936 64.7634 0.936 70.696H2.936ZM5.80926 56.4495C7.71204 52.5826 10.3956 49.6637 13.861 47.6574L12.859 45.9266C9.0284 48.1443 6.07996 51.3694 4.01474 55.5665L5.80926 56.4495ZM13.861 47.6574C17.3272 45.6507 21.5303 44.624 26.512 44.624V42.624C21.2537 42.624 16.6888 43.7093 12.859 45.9266L13.861 47.6574ZM26.512 44.624C31.0946 44.624 35.0745 45.6442 38.4843 47.6535L39.4997 45.9305C35.7415 43.7158 31.4014 42.624 26.512 42.624V44.624ZM38.491 47.6574C41.9593 49.6654 44.6773 52.5881 46.6444 56.4609L48.4276 55.5551C46.2987 51.3639 43.3207 48.1426 39.493 45.9266L38.491 47.6574ZM46.6533 56.4778C48.6689 60.2647 49.704 64.9889 49.704 70.696H51.704C51.704 64.7551 50.6271 59.6873 48.4187 55.5381L46.6533 56.4778ZM16.584 70.696C16.584 74.2014 16.8755 77.1983 17.4763 79.6684L19.4197 79.1956C18.8685 76.9297 18.584 74.1026 18.584 70.696H16.584ZM17.4845 79.6996C18.1564 82.1185 19.1893 84.0596 20.6393 85.437L22.0168 83.987C20.9067 82.9324 20.0196 81.3535 19.4115 79.1644L17.4845 79.6996ZM20.6772 85.4713C22.2304 86.8026 24.1689 87.44 26.416 87.44V85.44C24.5671 85.44 23.1136 84.9254 21.9788 83.9527L20.6772 85.4713ZM26.416 87.44C28.7141 87.44 30.6489 86.8086 32.0957 85.438L30.7203 83.986C29.7351 84.9194 28.3419 85.44 26.416 85.44V87.44ZM32.0968 85.437C33.5544 84.0523 34.5555 82.101 35.1621 79.6745L33.2219 79.1895C32.6765 81.371 31.8216 82.9397 30.7193 83.987L32.0968 85.437ZM35.1637 79.6684C35.7645 77.1983 36.056 74.2014 36.056 70.696H34.056C34.056 74.1026 33.7715 76.9297 33.2203 79.1956L35.1637 79.6684ZM36.056 70.696C36.056 67.1917 35.7647 64.2238 35.1621 61.8135L33.2219 62.2985C33.7713 64.4962 34.056 67.2883 34.056 70.696H36.056ZM35.1621 61.8135C34.5528 59.376 33.51 57.4389 31.9628 56.1127L30.6612 57.6313C31.802 58.6091 32.6792 60.128 33.2219 62.2985L35.1621 61.8135ZM31.981 56.1287C30.4837 54.7811 28.5656 54.144 26.32 54.144V56.144C28.1704 56.144 29.5803 56.6589 30.643 57.6153L31.981 56.1287ZM26.32 54.144C24.6113 54.144 23.0849 54.5023 21.7826 55.2651C20.4767 56.03 19.4567 57.1662 18.71 58.6241L20.49 59.5359C21.0873 58.3698 21.8593 57.538 22.7934 56.9909C23.7311 56.4417 24.8927 56.144 26.32 56.144V54.144ZM18.7146 58.6152C17.2571 61.3914 16.584 65.4595 16.584 70.696H18.584C18.584 65.5645 19.2549 61.8886 20.4854 59.5448L18.7146 58.6152Z" fill="#304362"/>
</g>
<defs>
<clipPath id="clip0_3_10">
<rect width="52" height="143" fill="white"/>
</clipPath>
</defs>
</svg>
