<svg width="1027" height="100" viewBox="0 0 1027 100" fill="none" xmlns="http://www.w3.org/2000/svg">
<g clip-path="url(#clip0_6_72)">
<g filter="url(#filter0_d_6_72)">
<path d="M68.064 6.648H80.256V95.544H68.064V6.648ZM34.272 39.096H54.912V49.368H34.272V39.096ZM49.728 8.184H61.632V91.608H49.728V8.184ZM6.432 65.304H12.576C25.152 65.304 33.504 65.016 43.296 63.096L44.256 73.464C34.368 75.48 25.536 75.864 12.576 75.864H6.432V65.304ZM6.432 16.632H40.32V26.808H19.008V69.72H6.432V16.632ZM153.113 6.55199H165.977V95.736H153.113V6.55199ZM118.073 12.792C131.513 12.792 141.401 25.08 141.401 44.472C141.401 64.056 131.513 76.344 118.073 76.344C104.633 76.344 94.7445 64.056 94.7445 44.472C94.7445 25.08 104.633 12.792 118.073 12.792ZM118.073 24.408C111.449 24.408 106.937 31.416 106.937 44.472C106.937 57.72 111.449 64.824 118.073 64.824C124.697 64.824 129.113 57.72 129.113 44.472C129.113 31.416 124.697 24.408 118.073 24.408ZM242.385 6.55199H255.057V95.736H242.385V6.55199ZM227.121 37.848H243.825V48.216H227.121V37.848ZM184.497 65.304H191.601C206.289 65.304 217.233 65.112 229.809 63.096L230.961 73.272C218.097 75.288 206.577 75.672 191.601 75.672H184.497V65.304ZM184.497 14.04H225.681V24.408H197.169V68.568H184.497V14.04ZM194.289 38.808H222.609V48.792H194.289V38.808ZM268.778 46.488H349.322V55.8H268.778V46.488ZM277.802 60.216H339.722V81.336H290.666V88.92H277.994V73.272H327.146V68.856H277.802V60.216ZM277.994 86.232H342.218V94.872H277.994V86.232ZM278.666 8.184H339.53V29.112H291.434V36.408H278.762V21.144H326.954V16.728H278.666V8.184ZM278.762 33.72H341.162V42.36H278.762V33.72ZM430.22 28.152H447.116V38.52H430.22V28.152ZM443.66 6.648H456.428V59.448H443.66V6.648ZM426.284 61.368C445.1 61.368 456.716 67.8 456.716 78.552C456.716 89.4 445.1 95.64 426.284 95.64C407.468 95.64 395.852 89.4 395.852 78.552C395.852 67.8 407.468 61.368 426.284 61.368ZM426.284 71.064C414.764 71.064 408.62 73.464 408.62 78.552C408.62 83.544 414.764 85.944 426.284 85.944C437.9 85.944 444.044 83.544 444.044 78.552C444.044 73.464 437.9 71.064 426.284 71.064ZM402.572 15.576H412.94V21.144C412.94 38.136 405.068 53.688 388.076 59.448L381.548 49.368C396.236 44.376 402.572 32.568 402.572 21.144V15.576ZM405.26 15.576H415.532V21.144C415.532 31.608 421.58 42.456 435.596 47.16L429.356 57.24C412.844 51.768 405.26 36.984 405.26 21.144V15.576ZM385.004 12.024H432.812V22.2H385.004V12.024ZM531.588 6.55199H544.356V95.736H531.588V6.55199ZM475.14 64.632H483.012C498.756 64.632 511.332 64.056 525.444 61.656L526.692 71.928C512.292 74.52 499.236 75 483.012 75H475.14V64.632ZM475.044 14.136H516.996V48.504H488.1V68.472H475.14V38.424H503.94V24.312H475.044V14.136ZM615.677 6.648H628.349V95.544H615.677V6.648ZM625.469 41.304H641.213V51.96H625.469V41.304ZM558.269 19.8H610.013V29.976H558.269V19.8ZM584.285 34.968C597.245 34.968 606.845 43.8 606.845 56.184C606.845 68.568 597.245 77.4 584.285 77.4C571.325 77.4 561.725 68.568 561.725 56.184C561.725 43.8 571.325 34.968 584.285 34.968ZM584.285 45.336C578.237 45.336 573.917 49.368 573.917 56.184C573.917 63 578.237 67.032 584.285 67.032C590.333 67.032 594.653 63 594.653 56.184C594.653 49.368 590.333 45.336 584.285 45.336ZM577.853 8.088H590.621V23.64H577.853V8.088ZM655.221 14.136H711.573V24.408H655.221V14.136ZM647.061 74.52H727.413V84.888H647.061V74.52ZM675.477 43.992H688.245V79.608H675.477V43.992ZM706.965 14.136H719.733V22.68C719.733 33.816 719.733 46.296 716.181 65.304L703.413 63.864C706.965 46.2 706.965 33.336 706.965 22.68V14.136ZM780.183 60.6H789.783V63.576C789.783 77.016 783.831 89.304 769.911 94.296L763.671 84.984C775.287 81.048 780.183 72.216 780.183 63.576V60.6ZM783.447 60.6H792.567V63.576C792.567 72.216 796.887 81.24 807.735 85.752L802.647 95.16C788.535 89.88 783.447 76.632 783.447 63.576V60.6ZM812.631 60.6H821.751V63.576C821.751 75.864 816.471 89.688 802.647 95.16L797.367 85.752C808.215 80.856 812.631 71.448 812.631 63.576V60.6ZM815.607 60.6H825.207V63.576C825.207 72.792 830.007 81.336 841.719 84.984L835.479 94.296C821.367 89.496 815.607 77.592 815.607 63.576V60.6ZM821.271 6.744H834.135V56.952H821.271V6.744ZM785.751 11.256C799.575 11.256 809.847 20.088 809.847 32.568C809.847 44.952 799.575 53.784 785.751 53.784C771.927 53.784 761.559 44.952 761.559 32.568C761.559 20.088 771.927 11.256 785.751 11.256ZM785.751 21.816C779.031 21.816 774.039 25.752 774.039 32.568C774.039 39.288 779.031 43.224 785.751 43.224C792.471 43.224 797.367 39.288 797.367 32.568C797.367 25.752 792.471 21.816 785.751 21.816ZM872.911 12.792C886.16 12.792 895.856 25.08 895.856 44.472C895.856 64.056 886.16 76.344 872.911 76.344C859.568 76.344 849.968 64.056 849.968 44.472C849.968 25.08 859.568 12.792 872.911 12.792ZM872.911 24.408C866.48 24.408 862.16 31.416 862.16 44.472C862.16 57.72 866.48 64.824 872.911 64.824C879.44 64.824 883.664 57.72 883.664 44.472C883.664 31.416 879.44 24.408 872.911 24.408ZM910.448 6.55199H923.12V95.736H910.448V6.55199ZM892.112 38.616H915.824V48.888H892.112V38.616ZM954.6 51.768H967.272V76.728H954.6V51.768ZM986.856 51.768H999.624V76.728H986.856V51.768ZM936.936 74.904H1017.38V85.272H936.936V74.904ZM977.064 10.968C996.168 10.968 1010.28 20.376 1010.28 34.872C1010.28 49.368 996.168 58.68 977.064 58.68C957.864 58.68 943.848 49.368 943.848 34.872C943.848 20.376 957.864 10.968 977.064 10.968ZM977.064 20.952C964.68 20.952 956.424 26.04 956.424 34.872C956.424 43.608 964.68 48.792 977.064 48.792C989.448 48.792 997.704 43.608 997.704 34.872C997.704 26.04 989.448 20.952 977.064 20.952Z" fill="#3FB8FF"/>
</g>
</g>
<defs>
<filter id="filter0_d_6_72" x="4.43201" y="6.55199" width="1018.95" height="97.184" filterUnits="userSpaceOnUse" color-interpolation-filters="sRGB">
<feFlood flood-opacity="0" result="BackgroundImageFix"/>
<feColorMatrix in="SourceAlpha" type="matrix" values="0 0 0 0 0 0 0 0 0 0 0 0 0 0 0 0 0 0 127 0" result="hardAlpha"/>
<feOffset dx="2" dy="4"/>
<feGaussianBlur stdDeviation="2"/>
<feComposite in2="hardAlpha" operator="out"/>
<feColorMatrix type="matrix" values="0 0 0 0 0 0 0 0 0 0 0 0 0 0 0 0 0 0 0.25 0"/>
<feBlend mode="normal" in2="BackgroundImageFix" result="effect1_dropShadow_6_72"/>
<feBlend mode="normal" in="SourceGraphic" in2="effect1_dropShadow_6_72" result="shape"/>
</filter>
<clipPath id="clip0_6_72">
<rect width="1027" height="100" fill="white"/>
</clipPath>
</defs>
</svg>
