<svg width="100" height="70" viewBox="0 0 100 70" fill="none" xmlns="http://www.w3.org/2000/svg">
<mask id="mask0_6_63" style="mask-type:luminance" maskUnits="userSpaceOnUse" x="0" y="0" width="100" height="70">
<path d="M99.996 0H0V70H99.996V0Z" fill="white"/>
</mask>
<g mask="url(#mask0_6_63)">
<path d="M48.7244 20.0441C45.5918 19.1339 42.1805 18.3684 38.5117 17.7475C37.4217 17.5606 36.3069 17.3912 35.1675 17.229C33.4318 16.9856 31.7774 16.8691 30.197 16.8691C13.5357 16.8691 5.62305 29.8828 5.62305 42.7695C5.62305 54.0157 11.5284 63.5617 24.1893 66.9694C27.4101 67.8372 31.0612 68.3029 35.1675 68.3029C41.5208 68.3029 47.4932 67.1811 52.7036 65.2021C64.1122 60.8771 71.8555 52.4494 71.8555 42.7695C71.8555 31.7348 63.3185 24.2949 48.7244 20.0476V20.0441Z" fill="#369CD8"/>
<path d="M48.7246 20.045C45.592 19.1349 42.1808 18.3694 38.512 17.7485C37.4219 17.5615 36.3072 17.3922 35.1677 17.2299C33.4321 16.9865 31.7776 16.8701 30.1972 16.8701C13.5359 16.8701 5.62329 29.8838 5.62329 42.7704C5.62329 54.0167 11.5286 63.5627 24.1895 66.9704C27.4103 67.8382 31.0615 68.3039 35.1677 68.3039C41.5211 68.3039 47.4935 67.1821 52.7039 65.203C64.1124 60.8781 71.8557 52.4504 71.8557 42.7704C71.8557 31.7358 63.3187 24.2959 48.7246 20.0486V20.045Z" fill="#369CD8"/>
<path d="M30.1971 16.8664C31.774 16.8664 33.432 16.9828 35.1676 17.2262C36.3035 17.3885 37.4218 17.5578 38.5119 17.7448C42.1807 18.3656 45.592 19.1311 48.7245 20.0413C63.3186 24.2851 71.8556 31.7285 71.8556 42.7632C71.8556 52.4431 64.1123 60.8708 52.7038 65.1957C47.4934 67.1748 41.521 68.2966 35.1676 68.2966C31.0614 68.2966 27.4102 67.8309 24.1894 66.9631C11.5286 63.5554 5.6232 54.0094 5.6232 42.7632C5.6232 29.88 13.5393 16.8664 30.1971 16.8628M30.1971 15.166C21.9846 15.166 15.1268 18.1857 10.3574 23.8935C6.2088 28.864 3.92285 35.5631 3.92285 42.7632C3.92285 48.8696 5.60203 54.4151 8.78048 58.8C12.2341 63.5624 17.2681 66.8608 23.745 68.6035C27.1739 69.5278 31.0155 69.9969 35.1641 69.9969C41.4963 69.9969 47.7686 68.8857 53.3035 66.7867C65.7915 62.0526 73.5525 52.8453 73.5525 42.7667C73.5525 36.9072 71.3265 31.8132 66.9345 27.6294C62.8671 23.7524 56.8982 20.6516 49.1973 18.415C46.0329 17.4943 42.5334 16.7076 38.7906 16.0726C37.7499 15.8962 36.6422 15.7234 35.404 15.547C33.6119 15.2965 31.8622 15.1695 30.1936 15.1695L30.1971 15.166Z" fill="#231815"/>
<path d="M34.8643 52.46C37.6133 52.46 39.8419 50.2315 39.8419 47.4825C39.8419 44.7334 37.6133 42.5049 34.8643 42.5049C32.1153 42.5049 29.8867 44.7334 29.8867 47.4825C29.8867 50.2315 32.1153 52.46 34.8643 52.46Z" fill="#EB6619"/>
<path d="M19.1094 52.46C21.8584 52.46 24.087 50.2315 24.087 47.4825C24.087 44.7334 21.8584 42.5049 19.1094 42.5049C16.3604 42.5049 14.1318 44.7334 14.1318 47.4825C14.1318 50.2315 16.3604 52.46 19.1094 52.46Z" fill="#EB6619"/>
<path d="M22.3056 45.9657C24.0727 45.9657 25.5052 43.6961 25.5052 40.8964C25.5052 38.0967 24.0727 35.8271 22.3056 35.8271C20.5385 35.8271 19.106 38.0967 19.106 40.8964C19.106 43.6961 20.5385 45.9657 22.3056 45.9657Z" fill="white"/>
<path d="M22.3056 35.8233C24.073 35.8233 25.5053 38.0916 25.5053 40.8926C25.5053 43.6936 24.073 45.9619 22.3056 45.9619C20.5383 45.9619 19.106 43.6936 19.106 40.8926C19.106 38.0916 20.5383 35.8233 22.3056 35.8233ZM22.3056 34.5498C19.7974 34.5498 17.8325 37.3367 17.8325 40.8926C17.8325 44.4485 19.7974 47.2354 22.3056 47.2354C24.8138 47.2354 26.7787 44.4485 26.7787 40.8926C26.7787 37.3367 24.8138 34.5498 22.3056 34.5498Z" fill="#231815"/>
<path d="M30.5851 45.9657C32.3522 45.9657 33.7847 43.6961 33.7847 40.8964C33.7847 38.0967 32.3522 35.8271 30.5851 35.8271C28.818 35.8271 27.3855 38.0967 27.3855 40.8964C27.3855 43.6961 28.818 45.9657 30.5851 45.9657Z" fill="white"/>
<path d="M30.5815 35.8233C32.3489 35.8233 33.7811 38.0916 33.7811 40.8926C33.7811 43.6936 32.3489 45.9619 30.5815 45.9619C28.8141 45.9619 27.3819 43.6936 27.3819 40.8926C27.3819 38.0916 28.8141 35.8233 30.5815 35.8233ZM30.5815 34.5498C28.0733 34.5498 26.1084 37.3367 26.1084 40.8926C26.1084 44.4485 28.0733 47.2354 30.5815 47.2354C33.0897 47.2354 35.0546 44.4485 35.0546 40.8926C35.0546 37.3367 33.0897 34.5498 30.5815 34.5498Z" fill="#231815"/>
<path d="M29.6468 41.3797L31.8374 42.2686C31.5835 43.849 30.6768 44.9673 29.6468 44.9673C28.405 44.9673 27.3855 43.3481 27.3855 41.3797C27.3855 39.4112 28.4085 37.792 29.6468 37.792C30.6028 37.792 31.46 38.7515 31.7775 40.1767L29.6468 41.3761V41.3797Z" fill="#040000"/>
<path d="M25.7911 51.5148C25.6077 51.5148 25.4207 51.5077 25.2302 51.4901C23.8015 51.356 22.7044 50.7316 22.0341 50.2307C21.8366 50.0825 21.7942 49.8003 21.9424 49.6028C22.0905 49.4052 22.3728 49.3629 22.5703 49.511C23.1453 49.9414 24.0872 50.4812 25.3113 50.594C28.0171 50.848 29.8903 48.8619 30.2395 48.4598C30.4018 48.2728 30.6875 48.2517 30.8745 48.4139C31.0615 48.5762 31.0826 48.8619 30.9204 49.0489C30.5464 49.4793 28.6238 51.5148 25.7911 51.5148Z" fill="#040000"/>
<path d="M26.0627 49.2035C25.6288 49.2035 25.2019 49.0448 24.8738 48.752C24.5105 48.431 24.2988 47.983 24.2882 47.5208C24.2776 47.0446 24.4823 46.5789 24.8491 46.2403C25.2266 45.891 25.7346 45.7182 26.2461 45.7711C26.493 45.7958 26.673 46.0145 26.6483 46.2615C26.6236 46.5084 26.4013 46.6883 26.1579 46.6636C25.9039 46.6389 25.6499 46.7236 25.4594 46.9C25.283 47.0622 25.1843 47.2845 25.1878 47.5032C25.1913 47.7149 25.2972 47.9265 25.47 48.0817C25.6605 48.2511 25.9004 48.3287 26.1544 48.304C26.4013 48.2793 26.6236 48.4592 26.6483 48.7061C26.673 48.9531 26.493 49.1753 26.2461 49.2C26.1861 49.2071 26.1262 49.2106 26.0662 49.2106L26.0627 49.2035Z" fill="#040000"/>
<path d="M21.3709 41.3797L23.5616 42.2686C23.3076 43.849 22.401 44.9673 21.3709 44.9673C20.1291 44.9673 19.1096 43.3481 19.1096 41.3797C19.1096 39.4112 20.1327 37.792 21.3709 37.792C22.3269 37.792 23.1841 38.7515 23.5016 40.1767L21.3709 41.3761V41.3797Z" fill="#040000"/>
<path d="M27.1067 40.625H25.7803V41.2106H27.1067V40.625Z" fill="black"/>
<path d="M17.4058 17.9736C18.2666 13.3629 22.2387 0.183476 39.6197 0.994845C57.946 1.85207 66.6171 11.5391 63.9713 26.3695C63.9713 26.3695 65.1249 26.9128 64.8392 27.9535C64.8392 27.9535 64.4441 28.7966 63.2976 28.726C63.2976 28.726 60.3484 28.6237 56.8031 27.9993C47.1196 26.8105 28.9026 24.1541 18.129 19.9738C17.8432 19.9985 17.5222 19.9174 17.1694 19.6034C15.8818 18.464 17.3987 17.9701 17.3987 17.9701L17.4058 17.9736Z" fill="#F9C200"/>
<path d="M63.4315 29.3685C63.3786 29.3685 63.3222 29.3685 63.2657 29.365C63.1599 29.365 60.2566 29.2556 56.7148 28.6312C46.8937 27.4247 28.8601 24.7896 18.0301 20.6163C17.5821 20.6163 17.1552 20.4364 16.7566 20.0801C16.1781 19.5686 15.9382 19.0394 16.0511 18.5103C16.1534 18.0093 16.5485 17.6989 16.8483 17.5296C17.7867 12.8765 22.0552 -0.458139 39.6513 0.360286C49.4689 0.818886 56.8771 3.84212 61.0821 9.10896C64.5498 13.4516 65.788 19.304 64.6733 26.0595C65.1883 26.4582 65.721 27.1707 65.4599 28.1268C65.4494 28.162 65.4388 28.1973 65.4211 28.2291C65.2165 28.6665 64.571 29.372 63.4315 29.372V29.3685ZM18.1324 19.3393C18.21 19.3393 18.2876 19.3534 18.3617 19.3816C29.0577 23.5302 47.0877 26.1654 56.8806 27.3683C56.8912 27.3683 56.9018 27.3683 56.9123 27.3718C60.3695 27.9821 63.2904 28.0879 63.3186 28.0915C63.8972 28.1268 64.1547 27.8375 64.2394 27.7175C64.3029 27.2907 63.8337 27.0155 63.7137 26.952C63.6608 26.9273 63.6079 26.8956 63.562 26.8603C63.3857 26.7157 63.301 26.4828 63.3398 26.2571C64.5286 19.6003 63.4315 14.0971 60.0802 9.89917C56.1116 4.92865 49.0244 2.07122 39.5878 1.63026C23.05 0.854163 19.0002 12.8836 18.0301 18.0869C17.9948 18.2845 17.8678 18.4503 17.6879 18.542C17.6562 18.5561 17.6244 18.5702 17.5892 18.5808C17.4727 18.6231 17.3387 18.7078 17.2964 18.7643C17.3105 18.8066 17.3704 18.9265 17.5962 19.1241C17.8608 19.3569 18.016 19.3428 18.076 19.3357C18.0936 19.3357 18.1148 19.3357 18.1324 19.3357V19.3393Z" fill="#221613"/>
<path d="M53.4905 4.06384C53.4905 4.06384 33.8095 0.109295 28.0347 22.9934C28.0347 22.9934 24.7328 22.4396 20.1997 20.8274C20.1997 20.8274 23.5193 3.16075 39.6232 0.994746C39.6232 0.994746 47.8392 -0.878459 53.4905 4.06384Z" fill="#F9C200"/>
<path d="M28.0346 23.6319C27.9993 23.6319 27.964 23.6319 27.9288 23.6249C27.7912 23.6002 24.5175 23.0428 19.9844 21.4306C19.6881 21.3248 19.5152 21.0214 19.5717 20.7145C19.6069 20.5311 20.4571 16.1285 23.3251 11.3979C27.1456 5.09742 32.7405 1.28752 39.5067 0.366788C40.1452 0.22568 48.1883 -1.4147 53.9067 3.58404C54.1254 3.77454 54.1854 4.08498 54.0584 4.34602C53.9314 4.60707 53.6456 4.74465 53.3634 4.68821C53.314 4.67763 48.4987 3.75337 43.0767 5.56661C35.8379 7.99013 30.9837 13.9061 28.6519 23.1486C28.5779 23.4344 28.3203 23.6284 28.0346 23.6284V23.6319ZM20.9439 20.4147C24.0377 21.4836 26.5036 22.0409 27.5689 22.2561C30.6945 10.5865 37.5135 6.07107 42.7274 4.3425C46.0646 3.2348 49.1337 3.09722 51.1551 3.18189C46.0329 0.250374 39.8312 1.60148 39.7606 1.61559C39.743 1.61912 39.7218 1.62265 39.7042 1.62617C33.2415 2.49399 28.1016 5.98993 24.4363 12.0188C22.2421 15.6276 21.2579 19.1165 20.9439 20.4147Z" fill="#221613"/>
<path d="M46.3292 25.7058C46.3292 25.7058 32.7194 30.1684 17.6314 27.0075C17.6314 27.0075 6.5968 24.7886 17.1728 19.6064L46.3292 25.7094V25.7058Z" fill="#F9C200"/>
<path d="M28.8883 28.7647C25.3289 28.7647 21.459 28.4578 17.5009 27.6287C16.9718 27.5229 12.2941 26.5105 11.9695 24.0093C11.7614 22.3866 13.37 20.7603 16.8942 19.0318C17.0212 18.9683 17.1658 18.9506 17.3034 18.9788L46.4598 25.0818C46.742 25.1417 46.9501 25.3816 46.9642 25.6709C46.9783 25.9601 46.802 26.2212 46.5268 26.3129C46.4245 26.3447 38.8858 28.7682 28.8848 28.7682L28.8883 28.7647ZM17.2611 20.27C13.4617 22.1679 13.176 23.399 13.236 23.8435C13.3982 25.1029 16.3544 26.0977 17.7585 26.3799C28.7155 28.6765 38.9846 26.8773 43.5918 25.7802L17.2611 20.27Z" fill="#221613"/>
<path d="M57.9629 35.8709C58.4452 34.2236 57.5015 32.4974 55.8552 32.0154C54.2089 31.5334 52.4832 32.478 52.0009 34.1254L45.4983 56.3346C45.016 57.9819 45.9596 59.708 47.606 60.1901C49.2524 60.6721 50.978 59.7275 51.4603 58.0802L57.9629 35.8709Z" fill="#444344"/>
<path d="M53.49 32.2691C54.1863 31.8882 55.0314 31.7717 55.8548 32.0129C57.5019 32.4951 58.4449 34.2189 57.9626 35.8659L51.4596 58.077C51.2185 58.9006 50.6677 59.5476 49.9682 59.9303C49.2688 60.3129 48.4269 60.4277 47.6033 60.1866C45.9563 59.7044 45.0132 57.9805 45.4955 56.3335L51.9986 34.1224C52.2398 33.2988 52.7905 32.6517 53.49 32.2691ZM53.0819 31.5232C52.1535 32.0311 51.4819 32.869 51.183 33.8809L44.6798 56.0921C44.0672 58.1844 45.2727 60.3879 47.365 61.0005C48.3801 61.2977 49.4461 61.181 50.3746 60.6731C51.303 60.1652 51.9747 59.3274 52.2735 58.3153L58.7766 36.1042C59.0738 35.0892 58.9571 34.0232 58.4492 33.0947C57.9413 32.1663 57.1034 31.4947 56.0914 31.1958C55.0765 30.8986 54.0104 31.0153 53.0819 31.5232Z" fill="#040000"/>
<path d="M43.3045 55.0752L44.0806 55.5745C44.1246 55.5938 44.1703 55.6163 44.2172 55.6339L47.5423 56.8665L49.65 57.6483L50.4282 57.9056C51.5058 58.2214 52.6199 58.3405 53.7469 58.2644L56.7611 58.0576C57.4127 58.0132 58.0541 58.1054 58.6675 58.3321L60.1858 58.8935C60.3978 58.9702 60.6346 58.8651 60.7112 58.6532L64.7173 47.8539C64.797 47.6402 64.6888 47.4051 64.4752 47.3254L63.1446 46.8343C62.3548 46.5429 61.6944 45.9761 61.2827 45.2402L59.2579 41.6268C58.7658 40.7459 57.9721 40.069 57.0269 39.721L56.7307 39.6117L55.7576 39.3493L54.9159 42.3571L50.0448 40.5506L49.276 40.2674L47.6054 39.6476C46.4188 39.2074 45.0994 39.8158 44.6575 40.9994C44.3335 41.8736 44.554 42.835 45.1336 43.4732C45.2151 43.5645 45.3884 43.729 45.3805 43.7295C44.8275 44.0064 44.3901 44.4893 44.1809 45.0559C43.8595 45.9204 44.0729 46.8696 44.6398 47.5071C44.5704 47.5352 44.4998 47.5681 44.4309 47.6041C43.9294 47.8715 43.531 48.344 43.3155 48.9347C43.1019 49.5078 43.1256 50.1307 43.3807 50.6883C43.4817 50.9112 43.6163 51.1145 43.7792 51.2892C43.8167 51.3326 43.8585 51.3695 43.9004 51.4063C43.3557 51.6416 42.9491 52.0863 42.7194 52.7016C42.4952 53.3054 42.5369 53.9382 42.8326 54.4885C42.9205 54.6537 43.0298 54.8065 43.1604 54.9467C43.2248 55.0155 43.2905 55.0792 43.3623 55.1394" fill="white"/>
<path d="M64.7068 46.7341L63.3745 46.2399C62.7285 45.9994 62.1854 45.5359 61.8468 44.9329L59.8221 41.3195C59.2555 40.3104 58.3446 39.5303 57.2567 39.1266L56.9605 39.0174C56.9605 39.0174 56.925 39.0054 56.9057 39.0003L55.9326 38.7378C55.595 38.6486 55.2487 38.846 55.1546 39.1824L54.4998 41.5223L47.8383 39.0514C46.323 38.4883 44.6335 39.2671 44.0733 40.7807C43.7223 41.7276 43.8711 42.8043 44.4441 43.6137C44.0668 43.9474 43.7726 44.3676 43.5999 44.8353C43.3016 45.6415 43.3668 46.5463 43.7512 47.2981C43.3005 47.646 42.949 48.1363 42.7356 48.7093C42.4643 49.4426 42.494 50.2375 42.8221 50.9485C42.8697 51.0514 42.9216 51.1478 42.9784 51.2454C42.6112 51.5611 42.3291 51.9741 42.1426 52.4744C41.855 53.2498 41.9086 54.0716 42.2953 54.7854C42.4081 54.9931 42.5488 55.193 42.7134 55.3706C42.7558 55.4154 42.7999 55.4632 42.8452 55.5061C42.8673 55.53 42.8907 55.5491 42.9158 55.5713C42.9325 55.5859 42.9493 55.6007 42.966 55.6155C43.0246 55.667 43.09 55.7024 43.1599 55.7312L43.7513 56.1095C43.7795 56.1299 43.812 56.1436 43.8444 56.1574L43.8788 56.1742C43.9226 56.1935 43.9665 56.2129 44.0135 56.2304L49.4673 58.2529L50.2667 58.5185C51.4214 58.8547 52.6152 58.9846 53.8083 58.9027L56.8224 58.6959C57.3843 58.6587 57.9363 58.7375 58.4656 58.9317L59.9839 59.4931C60.2446 59.5904 60.5285 59.5804 60.7835 59.4646C60.814 59.4468 60.8463 59.4321 60.8737 59.4162C61.0841 59.2938 61.2398 59.1053 61.3264 58.8754L65.3324 48.0761C65.4297 47.8154 65.4179 47.5284 65.3039 47.2764C65.1881 47.0214 64.9784 46.8291 64.7177 46.7318L64.7068 46.7341ZM60.2038 58.2224L58.8991 57.7408C58.2014 57.4815 57.4707 57.376 56.7246 57.4265L53.7104 57.6332C52.6639 57.7073 51.6211 57.5916 50.634 57.3048L49.875 57.0526L44.4423 55.0382C44.4423 55.0382 44.4098 55.0245 44.3984 55.0189L44.3869 55.0133L43.7031 54.5744C43.6828 54.5536 43.6625 54.5328 43.6422 54.5118C43.5504 54.4102 43.469 54.2984 43.4047 54.1808C43.1969 53.7955 43.1685 53.3469 43.3262 52.9164C43.453 52.5732 43.6484 52.3127 43.9024 52.1321L46.8812 53.0642C47.0602 53.1193 47.242 53.095 47.3914 53.0081C47.5256 52.9301 47.6283 52.8051 47.68 52.6484C47.7869 52.3128 47.5981 51.9533 47.2613 51.8514L44.3391 50.9394L44.3122 50.9143C44.2936 50.8965 44.2752 50.8787 44.2549 50.8579C44.1392 50.7291 44.0414 50.5821 43.9679 50.4208C43.7827 50.0183 43.7653 49.5673 43.9191 49.1513C44.076 48.7335 44.3474 48.4002 44.6779 48.2037L48.8464 49.4762C49.0237 49.5282 49.2055 49.504 49.3519 49.4188C49.486 49.3408 49.5918 49.214 49.6418 49.0543C49.7437 48.7175 49.5537 48.3628 49.2199 48.259L45.0496 46.9835C44.6809 46.5042 44.573 45.8486 44.7865 45.2755C44.9164 44.9306 45.163 44.632 45.4768 44.4209L50.777 46.0389C50.9542 46.091 51.136 46.0668 51.2824 45.9816C51.4166 45.9035 51.5224 45.7767 51.5723 45.6171C51.6743 45.2802 51.4843 44.9256 51.1504 44.8218L45.7327 43.17C45.7327 43.17 45.7327 43.17 45.731 43.167C45.6904 43.1253 45.6433 43.0793 45.611 43.0449C45.1662 42.561 45.0324 41.847 45.2617 41.2239C45.5806 40.369 46.5328 39.9293 47.3908 40.2465L54.703 42.959C54.8698 43.0212 55.0557 43.011 55.2135 42.9314C55.3743 42.8501 55.4901 42.7052 55.5376 42.5346L56.2109 40.135L56.5454 40.2261L56.8109 40.3247C57.6171 40.623 58.2875 41.2001 58.7095 41.9464L60.7342 45.5599C61.2191 46.4287 62.001 47.0921 62.9287 47.438L64.0473 47.8524L60.1994 58.229L60.2038 58.2224Z" fill="#040000"/>
<rect x="31.2452" y="2.62725" width="65.9013" height="22" rx="4.5" transform="rotate(17.5065 31.2452 2.62725)" fill="#D9D9D9" stroke="black"/>
<path d="M35.6882 8.95224C37.8391 9.63262 39.0315 11.4866 38.4332 13.3782C37.8397 15.2545 35.798 16.0855 33.647 15.4051C31.4961 14.7247 30.3037 12.8708 30.8972 10.9944C31.4956 9.10282 33.5372 8.27187 35.6882 8.95224ZM35.167 10.5998C34.1297 10.2717 33.1683 10.6053 32.8498 11.6121C32.5314 12.6189 33.126 13.4447 34.1634 13.7728C35.2007 14.101 36.1468 13.7625 36.4653 12.7557C36.7838 11.7489 36.2044 10.9279 35.167 10.5998ZM41.5391 10.3499L43.5833 10.9965L41.3491 18.0596L39.3049 17.413L41.5391 10.3499ZM31.7381 15.6572L41.1658 18.6392L39.9401 22.514L32.5262 20.1689L31.9857 21.8775L30.0026 21.2502L31.0063 18.0771L38.3897 20.4126L38.6551 19.5736L31.2411 17.2284L31.7381 15.6572ZM30.2631 20.4264L40.0111 23.5098L39.5141 25.0811L29.7661 21.9976L30.2631 20.4264ZM54.9318 14.5862L56.9455 15.2231L52.4772 29.3493L50.4635 28.7123L54.9318 14.5862ZM54.7459 20.5854L57.2477 21.3768L56.7121 23.0701L54.2103 22.2787L54.7459 20.5854ZM45.1482 13.7905L53.3707 16.3914L52.8592 18.0085L44.6367 15.4076L45.1482 13.7905ZM48.5199 17.5085C50.5794 18.1599 51.6609 20.0459 51.0385 22.0138C50.416 23.9817 48.4465 24.9027 46.3871 24.2512C44.3277 23.5998 43.2461 21.7138 43.8686 19.7459C44.4911 17.778 46.4605 16.8571 48.5199 17.5085ZM47.9988 19.1561C47.0377 18.8521 46.1486 19.2756 45.806 20.3587C45.4634 21.4418 45.9472 22.2997 46.9083 22.6037C47.8693 22.9077 48.7585 22.4841 49.1011 21.401C49.4437 20.3179 48.9599 19.4601 47.9988 19.1561ZM48.849 12.9138L50.8779 13.5556L50.0962 16.0269L48.0672 15.3851L48.849 12.9138ZM60.2839 20.4745L70.0777 23.5724L69.571 25.1741L59.7773 22.0762L60.2839 20.4745ZM57.7275 23.0389L70.5265 27.0874L70.015 28.7044L57.216 24.6559L57.7275 23.0389ZM61.331 17.1641L63.3447 17.8011L62.0467 21.9047L60.033 21.2677L61.331 17.1641ZM57.4927 28.8213L67.5 31.9867L66.9885 33.6038L56.9812 30.4383L57.4927 28.8213ZM58.3082 26.2432L60.3371 26.885L59.3865 29.8902L57.3576 29.2484L58.3082 26.2432ZM80.7875 30.568L82.8165 31.2098L82.0299 33.6964L80.001 33.0546L80.7875 30.568ZM75.6301 28.1983L88.3985 32.2371L87.8919 33.8389L75.1234 29.8001L75.6301 28.1983ZM81.1663 32.8191C84.2173 33.7841 85.7736 35.2833 85.2573 36.9156C84.741 38.5479 82.6056 38.8793 79.5546 37.9142C76.4884 36.9443 74.932 35.4452 75.4483 33.8129C75.9646 32.1806 78.1 31.8492 81.1663 32.8191ZM80.6837 34.3446C78.7921 33.7462 77.7297 33.7626 77.5078 34.4643C77.2906 35.1508 78.1455 35.7904 80.0371 36.3887C81.9288 36.9871 82.996 36.9555 83.2131 36.269C83.4351 35.5673 82.5754 34.9429 80.6837 34.3446ZM82.2301 24.681L84.0302 25.2504L83.9193 25.6013C83.2485 27.7217 80.7916 28.8576 77.0395 28.0399L76.8396 26.2315C80.0184 26.9517 81.7717 26.1302 82.1192 25.0319L82.2301 24.681ZM83.2217 24.9946L85.0218 25.564L84.9108 25.9149C84.5586 27.0285 85.5102 28.6888 88.5402 29.9325L87.3366 31.2971C83.8121 29.813 82.4352 27.4812 83.1107 25.3455L83.2217 24.9946ZM78.6376 22.7223L89.1025 26.0325L88.5959 27.6343L78.1309 24.3241L78.6376 22.7223Z" fill="black"/>
</g>
</svg>
