<svg width="26" height="26" viewBox="0 0 26 26" fill="none" xmlns="http://www.w3.org/2000/svg">
<path d="M22.2929 6.29289L19.7071 3.70711C19.3166 3.31658 18.6834 3.31658 18.2929 3.70711L13.7071 8.29289C13.3166 8.68342 12.6834 8.68342 12.2929 8.29289L7.70711 3.70711C7.31658 3.31658 6.68342 3.31658 6.29289 3.70711L3.70711 6.29289C3.31658 6.68342 3.31658 7.31658 3.70711 7.70711L8.29289 12.2929C8.68342 12.6834 8.68342 13.3166 8.29289 13.7071L3.70711 18.2929C3.31658 18.6834 3.31658 19.3166 3.70711 19.7071L6.29289 22.2929C6.68342 22.6834 7.31658 22.6834 7.70711 22.2929L12.2929 17.7071C12.6834 17.3166 13.3166 17.3166 13.7071 17.7071L18.2929 22.2929C18.6834 22.6834 19.3166 22.6834 19.7071 22.2929L22.2929 19.7071C22.6834 19.3166 22.6834 18.6834 22.2929 18.2929L17.7071 13.7071C17.3166 13.3166 17.3166 12.6834 17.7071 12.2929L22.2929 7.70711C22.6834 7.31658 22.6834 6.68342 22.2929 6.29289Z" fill="white"/>
<path d="M22.2929 6.29289L19.7071 3.70711C19.3166 3.31658 18.6834 3.31658 18.2929 3.70711L13.7071 8.29289C13.3166 8.68342 12.6834 8.68342 12.2929 8.29289L7.70711 3.70711C7.31658 3.31658 6.68342 3.31658 6.29289 3.70711L3.70711 6.29289C3.31658 6.68342 3.31658 7.31658 3.70711 7.70711L8.29289 12.2929C8.68342 12.6834 8.68342 13.3166 8.29289 13.7071L3.70711 18.2929C3.31658 18.6834 3.31658 19.3166 3.70711 19.7071L6.29289 22.2929C6.68342 22.6834 7.31658 22.6834 7.70711 22.2929L12.2929 17.7071C12.6834 17.3166 13.3166 17.3166 13.7071 17.7071L18.2929 22.2929C18.6834 22.6834 19.3166 22.6834 19.7071 22.2929L22.2929 19.7071C22.6834 19.3166 22.6834 18.6834 22.2929 18.2929L17.7071 13.7071C17.3166 13.3166 17.3166 12.6834 17.7071 12.2929L22.2929 7.70711C22.6834 7.31658 22.6834 6.68342 22.2929 6.29289Z" fill="black"/>
<path d="M22.2929 6.29289L19.7071 3.70711C19.3166 3.31658 18.6834 3.31658 18.2929 3.70711L13.7071 8.29289C13.3166 8.68342 12.6834 8.68342 12.2929 8.29289L7.70711 3.70711C7.31658 3.31658 6.68342 3.31658 6.29289 3.70711L3.70711 6.29289C3.31658 6.68342 3.31658 7.31658 3.70711 7.70711L8.29289 12.2929C8.68342 12.6834 8.68342 13.3166 8.29289 13.7071L3.70711 18.2929C3.31658 18.6834 3.31658 19.3166 3.70711 19.7071L6.29289 22.2929C6.68342 22.6834 7.31658 22.6834 7.70711 22.2929L12.2929 17.7071C12.6834 17.3166 13.3166 17.3166 13.7071 17.7071L18.2929 22.2929C18.6834 22.6834 19.3166 22.6834 19.7071 22.2929L22.2929 19.7071C22.6834 19.3166 22.6834 18.6834 22.2929 18.2929L17.7071 13.7071C17.3166 13.3166 17.3166 12.6834 17.7071 12.2929L22.2929 7.70711C22.6834 7.31658 22.6834 6.68342 22.2929 6.29289Z" stroke="black" stroke-width="0.5"/>
</svg>
