<svg width="32" height="32" viewBox="0 0 32 32" fill="none" xmlns="http://www.w3.org/2000/svg">
<rect width="32" height="32" rx="16" fill="#089FEC"/>
<path d="M22.3284 24.3833C24.4169 24.3833 26.1099 22.6903 26.1099 20.6018C26.1099 18.5134 24.4169 16.8203 22.3284 16.8203C20.2399 16.8203 18.5469 18.5134 18.5469 20.6018C18.5469 22.6903 20.2399 24.3833 22.3284 24.3833Z" fill="#EB6619"/>
<path d="M10.3533 24.3833C12.4418 24.3833 14.1348 22.6903 14.1348 20.6018C14.1348 18.5134 12.4418 16.8203 10.3533 16.8203C8.26482 16.8203 6.57178 18.5134 6.57178 20.6018C6.57178 22.6903 8.26482 24.3833 10.3533 24.3833Z" fill="#EB6619"/>
<path d="M12.7829 19.4481C14.1249 19.4481 15.2129 17.7227 15.2129 15.5942C15.2129 13.4657 14.1249 11.7402 12.7829 11.7402C11.4409 11.7402 10.353 13.4657 10.353 15.5942C10.353 17.7227 11.4409 19.4481 12.7829 19.4481Z" fill="white"/>
<path d="M12.783 11.7406C14.1248 11.7406 15.213 13.4659 15.213 15.5945C15.213 17.7232 14.1248 19.4485 12.783 19.4485C11.4413 19.4485 10.3531 17.7232 10.3531 15.5945C10.3531 13.4659 11.4413 11.7406 12.783 11.7406ZM12.783 10.9932C11.0018 10.9932 9.60571 13.0132 9.60571 15.5929C9.60571 18.1726 11.0018 20.1926 12.783 20.1926C14.5643 20.1926 15.9604 18.1726 15.9604 15.5929C15.9604 13.0132 14.5643 10.9932 12.783 10.9932Z" fill="#231815"/>
<path d="M19.0735 19.4481C20.4155 19.4481 21.5034 17.7227 21.5034 15.5942C21.5034 13.4657 20.4155 11.7402 19.0735 11.7402C17.7315 11.7402 16.6436 13.4657 16.6436 15.5942C16.6436 17.7227 17.7315 19.4481 19.0735 19.4481Z" fill="white"/>
<path d="M19.0736 11.7406C20.4153 11.7406 21.5035 13.4659 21.5035 15.5945C21.5035 17.7232 20.4153 19.4485 19.0736 19.4485C17.7318 19.4485 16.6437 17.7232 16.6437 15.5945C16.6437 13.4659 17.7318 11.7406 19.0736 11.7406ZM19.0736 10.9932C17.2923 10.9932 15.8962 13.0132 15.8962 15.5929C15.8962 18.1726 17.2923 20.1926 19.0736 20.1926C20.8548 20.1926 22.2509 18.1726 22.2509 15.5929C22.2509 13.0132 20.8548 10.9932 19.0736 10.9932Z" fill="#231815"/>
<path d="M18.3639 15.9636L20.03 16.6402C19.8357 17.842 19.1476 18.6898 18.3639 18.6898C17.4206 18.6898 16.6436 17.4584 16.6436 15.9636C16.6436 14.4687 17.4206 13.2373 18.3639 13.2373C19.0899 13.2373 19.7419 13.9666 19.9839 15.0515L18.3639 15.9636Z" fill="#040000"/>
<path d="M15.432 23.6988C15.2921 23.6988 15.1489 23.6922 15.004 23.6791C14.138 23.5984 13.2919 23.2642 12.5593 22.716C12.3946 22.5925 12.3601 22.3587 12.4835 22.1941C12.607 22.0295 12.8408 21.9949 13.0054 22.1184C13.44 22.4427 14.1512 22.8493 15.0715 22.9349C17.1129 23.1259 18.527 21.6261 18.7904 21.3232C18.9254 21.1668 19.1609 21.1504 19.3173 21.287C19.4737 21.422 19.4901 21.6574 19.3535 21.8138C19.067 22.1431 17.5985 23.6988 15.4304 23.6988H15.432Z" fill="#040000"/>
<path d="M15.6393 21.941C15.3002 21.941 14.9693 21.8175 14.7141 21.5903C14.4326 21.3417 14.2663 20.9911 14.2581 20.6305C14.2499 20.2601 14.4096 19.8963 14.6944 19.6329C14.9874 19.3613 15.3858 19.2279 15.7809 19.2691C15.9867 19.2905 16.1349 19.4732 16.1151 19.6773C16.0937 19.8831 15.911 20.0329 15.7068 20.0115C15.5225 19.9934 15.3397 20.0543 15.2014 20.1811C15.073 20.2996 15.0022 20.4577 15.0055 20.6141C15.0088 20.7672 15.0829 20.9186 15.2097 21.0306C15.348 21.1524 15.5241 21.21 15.7052 21.1903C15.9093 21.1689 16.0937 21.3187 16.1151 21.5245C16.1365 21.7303 15.9867 21.913 15.7809 21.9344C15.7348 21.9393 15.6871 21.941 15.641 21.941H15.6393Z" fill="#040000"/>
<path d="M12.0734 15.9636L13.7394 16.6402C13.5452 17.842 12.857 18.6898 12.0734 18.6898C11.1301 18.6898 10.353 17.4584 10.353 15.9636C10.353 14.4687 11.1301 13.2373 12.0734 13.2373C12.7994 13.2373 13.4513 13.9666 13.6933 15.0515L12.0734 15.9636Z" fill="#040000"/>
<path d="M22.2806 21.6651C18.9402 21.6651 16.2239 18.9487 16.2239 15.6084C16.2239 12.2681 18.9402 9.55176 22.2806 9.55176C25.6209 9.55176 28.3372 12.2681 28.3372 15.6084C28.3372 18.9487 25.6209 21.6651 22.2806 21.6651ZM22.2806 10.3914C19.4045 10.3914 17.0635 12.7324 17.0635 15.6084C17.0635 18.4845 19.4045 20.8255 22.2806 20.8255C25.1566 20.8255 27.4976 18.4845 27.4976 15.6084C27.4976 12.7324 25.1566 10.3914 22.2806 10.3914Z" fill="black"/>
<path d="M9.57792 21.6651C6.23761 21.6651 3.52124 18.9487 3.52124 15.6084C3.52124 12.2681 6.23761 9.55176 9.57792 9.55176C12.9182 9.55176 15.6346 12.2681 15.6346 15.6084C15.6346 18.9487 12.9182 21.6651 9.57792 21.6651ZM9.57792 10.3914C6.70186 10.3914 4.36085 12.7324 4.36085 15.6084C4.36085 18.4845 6.70186 20.8255 9.57792 20.8255C12.454 20.8255 14.795 18.4845 14.795 15.6084C14.795 12.7324 12.454 10.3914 9.57792 10.3914Z" fill="black"/>
<path d="M16.4314 15.4492H15.4238V15.7702H16.4314V15.4492Z" fill="black"/>
</svg>
