<svg width="16" height="16" viewBox="0 0 16 16" fill="none" xmlns="http://www.w3.org/2000/svg">
<rect width="16" height="16" rx="8" fill="#089FEC"/>
<path d="M12.2907 12.2259C13.7872 12.2259 15.0003 11.0128 15.0003 9.51627C15.0003 8.01978 13.7872 6.80664 12.2907 6.80664C10.7942 6.80664 9.58105 8.01978 9.58105 9.51627C9.58105 11.0128 10.7942 12.2259 12.2907 12.2259Z" fill="#EB6619"/>
<path d="M3.70963 12.2259C5.20612 12.2259 6.41926 11.0128 6.41926 9.51627C6.41926 8.01978 5.20612 6.80664 3.70963 6.80664C2.21314 6.80664 1 8.01978 1 9.51627C1 11.0128 2.21314 12.2259 3.70963 12.2259Z" fill="#EB6619"/>
<ellipse cx="5.19697" cy="6.66162" rx="2.19697" ry="3.66162" fill="white"/>
<ellipse cx="4.46465" cy="6.66182" rx="1.46465" ry="2.19697" fill="black"/>
<ellipse cx="9.59102" cy="6.66162" rx="2.19697" ry="3.66162" fill="white"/>
<ellipse cx="8.85869" cy="6.66182" rx="1.46465" ry="2.19697" fill="black"/>
</svg>
